<svg width="306" height="59" viewBox="0 0 306 59" fill="none" xmlns="http://www.w3.org/2000/svg">
<path d="M15 36.5317C16.6758 29.4187 20.1637 22.7115 25.4638 16.4103C30.9977 9.83842 37.5253 4.98687 45.0468 1.85558L55.6859 9.56784C54.8675 12.3898 53.484 15.4439 51.5355 18.7298L44.3453 14.7867C45.0078 13.4723 45.6703 11.7327 46.3329 9.56784C38.2268 13.7043 32.2448 19.3676 28.3866 26.558C27.1006 28.9548 26.1458 31.4482 25.5223 34.0383C30.2767 33.3425 34.3297 32.492 37.6813 31.4869C38.5386 29.7859 39.5128 27.6984 40.6041 25.2243L48.4373 29.2254C44.3063 37.2662 39.1621 45.1911 33.0047 53L26.7498 47.3753C29.5947 43.7801 31.5433 41.2093 32.5955 39.663C28.8153 40.9001 24.9961 41.7506 21.138 42.2144L15 36.5317ZM92.2209 19.7735C88.0899 16.101 84.2318 13.1824 80.6465 11.0175C76.6714 13.0664 73.1445 16.5456 70.0658 21.4551C66.8701 26.5194 65.0775 31.6608 64.6878 36.8797C70.8062 35.2174 76.0284 31.1003 80.3542 24.5284C81.7961 22.2863 83.0626 19.7349 84.1539 16.8742L92.2209 19.7735C89.6098 27.0412 86.1999 32.666 81.991 36.6477C77.4314 40.9774 71.5467 43.8187 64.3371 45.1718L55.6855 37.2856C56.8156 25.3789 61.7454 15.7918 70.475 8.52407C73.5148 5.97265 77.0806 3.74982 81.1726 1.85558C86.3557 4.48432 90.9154 7.84759 94.8516 11.9453L92.2209 19.7735ZM132.295 19.7735C128.165 16.101 124.307 13.1824 120.721 11.0175C116.746 13.0664 113.22 16.5456 110.14 21.4551C106.945 26.5194 105.153 31.6608 104.762 36.8797C110.881 35.2174 116.103 31.1003 120.429 24.5284C121.871 22.2863 123.138 19.7349 124.228 16.8742L132.295 19.7735C129.685 27.0412 126.274 32.666 122.066 36.6477C117.506 40.9774 111.622 43.8187 104.412 45.1718L95.76 37.2856C96.8904 25.3789 101.821 15.7918 110.55 8.52407C113.589 5.97265 117.155 3.74982 121.247 1.85558C126.431 4.48432 130.99 7.84759 134.926 11.9453L132.295 19.7735ZM133.555 36.8217C136.011 31.3323 138.174 27.0025 140.044 23.8326C143.161 18.6138 146.533 13.8202 150.157 9.45186C147.156 9.0266 144.721 8.81401 142.85 8.81401L145.364 1.91357C150.04 2.10686 154.541 2.57076 158.867 3.30525C163.193 4.0011 167.421 5.23815 171.552 7.01641L175.001 14.7867C173.131 22.6342 168.98 29.1288 162.55 34.2702C156.626 38.9865 149.456 42.1178 141.038 43.6641L133.555 36.8217ZM143.844 35.0241C149.144 33.5164 153.84 30.9264 157.932 27.2538C162.258 23.3881 165.102 18.8844 166.467 13.7429C162.296 12.0033 157.425 10.6696 151.852 9.7418L156.997 13.9169C151.54 20.7593 147.156 27.7951 143.844 35.0241ZM184.143 34.4442C189.442 35.6039 195.386 36.2998 201.972 36.5317L199.575 44.012C193.691 43.8961 187.455 43.1229 180.869 41.6926L174.205 35.6619C176.933 29.438 180.986 22.4989 186.364 14.8446C187.884 12.6411 189.365 10.6696 190.807 8.92998C188.079 8.50472 185.838 8.29213 184.084 8.29213L186.832 1.10175C197.783 1.44967 207.506 3.42123 216.002 7.01641L212.67 15.4825C206.785 12.6991 200.101 10.6116 192.619 9.21992L197.646 13.337C195.776 15.5791 194.08 17.86 192.56 20.1794C196.419 21.0299 200.257 21.6291 204.076 21.977L201.446 29.3414C195.483 28.2976 191.119 27.4084 188.352 26.674C186.87 29.1094 185.467 31.6995 184.143 34.4442ZM224.678 27.3118C220.352 32.8012 216.942 38.31 214.448 43.8381L208.076 37.9814C210.609 33.2651 213.941 28.3362 218.072 23.1948L214.565 21.2232L219.592 14.9606L223.392 17.0481C228.146 12.0226 232.745 7.84759 237.187 4.52298L241.513 8.4081C242.098 6.01131 242.565 3.65318 242.916 1.3337L250.223 7.59628C247.924 19.1937 243.267 31.6222 236.252 44.8818L229.588 38.8512C230.835 36.6091 231.732 34.9661 232.277 33.9223C230.134 31.5642 227.6 29.3607 224.678 27.3118ZM229.763 21.3972C231.868 22.9822 233.797 24.7024 235.551 26.558C237.928 20.682 239.682 15.5211 240.812 11.0755C237.383 13.7429 233.7 17.1835 229.763 21.3972ZM253.588 37.6335C255.965 31.7575 258.557 26.5966 261.362 22.151C264.207 17.6666 266.896 13.6849 269.429 10.2057C264.753 8.73667 260.641 7.55762 257.095 6.66849L261.421 0C269.994 1.62364 279.854 4.58097 291 8.87199L286.966 16.8742C280.887 14.3614 275.626 12.3319 271.183 10.7856L276.152 15.1926C271.67 21.2232 267.676 28.0077 264.168 35.546C262.96 38.0587 261.713 40.8228 260.427 43.8381L253.588 37.6335Z" fill="url(#paint0_linear_292_5817)"/>
<defs>
<linearGradient id="paint0_linear_292_5817" x1="17.4991" y1="1.40893" x2="287.878" y2="37.837" gradientUnits="userSpaceOnUse">
<stop stop-color="#8AD4EC"/>
<stop offset="0.217372" stop-color="#EF96FF"/>
<stop offset="0.540308" stop-color="#FF56A9"/>
<stop offset="0.852826" stop-color="#FFAA6C"/>
</linearGradient>
</defs>
</svg>
