<svg width="302" height="88" viewBox="0 0 302 88" fill="none" xmlns="http://www.w3.org/2000/svg">
<path d="M37.767 3.36364H38.9943L42.4432 8.88636H42.5455L45.9943 3.36364H47.2216L43.0227 9.96023V15H41.9659V9.96023L37.767 3.36364ZM51.1648 15.1818C50.411 15.1818 49.7443 14.9905 49.1648 14.608C48.589 14.2254 48.1383 13.697 47.8125 13.0227C47.4867 12.3447 47.3239 11.5625 47.3239 10.6761C47.3239 9.7822 47.4867 8.99621 47.8125 8.31818C48.1383 7.63636 48.589 7.10606 49.1648 6.72727C49.7443 6.3447 50.411 6.15341 51.1648 6.15341C51.9186 6.15341 52.5833 6.3447 53.1591 6.72727C53.7348 7.10985 54.1856 7.64015 54.5114 8.31818C54.8409 8.99621 55.0057 9.7822 55.0057 10.6761C55.0057 11.5625 54.8428 12.3447 54.517 13.0227C54.1913 13.697 53.7386 14.2254 53.1591 14.608C52.5833 14.9905 51.9186 15.1818 51.1648 15.1818ZM51.1648 14.2557C51.7708 14.2557 52.2841 14.0928 52.7045 13.767C53.125 13.4413 53.4432 13.0076 53.6591 12.4659C53.8788 11.9242 53.9886 11.3277 53.9886 10.6761C53.9886 10.0246 53.8788 9.42614 53.6591 8.88068C53.4432 8.33523 53.125 7.89773 52.7045 7.56818C52.2841 7.23864 51.7708 7.07386 51.1648 7.07386C50.5625 7.07386 50.0492 7.23864 49.625 7.56818C49.2045 7.89773 48.8845 8.33523 48.6648 8.88068C48.4489 9.42614 48.3409 10.0246 48.3409 10.6761C48.3409 11.3277 48.4489 11.9242 48.6648 12.4659C48.8845 13.0076 49.2045 13.4413 49.625 13.767C50.0455 14.0928 50.5587 14.2557 51.1648 14.2557ZM62.7713 11.6648V6.27273H63.7827V15H62.7713V13.5511H62.6918C62.4872 13.9981 62.1634 14.3712 61.7202 14.6705C61.277 14.9659 60.7353 15.1136 60.0952 15.1136C59.5384 15.1136 59.044 14.9924 58.6122 14.75C58.1804 14.5038 57.8414 14.1439 57.5952 13.6705C57.349 13.197 57.2259 12.6155 57.2259 11.9261V6.27273H58.2372V11.8636C58.2372 12.5455 58.438 13.0947 58.8395 13.5114C59.241 13.9242 59.7562 14.1307 60.3849 14.1307C60.7789 14.1307 61.1577 14.036 61.5213 13.8466C61.8849 13.6572 62.1842 13.3807 62.419 13.017C62.6539 12.6496 62.7713 12.1989 62.7713 11.6648ZM66.4602 15V6.27273H67.4432V7.61364H67.517C67.6913 7.17424 67.9943 6.82008 68.4261 6.55114C68.8617 6.27841 69.3542 6.14205 69.9034 6.14205C69.9867 6.14205 70.0795 6.14394 70.1818 6.14773C70.2841 6.15152 70.3693 6.1553 70.4375 6.15909V7.1875C70.392 7.17992 70.3125 7.16856 70.1989 7.15341C70.0852 7.13826 69.9621 7.13068 69.8295 7.13068C69.375 7.13068 68.9697 7.22727 68.6136 7.42045C68.2614 7.60985 67.983 7.87311 67.7784 8.21023C67.5739 8.54735 67.4716 8.93182 67.4716 9.36364V15H66.4602ZM76.6634 18.2727V6.27273H77.6463V7.9375H77.7656C77.8868 7.67614 78.0535 7.40909 78.2656 7.13636C78.4777 6.85985 78.758 6.62689 79.1065 6.4375C79.4588 6.24811 79.902 6.15341 80.4361 6.15341C81.1558 6.15341 81.7846 6.3428 82.3224 6.72159C82.8641 7.09659 83.2846 7.62311 83.5838 8.30114C83.8868 8.97538 84.0384 9.76136 84.0384 10.6591C84.0384 11.5606 83.8868 12.3504 83.5838 13.0284C83.2846 13.7064 82.8641 14.2348 82.3224 14.6136C81.7846 14.9924 81.1596 15.1818 80.4474 15.1818C79.9209 15.1818 79.4796 15.0871 79.1236 14.8977C78.7713 14.7083 78.4853 14.4754 78.2656 14.1989C78.0497 13.9186 77.883 13.6458 77.7656 13.3807H77.6747V18.2727H76.6634ZM77.6634 10.642C77.6634 11.3466 77.7675 11.9716 77.9759 12.517C78.188 13.0587 78.491 13.4848 78.8849 13.7955C79.2827 14.1023 79.7637 14.2557 80.3281 14.2557C80.9077 14.2557 81.3963 14.0966 81.794 13.7784C82.1955 13.4564 82.5005 13.0227 82.7088 12.4773C82.9209 11.9318 83.027 11.3201 83.027 10.642C83.027 9.97159 82.9228 9.36742 82.7145 8.82955C82.5099 8.29167 82.2069 7.86553 81.8054 7.55114C81.4039 7.23295 80.9115 7.07386 80.3281 7.07386C79.7599 7.07386 79.277 7.22727 78.8793 7.53409C78.4815 7.83712 78.1785 8.25758 77.9702 8.79545C77.7656 9.32955 77.6634 9.94508 77.6634 10.642ZM88.6946 15.1989C88.1681 15.1989 87.687 15.0966 87.2514 14.892C86.8158 14.6837 86.4692 14.3845 86.2116 13.9943C85.9541 13.6004 85.8253 13.1231 85.8253 12.5625C85.8253 12.1307 85.9067 11.767 86.0696 11.4716C86.2325 11.1761 86.4635 10.9337 86.7628 10.7443C87.062 10.5549 87.4162 10.4053 87.8253 10.2955C88.2344 10.1856 88.6851 10.1004 89.1776 10.0398C89.6662 9.97917 90.0791 9.92614 90.4162 9.88068C90.7571 9.83523 91.0166 9.76326 91.1946 9.66477C91.3726 9.56629 91.4616 9.4072 91.4616 9.1875V8.98295C91.4616 8.38826 91.2836 7.92045 90.9276 7.57955C90.5753 7.23485 90.0677 7.0625 89.4048 7.0625C88.776 7.0625 88.2628 7.20076 87.8651 7.47727C87.4711 7.75379 87.1946 8.07955 87.0355 8.45455L86.0753 8.10795C86.2723 7.63068 86.545 7.25 86.8935 6.96591C87.242 6.67803 87.6321 6.47159 88.0639 6.34659C88.4957 6.2178 88.9332 6.15341 89.3764 6.15341C89.7098 6.15341 90.0563 6.19697 90.4162 6.28409C90.7798 6.37121 91.117 6.52273 91.4276 6.73864C91.7382 6.95076 91.9901 7.24811 92.1832 7.63068C92.3764 8.00947 92.473 8.49053 92.473 9.07386V15H91.4616V13.6193H91.3991C91.2779 13.8769 91.098 14.1269 90.8594 14.3693C90.6207 14.6117 90.3215 14.8106 89.9616 14.9659C89.6018 15.1212 89.1795 15.1989 88.6946 15.1989ZM88.831 14.2727C89.3688 14.2727 89.8348 14.1534 90.2287 13.9148C90.6226 13.6761 90.9257 13.3598 91.1378 12.9659C91.3537 12.5682 91.4616 12.1307 91.4616 11.6534V10.392C91.3859 10.464 91.259 10.5284 91.081 10.5852C90.9067 10.642 90.7041 10.6932 90.473 10.7386C90.2457 10.7803 90.0185 10.8163 89.7912 10.8466C89.5639 10.8769 89.3594 10.9034 89.1776 10.9261C88.6851 10.9867 88.2647 11.0814 87.9162 11.2102C87.5677 11.339 87.3007 11.517 87.1151 11.7443C86.9295 11.9678 86.8366 12.2557 86.8366 12.608C86.8366 13.1383 87.026 13.5492 87.4048 13.8409C87.7836 14.1288 88.259 14.2727 88.831 14.2727ZM101.027 8.1875L100.101 8.44886C100.01 8.1875 99.8812 7.95076 99.7145 7.73864C99.5478 7.52652 99.33 7.35795 99.0611 7.23295C98.7959 7.10795 98.4664 7.04545 98.0724 7.04545C97.4815 7.04545 96.9967 7.18561 96.6179 7.46591C96.2391 7.74621 96.0497 8.10795 96.0497 8.55114C96.0497 8.92614 96.1785 9.23106 96.4361 9.46591C96.6974 9.69697 97.099 9.88068 97.6406 10.017L98.9588 10.3409C99.6899 10.5189 100.237 10.8011 100.601 11.1875C100.968 11.5739 101.152 12.0587 101.152 12.642C101.152 13.1345 101.016 13.572 100.743 13.9545C100.47 14.3371 100.089 14.6383 99.6009 14.858C99.116 15.0739 98.5535 15.1818 97.9134 15.1818C97.0611 15.1818 96.3584 14.9905 95.8054 14.608C95.2524 14.2216 94.8982 13.6648 94.7429 12.9375L95.7145 12.6989C95.8395 13.2178 96.0838 13.6098 96.4474 13.875C96.8149 14.1402 97.2978 14.2727 97.8963 14.2727C98.5668 14.2727 99.1027 14.1231 99.5043 13.8239C99.9058 13.5208 100.107 13.142 100.107 12.6875C100.107 12.3352 99.9891 12.0398 99.7543 11.8011C99.5194 11.5587 99.1634 11.3807 98.6861 11.267L97.2599 10.9261C96.5024 10.7443 95.9418 10.4564 95.5781 10.0625C95.2145 9.66856 95.0327 9.17992 95.0327 8.59659C95.0327 8.11553 95.1634 7.69318 95.4247 7.32955C95.6861 6.96212 96.0459 6.67424 96.5043 6.46591C96.9626 6.25758 97.4853 6.15341 98.0724 6.15341C98.8717 6.15341 99.5099 6.33523 99.9872 6.69886C100.468 7.05871 100.815 7.55492 101.027 8.1875ZM109.23 8.1875L108.304 8.44886C108.213 8.1875 108.084 7.95076 107.918 7.73864C107.751 7.52652 107.533 7.35795 107.264 7.23295C106.999 7.10795 106.67 7.04545 106.276 7.04545C105.685 7.04545 105.2 7.18561 104.821 7.46591C104.442 7.74621 104.253 8.10795 104.253 8.55114C104.253 8.92614 104.382 9.23106 104.639 9.46591C104.901 9.69697 105.302 9.88068 105.844 10.017L107.162 10.3409C107.893 10.5189 108.44 10.8011 108.804 11.1875C109.171 11.5739 109.355 12.0587 109.355 12.642C109.355 13.1345 109.219 13.572 108.946 13.9545C108.673 14.3371 108.293 14.6383 107.804 14.858C107.319 15.0739 106.757 15.1818 106.116 15.1818C105.264 15.1818 104.562 14.9905 104.009 14.608C103.455 14.2216 103.101 13.6648 102.946 12.9375L103.918 12.6989C104.043 13.2178 104.287 13.6098 104.651 13.875C105.018 14.1402 105.501 14.2727 106.099 14.2727C106.77 14.2727 107.306 14.1231 107.707 13.8239C108.109 13.5208 108.31 13.142 108.31 12.6875C108.31 12.3352 108.192 12.0398 107.957 11.8011C107.723 11.5587 107.366 11.3807 106.889 11.267L105.463 10.9261C104.705 10.7443 104.145 10.4564 103.781 10.0625C103.418 9.66856 103.236 9.17992 103.236 8.59659C103.236 8.11553 103.366 7.69318 103.628 7.32955C103.889 6.96212 104.249 6.67424 104.707 6.46591C105.166 6.25758 105.688 6.15341 106.276 6.15341C107.075 6.15341 107.713 6.33523 108.19 6.69886C108.671 7.05871 109.018 7.55492 109.23 8.1875ZM111.57 18.2727V6.27273H112.553V7.9375H112.672C112.793 7.67614 112.96 7.40909 113.172 7.13636C113.384 6.85985 113.664 6.62689 114.013 6.4375C114.365 6.24811 114.808 6.15341 115.342 6.15341C116.062 6.15341 116.691 6.3428 117.229 6.72159C117.77 7.09659 118.191 7.62311 118.49 8.30114C118.793 8.97538 118.945 9.76136 118.945 10.6591C118.945 11.5606 118.793 12.3504 118.49 13.0284C118.191 13.7064 117.77 14.2348 117.229 14.6136C116.691 14.9924 116.066 15.1818 115.354 15.1818C114.827 15.1818 114.386 15.0871 114.03 14.8977C113.678 14.7083 113.392 14.4754 113.172 14.1989C112.956 13.9186 112.789 13.6458 112.672 13.3807H112.581V18.2727H111.57ZM112.57 10.642C112.57 11.3466 112.674 11.9716 112.882 12.517C113.094 13.0587 113.397 13.4848 113.791 13.7955C114.189 14.1023 114.67 14.2557 115.234 14.2557C115.814 14.2557 116.303 14.0966 116.7 13.7784C117.102 13.4564 117.407 13.0227 117.615 12.4773C117.827 11.9318 117.933 11.3201 117.933 10.642C117.933 9.97159 117.829 9.36742 117.621 8.82955C117.416 8.29167 117.113 7.86553 116.712 7.55114C116.31 7.23295 115.818 7.07386 115.234 7.07386C114.666 7.07386 114.183 7.22727 113.786 7.53409C113.388 7.83712 113.085 8.25758 112.876 8.79545C112.672 9.32955 112.57 9.94508 112.57 10.642ZM124.555 15.1818C123.802 15.1818 123.135 14.9905 122.555 14.608C121.98 14.2254 121.529 13.697 121.203 13.0227C120.877 12.3447 120.714 11.5625 120.714 10.6761C120.714 9.7822 120.877 8.99621 121.203 8.31818C121.529 7.63636 121.98 7.10606 122.555 6.72727C123.135 6.3447 123.802 6.15341 124.555 6.15341C125.309 6.15341 125.974 6.3447 126.55 6.72727C127.125 7.10985 127.576 7.64015 127.902 8.31818C128.232 8.99621 128.396 9.7822 128.396 10.6761C128.396 11.5625 128.233 12.3447 127.908 13.0227C127.582 13.697 127.129 14.2254 126.55 14.608C125.974 14.9905 125.309 15.1818 124.555 15.1818ZM124.555 14.2557C125.161 14.2557 125.675 14.0928 126.095 13.767C126.516 13.4413 126.834 13.0076 127.05 12.4659C127.269 11.9242 127.379 11.3277 127.379 10.6761C127.379 10.0246 127.269 9.42614 127.05 8.88068C126.834 8.33523 126.516 7.89773 126.095 7.56818C125.675 7.23864 125.161 7.07386 124.555 7.07386C123.953 7.07386 123.44 7.23864 123.016 7.56818C122.595 7.89773 122.275 8.33523 122.055 8.88068C121.839 9.42614 121.732 10.0246 121.732 10.6761C121.732 11.3277 121.839 11.9242 122.055 12.4659C122.275 13.0076 122.595 13.4413 123.016 13.767C123.436 14.0928 123.949 14.2557 124.555 14.2557ZM130.616 15V6.27273H131.599V7.61364H131.673C131.848 7.17424 132.151 6.82008 132.582 6.55114C133.018 6.27841 133.51 6.14205 134.06 6.14205C134.143 6.14205 134.236 6.14394 134.338 6.14773C134.44 6.15152 134.526 6.1553 134.594 6.15909V7.1875C134.548 7.17992 134.469 7.16856 134.355 7.15341C134.241 7.13826 134.118 7.13068 133.986 7.13068C133.531 7.13068 133.126 7.22727 132.77 7.42045C132.418 7.60985 132.139 7.87311 131.935 8.21023C131.73 8.54735 131.628 8.93182 131.628 9.36364V15H130.616ZM140.304 6.27273V7.15341H136.139V6.27273H140.304ZM137.44 4.18182H138.457V12.7216C138.457 13.0852 138.52 13.3712 138.645 13.5795C138.77 13.7841 138.933 13.9299 139.134 14.017C139.334 14.1004 139.548 14.142 139.776 14.142C139.908 14.142 140.022 14.1345 140.116 14.1193C140.211 14.1004 140.295 14.0814 140.366 14.0625L140.582 14.9773C140.484 15.0152 140.363 15.0492 140.219 15.0795C140.075 15.1136 139.897 15.1307 139.685 15.1307C139.313 15.1307 138.955 15.0492 138.611 14.8864C138.27 14.7235 137.99 14.4811 137.77 14.1591C137.55 13.8371 137.44 13.4375 137.44 12.9602V4.18182ZM150.538 6.27273V7.15341H146.374V6.27273H150.538ZM147.675 4.18182H148.692V12.7216C148.692 13.0852 148.754 13.3712 148.879 13.5795C149.004 13.7841 149.167 13.9299 149.368 14.017C149.569 14.1004 149.783 14.142 150.01 14.142C150.143 14.142 150.256 14.1345 150.351 14.1193C150.446 14.1004 150.529 14.0814 150.601 14.0625L150.817 14.9773C150.718 15.0152 150.597 15.0492 150.453 15.0795C150.309 15.1136 150.131 15.1307 149.919 15.1307C149.548 15.1307 149.19 15.0492 148.845 14.8864C148.504 14.7235 148.224 14.4811 148.004 14.1591C147.785 13.8371 147.675 13.4375 147.675 12.9602V4.18182ZM156.134 15.1818C155.38 15.1818 154.713 14.9905 154.134 14.608C153.558 14.2254 153.107 13.697 152.781 13.0227C152.455 12.3447 152.293 11.5625 152.293 10.6761C152.293 9.7822 152.455 8.99621 152.781 8.31818C153.107 7.63636 153.558 7.10606 154.134 6.72727C154.713 6.3447 155.38 6.15341 156.134 6.15341C156.887 6.15341 157.552 6.3447 158.128 6.72727C158.704 7.10985 159.154 7.64015 159.48 8.31818C159.81 8.99621 159.974 9.7822 159.974 10.6761C159.974 11.5625 159.812 12.3447 159.486 13.0227C159.16 13.697 158.707 14.2254 158.128 14.608C157.552 14.9905 156.887 15.1818 156.134 15.1818ZM156.134 14.2557C156.74 14.2557 157.253 14.0928 157.673 13.767C158.094 13.4413 158.412 13.0076 158.628 12.4659C158.848 11.9242 158.957 11.3277 158.957 10.6761C158.957 10.0246 158.848 9.42614 158.628 8.88068C158.412 8.33523 158.094 7.89773 157.673 7.56818C157.253 7.23864 156.74 7.07386 156.134 7.07386C155.531 7.07386 155.018 7.23864 154.594 7.56818C154.173 7.89773 153.853 8.33523 153.634 8.88068C153.418 9.42614 153.31 10.0246 153.31 10.6761C153.31 11.3277 153.418 11.9242 153.634 12.4659C153.853 13.0076 154.173 13.4413 154.594 13.767C155.014 14.0928 155.527 14.2557 156.134 14.2557ZM170.024 18.4545C169.429 18.4545 168.909 18.3769 168.462 18.2216C168.015 18.0701 167.638 17.8617 167.331 17.5966C167.024 17.3314 166.786 17.0341 166.615 16.7045L167.445 16.1591C167.57 16.3788 167.736 16.5947 167.945 16.8068C168.157 17.0189 168.431 17.1951 168.768 17.3352C169.109 17.4754 169.528 17.5455 170.024 17.5455C170.797 17.5455 171.42 17.3523 171.893 16.9659C172.371 16.5795 172.609 15.9792 172.609 15.1648V13.1989H172.518C172.401 13.464 172.232 13.7292 172.013 13.9943C171.793 14.2557 171.505 14.4735 171.149 14.6477C170.797 14.822 170.359 14.9091 169.837 14.9091C169.14 14.9091 168.52 14.7367 167.979 14.392C167.441 14.0473 167.017 13.5549 166.706 12.9148C166.399 12.2708 166.246 11.5038 166.246 10.6136C166.246 9.73106 166.395 8.95455 166.695 8.28409C166.998 7.61364 167.42 7.09091 167.962 6.71591C168.503 6.34091 169.134 6.15341 169.854 6.15341C170.388 6.15341 170.831 6.24811 171.183 6.4375C171.536 6.62311 171.818 6.85417 172.03 7.13068C172.246 7.4072 172.414 7.67614 172.536 7.9375H172.638V6.27273H173.626V15.2273C173.626 15.9659 173.469 16.5739 173.155 17.0511C172.84 17.5284 172.412 17.8807 171.871 18.108C171.329 18.339 170.714 18.4545 170.024 18.4545ZM169.956 13.983C170.517 13.983 170.996 13.8485 171.393 13.5795C171.791 13.3068 172.096 12.9167 172.308 12.4091C172.52 11.9015 172.626 11.2973 172.626 10.5966C172.626 9.91477 172.522 9.31061 172.314 8.78409C172.106 8.25379 171.803 7.83712 171.405 7.53409C171.011 7.22727 170.528 7.07386 169.956 7.07386C169.373 7.07386 168.88 7.23106 168.479 7.54545C168.077 7.85985 167.774 8.28409 167.57 8.81818C167.365 9.34848 167.263 9.94129 167.263 10.5966C167.263 11.2633 167.367 11.8523 167.575 12.3636C167.784 12.8712 168.089 13.2689 168.49 13.5568C168.892 13.8409 169.38 13.983 169.956 13.983ZM177.315 3.36364V15H176.304V3.36364H177.315ZM183.384 15.1818C182.63 15.1818 181.963 14.9905 181.384 14.608C180.808 14.2254 180.357 13.697 180.031 13.0227C179.705 12.3447 179.543 11.5625 179.543 10.6761C179.543 9.7822 179.705 8.99621 180.031 8.31818C180.357 7.63636 180.808 7.10606 181.384 6.72727C181.963 6.3447 182.63 6.15341 183.384 6.15341C184.137 6.15341 184.802 6.3447 185.378 6.72727C185.954 7.10985 186.404 7.64015 186.73 8.31818C187.06 8.99621 187.224 9.7822 187.224 10.6761C187.224 11.5625 187.062 12.3447 186.736 13.0227C186.41 13.697 185.957 14.2254 185.378 14.608C184.802 14.9905 184.137 15.1818 183.384 15.1818ZM183.384 14.2557C183.99 14.2557 184.503 14.0928 184.923 13.767C185.344 13.4413 185.662 13.0076 185.878 12.4659C186.098 11.9242 186.207 11.3277 186.207 10.6761C186.207 10.0246 186.098 9.42614 185.878 8.88068C185.662 8.33523 185.344 7.89773 184.923 7.56818C184.503 7.23864 183.99 7.07386 183.384 7.07386C182.781 7.07386 182.268 7.23864 181.844 7.56818C181.423 7.89773 181.103 8.33523 180.884 8.88068C180.668 9.42614 180.56 10.0246 180.56 10.6761C180.56 11.3277 180.668 11.9242 180.884 12.4659C181.103 13.0076 181.423 13.4413 181.844 13.767C182.264 14.0928 182.777 14.2557 183.384 14.2557ZM189.655 15V3.36364H190.672V7.9375H190.763C190.876 7.67614 191.039 7.4072 191.251 7.13068C191.467 6.85417 191.75 6.62311 192.098 6.4375C192.45 6.24811 192.893 6.15341 193.428 6.15341C194.143 6.15341 194.772 6.3428 195.314 6.72159C195.856 7.09659 196.278 7.62311 196.581 8.30114C196.884 8.97538 197.036 9.76136 197.036 10.6591C197.036 11.5606 196.884 12.3504 196.581 13.0284C196.282 13.7064 195.861 14.2348 195.32 14.6136C194.782 14.9924 194.157 15.1818 193.445 15.1818C192.914 15.1818 192.471 15.0871 192.115 14.8977C191.763 14.7083 191.479 14.4754 191.263 14.1989C191.047 13.9186 190.88 13.6458 190.763 13.3807H190.638V15H189.655ZM190.655 10.642C190.655 11.3466 190.759 11.9716 190.967 12.517C191.179 13.0587 191.482 13.4848 191.876 13.7955C192.274 14.1023 192.755 14.2557 193.32 14.2557C193.899 14.2557 194.39 14.0966 194.791 13.7784C195.193 13.4564 195.498 13.0227 195.706 12.4773C195.914 11.9318 196.018 11.3201 196.018 10.642C196.018 9.97159 195.914 9.36742 195.706 8.82955C195.501 8.29167 195.198 7.86553 194.797 7.55114C194.395 7.23295 193.903 7.07386 193.32 7.07386C192.751 7.07386 192.268 7.22727 191.871 7.53409C191.477 7.83712 191.176 8.25758 190.967 8.79545C190.759 9.32955 190.655 9.94508 190.655 10.642ZM201.695 15.1989C201.168 15.1989 200.687 15.0966 200.251 14.892C199.816 14.6837 199.469 14.3845 199.212 13.9943C198.954 13.6004 198.825 13.1231 198.825 12.5625C198.825 12.1307 198.907 11.767 199.07 11.4716C199.232 11.1761 199.464 10.9337 199.763 10.7443C200.062 10.5549 200.416 10.4053 200.825 10.2955C201.234 10.1856 201.685 10.1004 202.178 10.0398C202.666 9.97917 203.079 9.92614 203.416 9.88068C203.757 9.83523 204.017 9.76326 204.195 9.66477C204.373 9.56629 204.462 9.4072 204.462 9.1875V8.98295C204.462 8.38826 204.284 7.92045 203.928 7.57955C203.575 7.23485 203.068 7.0625 202.405 7.0625C201.776 7.0625 201.263 7.20076 200.865 7.47727C200.471 7.75379 200.195 8.07955 200.036 8.45455L199.075 8.10795C199.272 7.63068 199.545 7.25 199.893 6.96591C200.242 6.67803 200.632 6.47159 201.064 6.34659C201.496 6.2178 201.933 6.15341 202.376 6.15341C202.71 6.15341 203.056 6.19697 203.416 6.28409C203.78 6.37121 204.117 6.52273 204.428 6.73864C204.738 6.95076 204.99 7.24811 205.183 7.63068C205.376 8.00947 205.473 8.49053 205.473 9.07386V15H204.462V13.6193H204.399C204.278 13.8769 204.098 14.1269 203.859 14.3693C203.621 14.6117 203.321 14.8106 202.962 14.9659C202.602 15.1212 202.179 15.1989 201.695 15.1989ZM201.831 14.2727C202.369 14.2727 202.835 14.1534 203.229 13.9148C203.623 13.6761 203.926 13.3598 204.138 12.9659C204.354 12.5682 204.462 12.1307 204.462 11.6534V10.392C204.386 10.464 204.259 10.5284 204.081 10.5852C203.907 10.642 203.704 10.6932 203.473 10.7386C203.246 10.7803 203.018 10.8163 202.791 10.8466C202.564 10.8769 202.359 10.9034 202.178 10.9261C201.685 10.9867 201.265 11.0814 200.916 11.2102C200.568 11.339 200.301 11.517 200.115 11.7443C199.929 11.9678 199.837 12.2557 199.837 12.608C199.837 13.1383 200.026 13.5492 200.405 13.8409C200.784 14.1288 201.259 14.2727 201.831 14.2727ZM209.175 3.36364V15H208.163V3.36364H209.175ZM219.942 6.27273V7.15341H215.652V6.27273H219.942ZM216.993 15V4.99432C216.993 4.52462 217.101 4.12879 217.317 3.80682C217.536 3.48485 217.822 3.24053 218.175 3.07386C218.527 2.9072 218.9 2.82386 219.294 2.82386C219.559 2.82386 219.779 2.84659 219.953 2.89205C220.131 2.93371 220.271 2.97538 220.374 3.01705L220.078 3.90341C220.002 3.88068 219.91 3.85417 219.8 3.82386C219.69 3.79356 219.552 3.77841 219.385 3.77841C218.946 3.77841 218.607 3.90152 218.368 4.14773C218.129 4.39394 218.01 4.74621 218.01 5.20455L218.004 15H216.993ZM222.972 3.36364V15H221.96V3.36364H222.972ZM228.085 15.1989C227.559 15.1989 227.078 15.0966 226.642 14.892C226.206 14.6837 225.86 14.3845 225.602 13.9943C225.345 13.6004 225.216 13.1231 225.216 12.5625C225.216 12.1307 225.297 11.767 225.46 11.4716C225.623 11.1761 225.854 10.9337 226.153 10.7443C226.453 10.5549 226.807 10.4053 227.216 10.2955C227.625 10.1856 228.076 10.1004 228.568 10.0398C229.057 9.97917 229.47 9.92614 229.807 9.88068C230.148 9.83523 230.407 9.76326 230.585 9.66477C230.763 9.56629 230.852 9.4072 230.852 9.1875V8.98295C230.852 8.38826 230.674 7.92045 230.318 7.57955C229.966 7.23485 229.458 7.0625 228.795 7.0625C228.167 7.0625 227.653 7.20076 227.256 7.47727C226.862 7.75379 226.585 8.07955 226.426 8.45455L225.466 8.10795C225.663 7.63068 225.936 7.25 226.284 6.96591C226.633 6.67803 227.023 6.47159 227.455 6.34659C227.886 6.2178 228.324 6.15341 228.767 6.15341C229.1 6.15341 229.447 6.19697 229.807 6.28409C230.17 6.37121 230.508 6.52273 230.818 6.73864C231.129 6.95076 231.381 7.24811 231.574 7.63068C231.767 8.00947 231.864 8.49053 231.864 9.07386V15H230.852V13.6193H230.79C230.669 13.8769 230.489 14.1269 230.25 14.3693C230.011 14.6117 229.712 14.8106 229.352 14.9659C228.992 15.1212 228.57 15.1989 228.085 15.1989ZM228.222 14.2727C228.759 14.2727 229.225 14.1534 229.619 13.9148C230.013 13.6761 230.316 13.3598 230.528 12.9659C230.744 12.5682 230.852 12.1307 230.852 11.6534V10.392C230.777 10.464 230.65 10.5284 230.472 10.5852C230.297 10.642 230.095 10.6932 229.864 10.7386C229.636 10.7803 229.409 10.8163 229.182 10.8466C228.955 10.8769 228.75 10.9034 228.568 10.9261C228.076 10.9867 227.655 11.0814 227.307 11.2102C226.958 11.339 226.691 11.517 226.506 11.7443C226.32 11.9678 226.227 12.2557 226.227 12.608C226.227 13.1383 226.417 13.5492 226.795 13.8409C227.174 14.1288 227.65 14.2727 228.222 14.2727ZM240.997 6.27273L237.81 15H236.73L233.543 6.27273H234.639L237.23 13.6648H237.31L239.901 6.27273H240.997ZM246.055 15.1818C245.302 15.1818 244.635 14.9905 244.055 14.608C243.48 14.2254 243.029 13.697 242.703 13.0227C242.377 12.3447 242.214 11.5625 242.214 10.6761C242.214 9.7822 242.377 8.99621 242.703 8.31818C243.029 7.63636 243.48 7.10606 244.055 6.72727C244.635 6.3447 245.302 6.15341 246.055 6.15341C246.809 6.15341 247.474 6.3447 248.05 6.72727C248.625 7.10985 249.076 7.64015 249.402 8.31818C249.732 8.99621 249.896 9.7822 249.896 10.6761C249.896 11.5625 249.733 12.3447 249.408 13.0227C249.082 13.697 248.629 14.2254 248.05 14.608C247.474 14.9905 246.809 15.1818 246.055 15.1818ZM246.055 14.2557C246.661 14.2557 247.175 14.0928 247.595 13.767C248.016 13.4413 248.334 13.0076 248.55 12.4659C248.769 11.9242 248.879 11.3277 248.879 10.6761C248.879 10.0246 248.769 9.42614 248.55 8.88068C248.334 8.33523 248.016 7.89773 247.595 7.56818C247.175 7.23864 246.661 7.07386 246.055 7.07386C245.453 7.07386 244.94 7.23864 244.516 7.56818C244.095 7.89773 243.775 8.33523 243.555 8.88068C243.339 9.42614 243.232 10.0246 243.232 10.6761C243.232 11.3277 243.339 11.9242 243.555 12.4659C243.775 13.0076 244.095 13.4413 244.516 13.767C244.936 14.0928 245.449 14.2557 246.055 14.2557ZM252.116 15V6.27273H253.099V7.61364H253.173C253.348 7.17424 253.651 6.82008 254.082 6.55114C254.518 6.27841 255.01 6.14205 255.56 6.14205C255.643 6.14205 255.736 6.14394 255.838 6.14773C255.94 6.15152 256.026 6.1553 256.094 6.15909V7.1875C256.048 7.17992 255.969 7.16856 255.855 7.15341C255.741 7.13826 255.618 7.13068 255.486 7.13068C255.031 7.13068 254.626 7.22727 254.27 7.42045C253.918 7.60985 253.639 7.87311 253.435 8.21023C253.23 8.54735 253.128 8.93182 253.128 9.36364V15H252.116ZM263.683 8.1875L262.757 8.44886C262.666 8.1875 262.537 7.95076 262.371 7.73864C262.204 7.52652 261.986 7.35795 261.717 7.23295C261.452 7.10795 261.123 7.04545 260.729 7.04545C260.138 7.04545 259.653 7.18561 259.274 7.46591C258.895 7.74621 258.706 8.10795 258.706 8.55114C258.706 8.92614 258.835 9.23106 259.092 9.46591C259.354 9.69697 259.755 9.88068 260.297 10.017L261.615 10.3409C262.346 10.5189 262.893 10.8011 263.257 11.1875C263.625 11.5739 263.808 12.0587 263.808 12.642C263.808 13.1345 263.672 13.572 263.399 13.9545C263.126 14.3371 262.746 14.6383 262.257 14.858C261.772 15.0739 261.21 15.1818 260.57 15.1818C259.717 15.1818 259.015 14.9905 258.462 14.608C257.909 14.2216 257.554 13.6648 257.399 12.9375L258.371 12.6989C258.496 13.2178 258.74 13.6098 259.104 13.875C259.471 14.1402 259.954 14.2727 260.553 14.2727C261.223 14.2727 261.759 14.1231 262.161 13.8239C262.562 13.5208 262.763 13.142 262.763 12.6875C262.763 12.3352 262.645 12.0398 262.411 11.8011C262.176 11.5587 261.82 11.3807 261.342 11.267L259.916 10.9261C259.159 10.7443 258.598 10.4564 258.234 10.0625C257.871 9.66856 257.689 9.17992 257.689 8.59659C257.689 8.11553 257.82 7.69318 258.081 7.32955C258.342 6.96212 258.702 6.67424 259.161 6.46591C259.619 6.25758 260.142 6.15341 260.729 6.15341C261.528 6.15341 262.166 6.33523 262.643 6.69886C263.125 7.05871 263.471 7.55492 263.683 8.1875Z" fill="#545F71"/>
<g clip-path="url(#clip0_359_14616)">
<path d="M0.719727 69.625C2.54492 61.7491 6.34387 54.3226 12.1166 47.3456C18.144 40.0689 25.2537 34.697 33.4459 31.2299L45.0338 39.7693C44.1424 42.8939 42.6355 46.2755 40.5132 49.9138L32.6819 45.5478C33.4034 44.0925 34.125 42.1663 34.8466 39.7693C26.0177 44.3493 19.5023 50.6201 15.3001 58.5816C13.8994 61.2355 12.8594 63.9963 12.1803 66.8641C17.3587 66.0937 21.7731 65.152 25.4235 64.0391C26.3573 62.1557 27.4185 59.8443 28.607 57.1049L37.1387 61.5351C32.6394 70.4382 27.0364 79.2131 20.33 87.8595L13.5173 81.6315C16.6159 77.6507 18.7382 74.8042 19.8843 73.0921C15.7669 74.4619 11.6073 75.4035 7.40502 75.9172L0.719727 69.625ZM84.8267 51.0695C80.3273 47.0031 76.1251 43.7715 72.2201 41.3744C67.8906 43.6431 64.0492 47.4954 60.6959 52.9315C57.2153 58.5388 55.2628 64.2317 54.8383 70.0102C61.5024 68.1697 67.1902 63.6111 71.9018 56.3344C73.4723 53.8518 74.8517 51.0267 76.0403 47.8592L84.8267 51.0695C81.9827 59.1167 78.2687 65.3446 73.6845 69.7534C68.7183 74.5474 62.3088 77.6935 54.4563 79.1917L45.0332 70.4597C46.2641 57.276 51.6336 46.6607 61.1416 38.6136C64.4524 35.7885 68.3363 33.3273 72.7931 31.2299C78.4385 34.1405 83.4047 37.8645 87.6919 42.4017L84.8267 51.0695ZM128.475 51.0695C123.976 47.0031 119.774 43.7715 115.868 41.3744C111.539 43.6431 107.698 47.4954 104.344 52.9315C100.864 58.5388 98.9115 64.2317 98.4865 70.0102C105.151 68.1697 110.838 63.6111 115.55 56.3344C117.121 53.8518 118.5 51.0267 119.688 47.8592L128.475 51.0695C125.631 59.1167 121.917 65.3446 117.333 69.7534C112.366 74.5474 105.957 77.6935 98.1044 79.1917L88.6814 70.4597C89.9126 57.276 95.2823 46.6607 104.79 38.6136C108.101 35.7885 111.984 33.3273 116.441 31.2299C122.087 34.1405 127.053 37.8645 131.34 42.4017L128.475 51.0695ZM129.847 69.946C132.521 63.8679 134.877 59.0738 136.914 55.5639C140.31 49.7854 143.982 44.4777 147.929 39.6409C144.661 39.17 142.008 38.9346 139.971 38.9346L142.708 31.2941C147.802 31.5081 152.704 32.0218 157.416 32.835C162.128 33.6055 166.732 34.9752 171.232 36.9442L174.989 45.5478C172.951 54.237 168.431 61.4281 161.427 67.121C154.975 72.3431 147.165 75.8102 137.997 77.5223L129.847 69.946ZM141.053 67.9556C146.825 66.2863 151.94 63.4185 156.397 59.3521C161.109 55.0717 164.207 50.085 165.693 44.3921C161.151 42.4659 155.845 40.9892 149.776 39.9619L155.379 44.5847C149.436 52.161 144.661 59.9513 141.053 67.9556ZM184.945 67.3136C190.718 68.5977 197.191 69.3682 204.365 69.625L201.754 77.9076C195.345 77.7791 188.553 76.923 181.38 75.3393L174.122 68.6619C177.092 61.7705 181.507 54.0872 187.365 45.612C189.02 43.1722 190.633 40.9892 192.204 39.063C189.233 38.5921 186.792 38.3567 184.882 38.3567L187.874 30.3952C199.802 30.7804 210.392 32.9634 219.645 36.9442L216.016 46.3183C209.607 43.2364 202.327 40.925 194.177 39.384L199.653 43.9426C197.616 46.4252 195.769 48.9507 194.114 51.5189C198.316 52.4606 202.497 53.1241 206.657 53.5093L203.792 61.6635C197.297 60.5078 192.544 59.5232 189.53 58.71C187.916 61.4067 186.388 64.2745 184.945 67.3136ZM229.095 59.4163C224.383 65.4944 220.67 71.594 217.953 77.7149L211.013 71.2301C213.772 66.008 217.401 60.5505 221.9 54.8576L218.08 52.6746L223.556 45.7404L227.694 48.0518C232.873 42.4873 237.881 37.8645 242.72 34.1834L247.432 38.4851C248.069 35.8313 248.578 33.2203 248.96 30.652L256.919 37.5863C254.415 50.4274 249.342 64.1889 241.702 78.8707L234.443 72.1932C235.802 69.7106 236.778 67.8914 237.372 66.7357C235.038 64.1247 232.278 61.6849 229.095 59.4163ZM234.634 52.8673C236.926 54.6223 239.027 56.527 240.938 58.5816C243.527 52.0754 245.437 46.361 246.668 41.4386C242.933 44.3921 238.922 48.2017 234.634 52.8673ZM260.583 70.8449C263.172 64.3387 265.995 58.6244 269.051 53.7019C272.149 48.7367 275.078 44.3279 277.837 40.4755C272.744 38.849 268.266 37.5435 264.403 36.559L269.115 29.1753C278.453 30.9731 289.191 34.2476 301.332 38.9988L296.938 47.8592C290.317 45.0769 284.586 42.8297 279.748 41.1176L285.159 45.9972C280.278 52.6747 275.927 60.1867 272.107 68.5335C270.791 71.3158 269.433 74.3762 268.032 77.7149L260.583 70.8449Z" fill="url(#paint0_linear_359_14616)"/>
</g>
<defs>
<linearGradient id="paint0_linear_359_14616" x1="3.44164" y1="30.7353" x2="298.102" y2="69.7867" gradientUnits="userSpaceOnUse">
<stop stop-color="#8AD4EC"/>
<stop offset="0.217372" stop-color="#EF96FF"/>
<stop offset="0.540308" stop-color="#FF56A9"/>
<stop offset="0.852826" stop-color="#FFAA6C"/>
</linearGradient>
<clipPath id="clip0_359_14616">
<rect width="302" height="59" fill="white" transform="translate(0 29)"/>
</clipPath>
</defs>
</svg>
