<svg width="45" height="45" viewBox="0 0 45 45" fill="none" xmlns="http://www.w3.org/2000/svg">
<circle cx="39" cy="6" r="5" fill="#FF00B8" stroke="black" stroke-width="2"/>
<path fill-rule="evenodd" clip-rule="evenodd" d="M33.4855 12.6715C33.6906 12.1587 33.4412 11.5767 32.9284 11.3716C32.4156 11.1665 31.8337 11.4159 31.6286 11.9287L30.1738 15.5655C29.657 15.1234 28.9834 14.8504 28.2283 14.8504H14.5059C12.465 14.8504 11.0198 16.8442 11.6548 18.7838L13.6191 24.7838C14.0227 26.0167 15.173 26.8504 16.4702 26.8504H26.264C27.5612 26.8504 28.7115 26.0167 29.1151 24.7838L31.0794 18.7838C31.1884 18.4509 31.2361 18.1164 31.23 17.7906C31.4041 17.682 31.5465 17.519 31.6286 17.3138L33.4855 12.6715ZM14.5059 16.8504H28.2283C28.9086 16.8504 29.3903 17.515 29.1786 18.1616L27.2143 24.1616C27.0798 24.5725 26.6964 24.8504 26.264 24.8504H16.4702C16.0378 24.8504 15.6544 24.5725 15.5198 24.1616L13.5555 18.1616C13.3439 17.515 13.8256 16.8504 14.5059 16.8504ZM18.9999 30.5002C18.9999 31.3286 18.3284 32.0002 17.4999 32.0002C16.6715 32.0002 15.9999 31.3286 15.9999 30.5002C15.9999 29.6718 16.6715 29.0002 17.4999 29.0002C18.3284 29.0002 18.9999 29.6718 18.9999 30.5002ZM20.9999 30.5002C20.9999 32.4332 19.4329 34.0002 17.4999 34.0002C15.5669 34.0002 13.9999 32.4332 13.9999 30.5002C13.9999 28.5672 15.5669 27.0002 17.4999 27.0002C19.4329 27.0002 20.9999 28.5672 20.9999 30.5002ZM25.4999 32.0002C26.3284 32.0002 26.9999 31.3286 26.9999 30.5002C26.9999 29.6718 26.3284 29.0002 25.4999 29.0002C24.6715 29.0002 23.9999 29.6718 23.9999 30.5002C23.9999 31.3286 24.6715 32.0002 25.4999 32.0002ZM25.4999 34.0002C27.4329 34.0002 28.9999 32.4332 28.9999 30.5002C28.9999 28.5672 27.4329 27.0002 25.4999 27.0002C23.5669 27.0002 21.9999 28.5672 21.9999 30.5002C21.9999 32.4332 23.5669 34.0002 25.4999 34.0002Z" fill="#545F71"/>
</svg>
