<svg width="45" height="45" viewBox="0 0 45 45" fill="none" xmlns="http://www.w3.org/2000/svg">
<path fill-rule="evenodd" clip-rule="evenodd" d="M30 21.7391V28.4648C30 29.5693 29.1046 30.4648 28 30.4648H25.4649C25.8052 29.8764 26 29.1934 26 28.4649V26.7348C26 25.5675 25.4902 24.4586 24.6042 23.6986C23.1059 22.4135 20.8941 22.4135 19.3958 23.6986C18.5098 24.4586 18 25.5675 18 26.7348V28.4649C18 29.1934 18.1948 29.8764 18.5351 30.4648H16C14.8954 30.4648 14 29.5693 14 28.4648V21.7391C14 21.1933 14.2231 20.6711 14.6176 20.2938L20.6176 14.5547C21.3908 13.8151 22.6092 13.8151 23.3824 14.5547L29.3824 20.2938C29.7769 20.6711 30 21.1933 30 21.7391ZM21.9773 30.4648C20.8832 30.4526 20 29.5619 20 28.4649V26.7348C20 26.1511 20.2549 25.5967 20.6979 25.2167C21.447 24.5741 22.553 24.5741 23.3021 25.2167C23.7451 25.5967 24 26.1511 24 26.7348V28.4649C24 29.5619 23.1168 30.4526 22.0227 30.4648H21.9773ZM21.9679 32.4648H16C13.7909 32.4648 12 30.6739 12 28.4648V21.7391C12 20.6474 12.4462 19.6032 13.2351 18.8486L19.2351 13.1094C20.7816 11.6302 23.2184 11.6302 24.7649 13.1094L30.7649 18.8486C31.5538 19.6032 32 20.6474 32 21.7391V28.4648C32 30.6739 30.2091 32.4648 28 32.4648H22.0321C22.0214 32.4648 22.0107 32.4649 22 32.4649C21.9893 32.4649 21.9786 32.4648 21.9679 32.4648Z" fill="#545F71"/>
</svg>
