<svg width="237" height="237" viewBox="0 0 237 237" fill="none" xmlns="http://www.w3.org/2000/svg">
<g clip-path="url(#clip0_288_1075)">
<mask id="mask0_288_1075" style="mask-type:luminance" maskUnits="userSpaceOnUse" x="0" y="0" width="237" height="237">
<path d="M237 0H0V237H237V0Z" fill="white"/>
</mask>
<g mask="url(#mask0_288_1075)">
<mask id="mask1_288_1075" style="mask-type:luminance" maskUnits="userSpaceOnUse" x="0" y="0" width="237" height="237">
<path d="M0 0H237V237H0V0Z" fill="white"/>
</mask>
<g mask="url(#mask1_288_1075)">
<mask id="mask2_288_1075" style="mask-type:luminance" maskUnits="userSpaceOnUse" x="1" y="1" width="235" height="235">
<path d="M118.34 1C53.535 1 1 53.535 1 118.34C1 183.145 53.535 235.68 118.34 235.68C183.145 235.68 235.68 183.145 235.68 118.34C235.68 53.535 183.145 1 118.34 1Z" fill="white"/>
</mask>
<g mask="url(#mask2_288_1075)">
<path d="M118.5 0C183.9 0 237 53.0999 237 118.5C237 183.9 183.9 237 118.5 237C53.0999 237 0 183.9 0 118.5C0 53.0999 53.0999 0 118.5 0Z" fill="#C7E5F0"/>
<mask id="mask3_288_1075" style="mask-type:luminance" maskUnits="userSpaceOnUse" x="-53" y="64" width="344" height="314">
<path d="M-52.21 64.6099H290.21V377.39H-52.21V64.6099Z" fill="white"/>
</mask>
<g mask="url(#mask3_288_1075)">
<path d="M130.862 139.487L117.742 109.913L117.098 111.071L115.902 109.325L115.256 111.599L113.535 109.655L112.477 112.119L111.99 109.39L110.843 110.441L105.231 142.643L130.862 139.487Z" fill="#5A8E9B"/>
<path d="M112.477 112.119L113.535 109.654L115.256 111.599L115.902 109.325L117.098 111.07L117.742 109.913L112.854 98.898L110.843 110.44L111.99 109.39L112.477 112.119Z" fill="white"/>
<path d="M118.042 141.065L130.862 139.486L117.742 109.914L112.855 98.8979L112.852 98.9119L118.042 141.065Z" fill="black"/>
<path d="M206.703 220.104L239.346 204.719L238.06 203.908L239.985 202.486L237.465 201.649L239.607 199.589L236.872 198.245L239.889 197.708L238.718 196.285L203.048 188.745L206.703 220.104Z" fill="#5A8E9B"/>
<path d="M204.876 204.419L206.704 220.104L239.346 204.72L251.505 198.989L251.489 198.985L204.876 204.419Z" fill="black"/>
<path d="M62.9609 171.254L28.32 166.299L28.8539 167.71L26.5104 167.861L27.9981 169.982L25.1107 170.56L26.4697 173.237L23.7867 172.019L23.8727 173.893L47.4616 200.228L62.9609 171.254Z" fill="#5A8E9B"/>
<path d="M26.469 173.238L25.1107 170.561L27.9981 169.983L26.5104 167.862L28.8531 167.711L28.32 166.298L15.4163 164.453L23.8727 173.893L23.786 172.02L26.469 173.238Z" fill="white"/>
<path d="M55.2077 185.747L62.9601 171.255L28.32 166.299L15.4155 164.453L15.4272 164.466L55.2077 185.747Z" fill="black"/>
<path d="M200.957 196.96L197.608 183.651L226.743 176.394L230.092 189.704L200.957 196.96Z" fill="#C09F6A"/>
<path d="M199.195 198.342L195.4 183.257L197.754 182.67L201.55 197.756L199.195 198.342Z" fill="#413B38"/>
<path d="M198.957 195.331L196.615 186.024L227.246 178.395L229.589 187.703L198.957 195.331Z" fill="#CFB58D"/>
<path d="M199.196 194.797L197.079 186.384L197.685 186.233L199.802 194.647L199.196 194.797Z" fill="#413B38"/>
<path d="M198.773 186.776L198.682 186.414L226.97 179.369L227.062 179.731L198.773 186.776Z" fill="#413B38"/>
<path d="M199.138 188.225L199.047 187.863L227.336 180.818L227.427 181.181L199.138 188.225Z" fill="#413B38"/>
<path d="M199.502 189.674L199.411 189.311L227.7 182.266L227.791 182.628L199.502 189.674Z" fill="#413B38"/>
<path d="M199.867 191.121L199.776 190.758L228.064 183.714L228.154 184.075L199.867 191.121Z" fill="#413B38"/>
<path d="M200.23 192.57L200.139 192.207L228.428 185.162L228.519 185.524L200.23 192.57Z" fill="#413B38"/>
<path d="M200.595 194.017L200.504 193.655L228.792 186.61L228.884 186.972L200.595 194.017Z" fill="#413B38"/>
<path d="M211.949 194.222L208.6 180.913L208.982 180.818L212.33 194.127L211.949 194.222Z" fill="#796857"/>
<path d="M222.96 191.48L219.611 178.171L219.994 178.076L223.342 191.385L222.96 191.48Z" fill="#796857"/>
<path d="M229.602 190.067L226.14 176.304L227.232 176.032L230.694 189.794L229.602 190.067Z" fill="#A08250"/>
<path d="M242.277 186.91L238.814 173.147L227.232 176.032L230.695 189.794L242.277 186.91Z" fill="#C09F6A"/>
<path d="M242.122 186.3L238.967 173.757L227.386 176.642L230.541 189.184L242.122 186.3Z" fill="#CFB58D"/>
<path d="M241.92 185.489L239.172 174.567L227.589 177.453L230.337 188.374L241.92 185.489Z" fill="#C09F6A"/>
<path d="M241.7 184.617L239.391 175.44L227.809 178.326L230.119 187.502L241.7 184.617Z" fill="#CFB58D"/>
<path d="M235.748 185.42C233.555 185.965 231.335 184.64 230.785 182.46C230.237 180.279 231.569 178.069 233.761 177.523C235.953 176.977 238.174 178.302 238.723 180.483C239.271 182.663 237.94 184.874 235.748 185.42Z" fill="#413B38"/>
<path d="M235.629 184.948C233.698 185.428 231.742 184.261 231.258 182.341C230.775 180.421 231.949 178.474 233.879 177.993C235.81 177.513 237.767 178.68 238.25 180.6C238.733 182.52 237.56 184.467 235.629 184.948Z" fill="#F7EDE0"/>
<path d="M231.679 182.236C231.643 182.246 231.605 182.223 231.596 182.188C231.587 182.151 231.609 182.114 231.646 182.105L232.533 181.884C232.57 181.875 232.606 181.897 232.616 181.934C232.625 181.97 232.604 182.007 232.567 182.016L231.679 182.236Z" fill="#413B38"/>
<path d="M234.249 179.223C234.258 179.26 234.236 179.297 234.199 179.306C234.163 179.316 234.125 179.293 234.116 179.256L233.894 178.374C233.885 178.337 233.907 178.3 233.943 178.291C233.98 178.282 234.017 178.304 234.027 178.341L234.249 179.223Z" fill="#413B38"/>
<path d="M235.562 184.441C235.572 184.478 235.549 184.515 235.513 184.523C235.476 184.533 235.439 184.511 235.429 184.474L235.207 183.591C235.198 183.555 235.22 183.518 235.257 183.509C235.294 183.5 235.331 183.522 235.341 183.558L235.562 184.441Z" fill="#413B38"/>
<path d="M233.162 184.138C233.143 184.171 233.101 184.181 233.068 184.162C233.036 184.142 233.025 184.1 233.045 184.068L233.515 183.288C233.534 183.256 233.576 183.245 233.609 183.265C233.642 183.283 233.652 183.326 233.632 183.358L233.162 184.138Z" fill="#413B38"/>
<path d="M232.838 180.2C232.87 180.219 232.881 180.261 232.86 180.293C232.841 180.326 232.799 180.337 232.767 180.316L231.982 179.849C231.95 179.829 231.939 179.788 231.959 179.756C231.978 179.723 232.02 179.713 232.053 179.731L232.838 180.2Z" fill="#413B38"/>
<path d="M234.81 181.505C234.734 181.557 234.629 181.54 234.575 181.465C234.522 181.389 234.54 181.284 234.616 181.231L235.819 180.385C235.896 180.333 236 180.351 236.054 180.426C236.108 180.502 236.09 180.608 236.014 180.66L234.81 181.505Z" fill="#413B38"/>
<path d="M234.569 181.451C234.522 181.371 234.55 181.27 234.63 181.223C234.711 181.176 234.813 181.203 234.86 181.283L235.6 182.55C235.647 182.63 235.62 182.732 235.54 182.778C235.46 182.825 235.357 182.798 235.31 182.718L234.569 181.451Z" fill="#413B38"/>
<path d="M39.1252 206.26L52.4594 268.471L47.8829 269.442L34.5495 207.23L39.1252 206.26Z" fill="#7C695A"/>
<path d="M36.1413 206.892L49.4755 269.104L47.568 269.509L34.2346 207.298L36.1413 206.892Z" fill="#A08674"/>
<path d="M34.9712 210.734L46.8322 266.072L42.2565 267.043L30.3955 211.705L34.9712 210.734Z" fill="#7C695A"/>
<path d="M31.9872 211.366L43.8475 266.705L41.9408 267.109L30.0814 211.771L31.9872 211.366Z" fill="#A08674"/>
<path d="M30.7357 214.828L41.2865 264.055L36.7108 265.025L26.16 215.799L30.7357 214.828Z" fill="#7C695A"/>
<path d="M27.7517 215.46L38.3026 264.687L36.3959 265.092L25.845 215.864L27.7517 215.46Z" fill="#A08674"/>
<path d="M26.565 219.225L35.676 261.73L31.1003 262.701L21.9893 220.197L26.565 219.225Z" fill="#7C695A"/>
<path d="M23.5819 219.858L32.6913 262.363L30.7854 262.768L21.6752 220.263L23.5819 219.858Z" fill="#A08674"/>
<path d="M22.3231 223.289L30.1358 259.741L25.5609 260.712L17.7482 224.26L22.3231 223.289Z" fill="#7C695A"/>
<path d="M19.3392 223.922L27.1519 260.375L25.246 260.778L17.4333 224.327L19.3392 223.922Z" fill="#A08674"/>
<path d="M18.056 227.234L24.6226 257.871L20.0469 258.843L13.4803 228.205L18.056 227.234Z" fill="#7C695A"/>
<path d="M15.072 227.867L21.6386 258.504L19.732 258.909L13.1654 228.272L15.072 227.867Z" fill="#A08674"/>
<path d="M13.9945 232.137L18.9044 255.044L14.0138 256.082L9.10386 233.174L13.9945 232.137Z" fill="#7C695A"/>
<path d="M11.0098 232.77L15.9197 255.677L14.013 256.081L9.1031 233.174L11.0098 232.77Z" fill="#A08674"/>
<path d="M10.7527 240.868L11.5581 244.628L12.3642 248.387L48.6975 250.923L45.7915 237.366L42.8864 223.808L10.7527 240.868Z" fill="#B89F8B"/>
<path d="M10.9663 241.868L11.5588 244.628L12.1499 247.388L47.9253 247.318L45.7915 237.365L43.6594 227.413L10.9663 241.868Z" fill="#A08674"/>
<path d="M35.7557 247.342L36.7151 247.34L33.416 231.943L32.5389 232.33L35.7557 247.342Z" fill="#7C695A"/>
<path d="M33.2769 247.346L34.2363 247.344L31.15 232.944L30.2736 233.332L33.2769 247.346Z" fill="#7C695A"/>
<path d="M38.2346 247.337L39.194 247.335L35.6804 230.941L34.8041 231.329L38.2346 247.337Z" fill="#7C695A"/>
<path d="M30.7973 247.351L31.7567 247.349L28.8847 233.946L28.0076 234.334L30.7973 247.351Z" fill="#7C695A"/>
<path d="M40.7134 247.332L41.6736 247.33L37.9464 229.939L37.0685 230.327L40.7134 247.332Z" fill="#7C695A"/>
<path d="M43.193 247.327L44.1524 247.325L40.2124 228.937L39.3353 229.325L43.193 247.327Z" fill="#7C695A"/>
<path d="M42.4769 227.936L41.6005 228.324L45.6726 247.324L46.6312 247.321L42.4769 227.936Z" fill="#7C695A"/>
<path d="M28.3184 247.356L29.2778 247.354L26.6195 234.948L25.7424 235.336L28.3184 247.356Z" fill="#7C695A"/>
<path d="M85.243 79.263C85.2721 79.369 85.2093 79.4776 85.1025 79.5068C84.9965 79.536 84.8863 79.4739 84.8572 79.3672L83.0532 72.7278C83.0241 72.6226 83.0869 72.5132 83.1937 72.484C83.3005 72.4556 83.4098 72.5184 83.4382 72.6236L85.243 79.263Z" fill="#527D82"/>
<path d="M106.31 126.725L98.5132 128.831L90.7156 130.935C90.7156 130.935 90.7719 137.164 89.1257 143.49L93.7871 142.232C93.7871 142.232 93.0095 135.021 99.705 133.214C106.4 131.407 109.381 138.022 109.381 138.022L114.043 136.763C109.417 132.13 106.31 126.725 106.31 126.725Z" fill="#6E9A9E"/>
<path d="M94.6084 143.253L94.4183 142.555C94.3496 142.3 94.0855 142.15 93.8299 142.219L88.9643 143.533C88.7087 143.602 88.5574 143.864 88.6268 144.118L88.8161 144.817L94.6084 143.253Z" fill="#527D82"/>
<path d="M114.98 137.754L114.79 137.056C114.722 136.801 114.457 136.651 114.202 136.72L109.336 138.034C109.081 138.103 108.929 138.365 108.999 138.619L109.188 139.318L114.98 137.754Z" fill="#527D82"/>
<path d="M86.5065 79.4992L85.1971 79.8534L83.8886 80.2068C94.6908 122.525 91.4631 129.486 91.4631 129.486L95.3146 128.147C95.5865 120.285 91.4686 102.925 91.4686 102.925C91.4686 102.925 96.7088 119.983 100.927 126.633L104.931 125.851C104.931 125.851 98.618 121.464 86.5065 79.4992Z" fill="#6E9A9E"/>
<path d="M106.521 126.669L90.5036 130.992L90.0682 129.392L106.086 125.067L106.521 126.669Z" fill="#527D82"/>
<path d="M99.3717 115.071L90.8002 117.386L90.3648 115.784L98.9363 113.469L99.3717 115.071Z" fill="#527D82"/>
<path d="M86.8409 79.4101L83.5535 80.2975L83.1181 78.6959L86.4062 77.8085L86.8409 79.4101Z" fill="#527D82"/>
<path d="M100.481 117.977L91.3157 120.451L90.504 117.465L99.6694 114.991L100.481 117.977Z" fill="#5D8D91"/>
<path d="M85.9066 77.9425L85.7646 77.4188C85.5935 76.7899 84.9418 76.4182 84.309 76.5886C83.6761 76.7598 83.3029 77.4083 83.4733 78.0372L83.616 78.561L85.9066 77.9425Z" fill="#6E9A9E"/>
<path d="M65.6975 127.738L67.8641 167.17L102.044 139.998L65.6975 127.738Z" fill="#F4B65D"/>
<path d="M65.6974 127.738L90.6199 149.08L102.044 139.998L65.6974 127.738Z" fill="#D59D4A"/>
<path d="M72.416 134.331C72.4724 134.4 72.4727 134.493 72.4166 134.538L67.8583 138.162C67.8015 138.206 67.7102 138.186 67.6538 138.116C67.5982 138.046 67.598 137.953 67.654 137.908L72.2123 134.285C72.2691 134.241 72.3596 134.261 72.416 134.331Z" fill="#D59D4A"/>
<path d="M72.4419 138.247C72.4795 138.295 72.4789 138.356 72.4424 138.386L67.8841 142.01C67.8459 142.04 67.7858 142.026 67.7482 141.98C67.7107 141.933 67.7105 141.871 67.7486 141.842L72.3061 138.218C72.3443 138.188 72.4044 138.201 72.4419 138.247Z" fill="#D59D4A"/>
<path d="M70.6327 142.518C70.6891 142.588 70.7804 142.608 70.8372 142.564L76.5511 138.021C76.6071 137.976 76.6076 137.884 76.5512 137.814C76.4956 137.743 76.4043 137.723 76.3475 137.767L70.6329 142.309C70.5768 142.355 70.5771 142.448 70.6327 142.518Z" fill="#D59D4A"/>
<path d="M77.1565 140.648C77.2128 140.718 77.2123 140.81 77.1563 140.856L68.5844 147.67C68.5284 147.714 68.437 147.694 68.3807 147.624C68.3243 147.554 68.3248 147.461 68.3816 147.417L76.9527 140.602C77.0095 140.558 77.1009 140.578 77.1565 140.648Z" fill="#D59D4A"/>
<path d="M75.9944 144.058C75.9381 143.988 75.9394 143.895 75.9954 143.85L79.192 141.309C79.2488 141.265 79.3409 141.284 79.3972 141.354C79.4528 141.424 79.4523 141.517 79.3963 141.561L76.1989 144.104C76.1421 144.148 76.0508 144.128 75.9944 144.058Z" fill="#D59D4A"/>
<path d="M77.9625 145.119C77.9069 145.049 77.8156 145.029 77.7588 145.074L69.4592 151.671C69.4024 151.717 69.4027 151.81 69.459 151.88C69.5146 151.95 69.606 151.97 69.6628 151.924L77.9623 145.328C78.0184 145.282 78.0189 145.19 77.9625 145.119Z" fill="#D59D4A"/>
<path d="M77.3082 149.301C77.2706 149.253 77.2105 149.24 77.1724 149.27L71.4578 153.813C71.4204 153.842 71.4198 153.905 71.4574 153.951C71.495 153.997 71.5559 154.011 71.5932 153.982L77.3079 149.439C77.3452 149.409 77.3458 149.347 77.3082 149.301Z" fill="#D59D4A"/>
<path d="M84.9225 146.15C84.9593 146.197 84.9594 146.258 84.9221 146.288L76.6225 152.886C76.5852 152.916 76.5243 152.902 76.4867 152.856C76.4491 152.809 76.4489 152.747 76.4871 152.717L84.7866 146.119C84.824 146.09 84.8849 146.103 84.9225 146.15Z" fill="#D59D4A"/>
<path d="M71.923 158.831C71.9974 158.925 72.1191 158.951 72.1946 158.891L82.6714 150.563C82.7461 150.503 82.7465 150.38 82.6714 150.287C82.597 150.194 82.476 150.167 82.4005 150.227L71.9229 158.556C71.8482 158.615 71.8478 158.738 71.923 158.831Z" fill="#D59D4A"/>
<path d="M41.1058 138.174L43.8423 186.266L85.4196 153.214L41.1058 138.174Z" fill="#F4B65D"/>
<path d="M41.1058 138.174L71.5237 164.261L85.4196 153.214L41.1058 138.174Z" fill="#D59D4A"/>
<path d="M49.307 146.23C49.3751 146.315 49.3762 146.429 49.3077 146.483L43.7635 150.89C43.6951 150.945 43.5834 150.92 43.5153 150.835C43.4464 150.749 43.4453 150.636 43.5146 150.582L49.0588 146.174C49.1272 146.119 49.2389 146.145 49.307 146.23Z" fill="#D59D4A"/>
<path d="M49.3479 151.007C49.3933 151.064 49.3936 151.139 49.3477 151.176L43.8034 155.584C43.7575 155.62 43.6834 155.603 43.638 155.546C43.5926 155.489 43.5923 155.413 43.6382 155.377L49.1824 150.97C49.2284 150.933 49.3017 150.95 49.3479 151.007Z" fill="#D59D4A"/>
<path d="M47.1555 156.21C47.2236 156.295 47.3352 156.321 47.4037 156.266L54.3547 150.74C54.4232 150.685 54.4229 150.572 54.3548 150.486C54.2866 150.401 54.175 150.377 54.1065 150.431L47.1555 155.958C47.087 156.012 47.0873 156.125 47.1555 156.21Z" fill="#D59D4A"/>
<path d="M55.0984 153.945C55.1673 154.03 55.1668 154.143 55.0984 154.198L44.6722 162.487C44.6029 162.541 44.4921 162.516 44.4232 162.431C44.355 162.346 44.3547 162.232 44.4232 162.178L54.8502 153.889C54.9194 153.835 55.0303 153.86 55.0984 153.945Z" fill="#D59D4A"/>
<path d="M53.6921 158.101C53.624 158.016 53.6237 157.902 53.6922 157.848L57.5821 154.756C57.6497 154.701 57.7614 154.726 57.8295 154.812C57.8984 154.897 57.8979 155.01 57.8295 155.065L53.9404 158.156C53.8719 158.211 53.7603 158.186 53.6921 158.101Z" fill="#D59D4A"/>
<path d="M56.0915 159.4C56.0234 159.316 55.9117 159.29 55.8433 159.345L45.7477 167.37C45.6793 167.424 45.6788 167.538 45.7477 167.624C45.8159 167.709 45.9275 167.734 45.9952 167.679L56.0915 159.654C56.1599 159.6 56.1596 159.486 56.0915 159.4Z" fill="#D59D4A"/>
<path d="M55.3042 164.497C55.2588 164.44 55.1854 164.424 55.1395 164.46L48.1877 169.985C48.1418 170.022 48.142 170.097 48.1874 170.155C48.2336 170.211 48.3078 170.228 48.3529 170.191L55.3047 164.666C55.3499 164.629 55.3504 164.554 55.3042 164.497Z" fill="#D59D4A"/>
<path d="M64.5723 160.674C64.6185 160.73 64.618 160.806 64.5729 160.843L54.4766 168.868C54.4307 168.904 54.3573 168.887 54.3111 168.831C54.2649 168.774 54.2654 168.698 54.3106 168.662L64.4077 160.637C64.4536 160.6 64.5269 160.617 64.5723 160.674Z" fill="#D59D4A"/>
<path d="M48.767 176.107C48.8586 176.22 49.0069 176.253 49.0979 176.181L61.8422 166.051C61.9333 165.978 61.9328 165.826 61.842 165.713C61.7504 165.599 61.6021 165.567 61.511 165.639L48.7668 175.769C48.6757 175.842 48.6754 175.993 48.767 176.107Z" fill="#D59D4A"/>
<path d="M143.616 110.101L142.87 109.99L143.126 108.288L143.872 108.398L143.616 110.101Z" fill="#C89F50"/>
<path d="M146.517 110.532L145.771 110.42L146.026 108.718L146.772 108.83L146.517 110.532Z" fill="#C89F50"/>
<path d="M168.801 113.88L120.575 106.714L120.167 109.435L168.393 116.6L168.801 113.88Z" fill="#E63334"/>
<path d="M128.337 139.978L126.209 139.663L131.323 105.613L133.45 105.929L128.337 139.978Z" fill="#D32C2C"/>
<path d="M134.491 106.555L130.144 105.909L130.42 104.068L134.767 104.715L134.491 106.555Z" fill="#F73738"/>
<path d="M130.577 117.284L130.744 116.176L128.499 115.842L126.253 115.508L126.087 116.617L126.601 117.264C126.601 117.264 124.198 133.274 124.079 134.055C123.963 134.837 123.357 135.051 123.268 135.648C123.177 136.243 122.742 139.147 122.742 139.147L124.949 139.475L127.157 139.803C127.157 139.803 127.594 136.9 127.684 136.303C127.772 135.707 127.256 135.327 127.373 134.545C127.491 133.763 129.894 117.754 129.894 117.754L130.577 117.284Z" fill="#F73738"/>
<path d="M131.573 116.005C131.545 116.194 131.421 116.333 131.297 116.314L125.683 115.48C125.559 115.462 125.481 115.293 125.51 115.103C125.539 114.914 125.662 114.774 125.786 114.794L131.4 115.628C131.524 115.646 131.601 115.815 131.573 116.005Z" fill="#603728"/>
<path d="M130.055 115.319C130.032 115.476 129.964 115.596 129.906 115.587L127.227 115.189C127.168 115.181 127.139 115.047 127.163 114.89C127.186 114.733 127.253 114.613 127.312 114.623L129.991 115.02C130.049 115.029 130.078 115.163 130.055 115.319Z" fill="#603728"/>
<path d="M151.605 143.435L153.733 143.752L158.846 109.703L156.718 109.387L151.605 143.435Z" fill="#D32C2C"/>
<path d="M155.538 109.682L159.886 110.328L160.163 108.487L155.815 107.842L155.538 109.682Z" fill="#F73738"/>
<path d="M156.13 121.081L156.296 119.972L158.541 120.307L160.787 120.64L160.621 121.749L159.938 122.219C159.938 122.219 157.533 138.228 157.416 139.009C157.299 139.791 157.817 140.172 157.727 140.768C157.638 141.363 157.2 144.268 157.2 144.268L154.994 143.94L152.785 143.611C152.785 143.611 153.221 140.707 153.311 140.112C153.401 139.516 154.005 139.302 154.123 138.52C154.241 137.738 156.645 121.728 156.645 121.728L156.13 121.081Z" fill="#F73738"/>
<path d="M155.553 119.568C155.525 119.758 155.603 119.926 155.727 119.945L161.34 120.779C161.464 120.798 161.588 120.658 161.617 120.469C161.645 120.279 161.567 120.11 161.443 120.092L155.829 119.259C155.705 119.239 155.582 119.379 155.553 119.568Z" fill="#603728"/>
<path d="M157.206 119.354C157.183 119.511 157.212 119.645 157.27 119.654L159.949 120.051C160.008 120.06 160.075 119.94 160.098 119.783C160.122 119.626 160.093 119.492 160.034 119.484L157.355 119.086C157.297 119.077 157.229 119.198 157.206 119.354Z" fill="#603728"/>
<path d="M145.511 104.817C145.511 104.817 129.838 102.489 121.236 98.939C121.236 98.939 121.216 101.794 121.689 102.271C122.164 102.746 135.617 105.781 145.154 107.198C154.69 108.614 168.448 109.623 169.041 109.306C169.633 108.987 170.454 106.253 170.454 106.253C161.183 107.146 145.511 104.817 145.511 104.817Z" fill="#D32C2C"/>
<path d="M145.817 102.773C145.817 102.773 128.561 100.209 119.055 96.5244C119.055 96.5244 119.173 98.733 119.701 99.2174C120.23 99.701 134.959 103.592 145.46 105.153C155.961 106.713 171.191 107.273 171.838 106.964C172.486 106.654 173.248 104.576 173.248 104.576C163.074 105.336 145.817 102.773 145.817 102.773Z" fill="#F73738"/>
<path d="M146.031 101.354C146.031 101.354 125.514 98.0062 115.9 94.0386C115.9 94.0386 115.993 95.9196 116.588 96.4553C117.184 96.9925 132.969 101.354 145.746 103.253C158.523 105.151 174.901 105.569 175.628 105.228C176.354 104.887 176.995 103.116 176.995 103.116C166.636 104.116 146.031 101.354 146.031 101.354Z" fill="#603728"/>
<path d="M146.163 100.476C121.784 96.8544 114.695 92.0671 114.695 92.0671C114.695 92.0671 114.59 93.7687 115.479 94.3486C118.13 96.08 128.959 99.5636 145.922 102.084C162.885 104.604 174.263 104.42 177.308 103.536C178.328 103.24 178.727 101.581 178.727 101.581C178.727 101.581 170.542 104.098 146.163 100.476Z" fill="#90AB9F"/>
<path d="M150.633 104.951L140.572 103.456L140.814 101.849L150.874 103.343L150.633 104.951Z" fill="#603728"/>
<path d="M147.029 109.492L142.686 108.846L143.574 102.93L147.918 103.576L147.029 109.492Z" fill="#603728"/>
<path d="M144.732 110.011C133.724 108.375 118.998 105.529 118.998 105.529C118.998 105.529 119.146 106.502 119.989 106.774C120.83 107.045 130.882 108.685 144.624 110.727C158.367 112.769 168.46 114.122 169.345 114.108C170.23 114.092 170.658 113.205 170.658 113.205C170.658 113.205 155.739 111.647 144.732 110.011Z" fill="#F73738"/>
<path d="M46.7446 186.758L37.7395 206.877L29.9719 203.436L38.9763 183.318L46.7446 186.758Z" fill="#D3A67A"/>
<path d="M38.4875 184.952L30.8661 201.982L-17.0239 180.769L-9.40171 163.738L38.4875 184.952Z" fill="#D3A67A"/>
<path d="M36.9751 187.02L35.1164 191.173L34.1867 193.25L33.2577 195.326L31.3983 199.479L29.5396 203.633L31.5141 204.507L31.7365 204.011C31.1446 203.535 30.9205 202.709 31.2444 201.985C31.569 201.261 32.3362 200.873 33.0861 200.993L33.3728 200.354L33.5951 199.857C33.0032 199.382 32.78 198.555 33.1039 197.832C33.4277 197.108 34.1948 196.72 34.9456 196.84L35.2315 196.201L35.4538 195.704C34.8619 195.229 34.6387 194.402 34.9625 193.678C34.9734 193.654 34.9889 193.634 35.0005 193.61C35.0106 193.585 35.0152 193.56 35.0268 193.536C35.3507 192.811 36.1178 192.425 36.8686 192.544L37.0909 192.048L37.3776 191.408C36.7849 190.934 36.5617 190.107 36.8855 189.383C37.2094 188.659 37.9765 188.272 38.7272 188.392L38.9496 187.895L39.2355 187.255C38.6444 186.78 38.4203 185.954 38.7442 185.23C39.0681 184.506 39.8352 184.119 40.5867 184.238L40.8083 183.741L38.8338 182.868L36.9751 187.02Z" fill="#AF784F"/>
<path d="M39.1457 203.734L34.9218 201.864C34.3899 201.628 33.7674 201.866 33.5303 202.395C33.2932 202.924 33.533 203.543 34.0641 203.779L38.2888 205.65L39.1457 203.734Z" fill="#AF784F"/>
<path d="M40.9083 199.797L36.6844 197.927C36.1525 197.691 35.5292 197.929 35.2929 198.458C35.0558 198.987 35.2948 199.606 35.8267 199.842L40.0506 201.713L40.9083 199.797Z" fill="#AF784F"/>
<path d="M42.6709 195.859L38.447 193.988C37.9159 193.753 37.2926 193.99 37.0555 194.52C36.8184 195.049 37.0582 195.668 37.5893 195.903L41.814 197.774L42.6709 195.859Z" fill="#AF784F"/>
<path d="M44.4335 191.923L40.2096 190.052C39.6777 189.816 39.0552 190.054 38.8181 190.583C38.581 191.112 38.8208 191.731 39.3519 191.967L43.5766 193.838L44.4335 191.923Z" fill="#AF784F"/>
<path d="M46.1953 187.984L41.9714 186.114C41.4395 185.878 40.8162 186.116 40.5799 186.645C40.3428 187.174 40.5818 187.793 41.1137 188.029L45.3377 189.9L46.1953 187.984Z" fill="#AF784F"/>
<path d="M31.2738 198.55L27.3365 196.807C26.8414 196.587 26.2609 196.809 26.0401 197.302C25.8193 197.796 26.0418 198.373 26.5378 198.592L30.475 200.336L31.2738 198.55Z" fill="#BC8154"/>
<path d="M32.7188 195.32L28.7815 193.577C28.2863 193.357 27.7059 193.579 27.4851 194.072C27.2643 194.566 27.4867 195.143 27.9827 195.362L31.92 197.106L32.7188 195.32Z" fill="#BC8154"/>
<path d="M34.1645 192.092L30.2272 190.348C29.732 190.128 29.1516 190.35 28.9308 190.843C28.71 191.336 28.9324 191.913 29.4284 192.133L33.3657 193.877L34.1645 192.092Z" fill="#BC8154"/>
<path d="M35.6102 188.863L31.6729 187.119C31.1778 186.899 30.5973 187.121 30.3757 187.614C30.1557 188.107 30.3782 188.684 30.8742 188.904L34.8106 190.647L35.6102 188.863Z" fill="#BC8154"/>
<path d="M37.056 185.632L33.1187 183.889C32.6235 183.67 32.0431 183.891 31.8215 184.385C31.6015 184.877 31.8239 185.455 32.3199 185.674L36.2564 187.417L37.056 185.632Z" fill="#BC8154"/>
<path d="M38.169 184.351L30.2036 202.147L29.3718 201.779L37.3372 183.982L38.169 184.351Z" fill="#C68E63"/>
<path d="M24.4607 195.533L20.5235 193.788C20.0283 193.569 19.4478 193.79 19.227 194.284C19.0062 194.777 19.2287 195.354 19.7247 195.574L23.6619 197.317L24.4607 195.533Z" fill="#BC8154"/>
<path d="M25.9064 192.304L21.9692 190.56C21.474 190.34 20.8936 190.562 20.6727 191.056C20.4519 191.548 20.6744 192.126 21.1704 192.345L25.1069 194.089L25.9064 192.304Z" fill="#BC8154"/>
<path d="M27.3514 189.074L23.4141 187.331C22.9189 187.111 22.3385 187.332 22.1169 187.826C21.8969 188.319 22.1194 188.896 22.6153 189.115L26.5518 190.86L27.3514 189.074Z" fill="#BC8154"/>
<path d="M28.7971 185.844L24.8599 184.101C24.3647 183.881 23.7842 184.102 23.5634 184.596C23.3426 185.089 23.5651 185.666 24.0611 185.886L27.9983 187.63L28.7971 185.844Z" fill="#BC8154"/>
<path d="M30.2421 182.615L26.3048 180.871C25.8096 180.652 25.2292 180.874 25.0084 181.366C24.7876 181.859 25.0101 182.437 25.506 182.657L29.4433 184.4L30.2421 182.615Z" fill="#BC8154"/>
<path d="M31.356 181.334L23.3905 199.13L22.5587 198.762L30.5241 180.965L31.356 181.334Z" fill="#C68E63"/>
<path d="M17.6476 192.515L13.7104 190.772C13.2152 190.552 12.6347 190.773 12.4132 191.267C12.1931 191.76 12.4156 192.337 12.9116 192.556L16.8481 194.299L17.6476 192.515Z" fill="#BC8154"/>
<path d="M19.0934 189.286L15.1561 187.542C14.6609 187.323 14.0805 187.544 13.8589 188.037C13.6389 188.53 13.8613 189.107 14.3573 189.327L18.2938 191.071L19.0934 189.286Z" fill="#BC8154"/>
<path d="M20.5383 186.056L16.601 184.312C16.1059 184.093 15.5254 184.314 15.3046 184.807C15.0838 185.3 15.3063 185.878 15.8023 186.097L19.7395 187.841L20.5383 186.056Z" fill="#BC8154"/>
<path d="M21.984 182.827L18.0468 181.083C17.5516 180.864 16.9712 181.085 16.7504 181.578C16.5295 182.071 16.752 182.649 17.248 182.868L21.1853 184.612L21.984 182.827Z" fill="#BC8154"/>
<path d="M23.4298 179.597L19.4925 177.853C18.9973 177.634 18.4169 177.856 18.1961 178.349C17.9753 178.842 18.1977 179.42 18.6937 179.639L22.631 181.383L23.4298 179.597Z" fill="#BC8154"/>
<path d="M24.5436 178.316L16.5782 196.111L15.7464 195.743L23.7118 177.947L24.5436 178.316Z" fill="#C68E63"/>
<path d="M10.8353 189.497L6.89805 187.753C6.40286 187.534 5.82243 187.756 5.60084 188.249C5.3808 188.742 5.60329 189.32 6.09926 189.539L10.0357 191.283L10.8353 189.497Z" fill="#BC8154"/>
<path d="M12.2803 186.268L8.34299 184.524C7.84781 184.305 7.26659 184.527 7.04578 185.02C6.82575 185.513 7.04824 186.091 7.5442 186.31L11.4807 188.054L12.2803 186.268Z" fill="#BC8154"/>
<path d="M13.726 183.038L9.78873 181.294C9.29354 181.075 8.71311 181.297 8.4923 181.79C8.27149 182.283 8.49397 182.861 8.98994 183.08L12.9272 184.824L13.726 183.038Z" fill="#BC8154"/>
<path d="M15.1709 179.809L11.2337 178.065C10.7385 177.846 10.1581 178.067 9.93724 178.56C9.71643 179.054 9.93892 179.631 10.4349 179.85L14.3722 181.594L15.1709 179.809Z" fill="#BC8154"/>
<path d="M16.6167 176.579L12.6794 174.835C12.1842 174.616 11.6038 174.838 11.383 175.331C11.1622 175.824 11.3847 176.402 11.8806 176.621L15.8179 178.365L16.6167 176.579Z" fill="#BC8154"/>
<path d="M17.7306 175.297L9.76511 193.094L8.9333 192.726L16.8987 174.929L17.7306 175.297Z" fill="#C68E63"/>
<path d="M4.02223 186.48L0.0849655 184.736C-0.410219 184.517 -0.991432 184.738 -1.21224 185.231C-1.43227 185.725 -1.20979 186.302 -0.713823 186.521L3.22267 188.265L4.02223 186.48Z" fill="#BC8154"/>
<path d="M5.46717 183.25L1.52991 181.506C1.03472 181.287 0.454288 181.508 0.233477 182.001C0.0126674 182.495 0.235153 183.072 0.731118 183.291L4.66838 185.035L5.46717 183.25Z" fill="#BC8154"/>
<path d="M6.91291 180.02L2.97565 178.276C2.48046 178.057 1.90003 178.279 1.67922 178.772C1.45841 179.265 1.68089 179.843 2.17686 180.062L6.11412 181.806L6.91291 180.02Z" fill="#BC8154"/>
<path d="M8.35862 176.791L4.42136 175.048C3.92617 174.828 3.34574 175.05 3.12493 175.543C2.90412 176.036 3.1266 176.614 3.62257 176.833L7.55983 178.577L8.35862 176.791Z" fill="#BC8154"/>
<path d="M9.8036 173.562L5.86633 171.819C5.37115 171.599 4.79071 171.82 4.5699 172.314C4.34909 172.807 4.57158 173.384 5.06754 173.603L9.00403 175.347L9.8036 173.562Z" fill="#BC8154"/>
<path d="M10.9175 172.281L2.95203 190.077L2.12022 189.709L10.0857 171.912L10.9175 172.281Z" fill="#C68E63"/>
<path d="M1.54555 173.774L-2.39172 172.03C-2.8869 171.81 -3.46734 172.031 -3.68893 172.525C-3.90896 173.018 -3.68647 173.595 -3.19051 173.815L0.745981 175.559L1.54555 173.774Z" fill="#BC8154"/>
<path d="M2.99129 170.544L-0.945979 168.8C-1.44116 168.581 -2.0216 168.802 -2.24319 169.296C-2.46322 169.788 -2.24073 170.366 -1.74477 170.586L2.19172 172.33L2.99129 170.544Z" fill="#BC8154"/>
<path d="M4.10437 169.263L-3.86108 187.059L-4.69289 186.691L3.27255 168.894L4.10437 169.263Z" fill="#C68E63"/>
<path d="M205.212 113.836L202.199 111.435L204.36 108.751L207.374 111.151L205.212 113.836Z" fill="#1A6373"/>
<path d="M209.526 107.539L173.648 152.121L188.316 163.803C210.402 146.878 215.996 122.6 209.526 107.539Z" fill="#207B8F"/>
<path d="M208.297 111.125L176.035 151.215L187.717 160.519C207.047 144.878 212.952 123.741 208.297 111.125Z" fill="#4A909E"/>
<path d="M210.552 121.731L203.369 116.011L204.261 114.905L211.442 120.626L210.552 121.731Z" fill="#207B8F"/>
<path d="M210.159 127.198L200.535 119.535L201.427 118.428L211.049 126.092L210.159 127.198Z" fill="#207B8F"/>
<path d="M208.93 131.999L197.701 123.057L198.592 121.95L209.82 130.893L208.93 131.999Z" fill="#207B8F"/>
<path d="M207.814 136.892L194.865 126.58L195.756 125.472L208.704 135.785L207.814 136.892Z" fill="#207B8F"/>
<path d="M205.788 141.059L192.031 130.101L192.922 128.994L206.679 139.951L205.788 141.059Z" fill="#207B8F"/>
<path d="M203.359 144.904L189.198 133.624L190.088 132.517L204.25 143.796L203.359 144.904Z" fill="#207B8F"/>
<path d="M200.525 148.426L186.363 137.146L187.253 136.039L201.416 147.319L200.525 148.426Z" fill="#207B8F"/>
<path d="M197.69 151.947L183.528 140.667L184.419 139.561L198.581 150.841L197.69 151.947Z" fill="#207B8F"/>
<path d="M194.855 155.47L180.693 144.19L181.584 143.084L195.745 154.363L194.855 155.47Z" fill="#207B8F"/>
<path d="M192.021 158.992L177.858 147.712L178.749 146.606L192.911 157.885L192.021 158.992Z" fill="#207B8F"/>
<path d="M188.91 163.075L170.035 148.043C168.516 146.833 166.253 147.133 164.98 148.714L189.357 168.128C190.629 166.548 190.429 164.286 188.91 163.075Z" fill="#1A6373"/>
<path d="M172.117 149.701L171.09 148.883L205.888 105.643L206.914 106.461L172.117 149.701Z" fill="#4A909E"/>
<path d="M202.658 113.062L202.015 112.55L212.173 99.9277L212.816 100.44L202.658 113.062Z" fill="#207B8F"/>
<path d="M204.907 123.633L195.819 116.395L197.596 114.187L206.684 121.425L204.907 123.633Z" fill="#1A6373"/>
<path d="M237.529 148.772L234.526 144.063L237.436 142.226L240.44 146.936L237.529 148.772Z" fill="#B38255"/>
<path d="M231.724 157.986L235.692 155.482C239.095 153.334 240.052 148.767 237.829 145.281C235.607 141.796 231.046 140.713 227.642 142.861L223.674 145.366L231.724 157.986Z" fill="#79401F"/>
<path d="M230.505 155.719L233.114 154.073C235.35 152.662 235.979 149.661 234.519 147.371C233.057 145.081 230.062 144.367 227.825 145.779L225.216 147.426L230.505 155.719Z" fill="#B38255"/>
<path d="M196.569 183.612L185.393 166.09L196.727 158.936L207.903 176.459L196.569 183.612Z" fill="#B38255"/>
<path d="M207.603 176.223L196.814 159.306L210.506 150.664L221.296 167.581L207.603 176.223Z" fill="#B38255"/>
<path d="M222.689 166.701L211.9 149.785L217.942 145.97L228.732 162.887L222.689 166.701Z" fill="#B38255"/>
<path d="M233.742 157.694L224.8 143.671L218.865 147.418L227.807 161.44L233.742 157.694Z" fill="#A26D3E"/>
<path d="M188.743 171.501L192.14 169.356C193.165 168.709 193.453 167.336 192.784 166.287C192.115 165.238 190.743 164.912 189.718 165.558L186.32 167.702L188.743 171.501Z" fill="#935B28"/>
<path d="M192.12 176.796L195.517 174.652C196.542 174.005 196.83 172.631 196.161 171.582C195.492 170.533 194.12 170.207 193.095 170.854L189.697 172.998L192.12 176.796Z" fill="#935B28"/>
<path d="M195.496 182.09L198.893 179.946C199.918 179.299 200.206 177.926 199.537 176.877C198.868 175.828 197.496 175.502 196.472 176.148L193.073 178.292L195.496 182.09Z" fill="#935B28"/>
<path d="M208.063 176.947C207.725 177.16 207.277 177.061 207.063 176.724L196.128 159.579C195.914 159.243 196.014 158.797 196.352 158.583C196.69 158.37 197.138 158.47 197.353 158.806L208.287 175.952C208.501 176.288 208.402 176.734 208.063 176.947Z" fill="#935B28"/>
<path d="M234.06 158.742C233.721 158.955 233.273 158.856 233.058 158.519L223.759 143.937C223.543 143.599 223.644 143.154 223.983 142.94C224.321 142.727 224.769 142.827 224.983 143.162L234.283 157.746C234.498 158.082 234.398 158.529 234.06 158.742Z" fill="#935B28"/>
<path d="M200.083 163.085L198.163 160.076L200.376 158.68L202.294 161.689L200.083 163.085Z" fill="#79401F"/>
<path d="M211.996 155.738L209.922 152.483L210.55 152.087L212.627 155.341L211.996 155.738Z" fill="#79401F"/>
<path d="M213.358 155.19L210.999 151.492L210.409 151.864L212.768 155.563L213.358 155.19Z" fill="#935B28"/>
<path d="M210.688 153.684L210.273 153.034L200.647 159.108L201.064 159.759L210.688 153.684Z" fill="#935B28"/>
<path d="M211.646 155.187L211.231 154.536L201.606 160.61L202.022 161.261L211.646 155.187Z" fill="#935B28"/>
<path d="M203.779 168.883L201.861 165.874L204.073 164.478L205.992 167.487L203.779 168.883Z" fill="#79401F"/>
<path d="M215.694 161.535L213.619 158.28L214.247 157.883L216.323 161.137L215.694 161.535Z" fill="#79401F"/>
<path d="M217.055 160.987L214.696 157.289L214.106 157.661L216.465 161.36L217.055 160.987Z" fill="#935B28"/>
<path d="M214.385 159.482L213.969 158.83L204.345 164.905L204.761 165.557L214.385 159.482Z" fill="#935B28"/>
<path d="M215.343 160.984L214.928 160.333L205.302 166.408L205.718 167.059L215.343 160.984Z" fill="#935B28"/>
<path d="M207.476 174.679L205.558 171.671L207.77 170.275L209.689 173.283L207.476 174.679Z" fill="#79401F"/>
<path d="M219.391 167.332L217.317 164.077L217.945 163.68L220.021 166.934L219.391 167.332Z" fill="#79401F"/>
<path d="M220.752 166.784L218.393 163.086L217.803 163.458L220.162 167.157L220.752 166.784Z" fill="#935B28"/>
<path d="M218.082 165.279L217.667 164.627L208.041 170.702L208.458 171.354L218.082 165.279Z" fill="#935B28"/>
<path d="M219.041 166.781L218.626 166.13L209 172.205L209.417 172.856L219.041 166.781Z" fill="#935B28"/>
<path d="M205.797 162.479L204.653 160.685L210.25 157.152L211.393 158.947L205.797 162.479Z" fill="#79401F"/>
<path d="M209.688 168.58L208.544 166.786L214.141 163.253L215.285 165.048L209.688 168.58Z" fill="#79401F"/>
<path d="M221.357 167.812L210.323 150.51L211.572 148.247L223.947 167.652L221.357 167.812Z" fill="#79401F"/>
<path d="M214.914 151.915L217.634 150.198C218.182 149.852 218.336 149.116 217.978 148.554C217.619 147.992 216.885 147.817 216.336 148.163L213.616 149.88L214.914 151.915Z" fill="#935B28"/>
<path d="M217.018 155.214L219.738 153.498C220.286 153.152 220.44 152.416 220.082 151.853C219.723 151.291 218.989 151.117 218.44 151.463L215.721 153.18L217.018 155.214Z" fill="#935B28"/>
<path d="M219.124 158.515L221.843 156.799C222.391 156.453 222.546 155.717 222.187 155.154C221.828 154.592 221.094 154.418 220.545 154.764L217.826 156.48L219.124 158.515Z" fill="#935B28"/>
<path d="M221.228 161.814L223.947 160.099C224.495 159.752 224.65 159.016 224.292 158.454C223.933 157.892 223.198 157.718 222.649 158.064L219.93 159.781L221.228 161.814Z" fill="#935B28"/>
<path d="M223.333 165.115L226.052 163.399C226.6 163.053 226.755 162.317 226.397 161.755C226.039 161.193 225.303 161.018 224.754 161.364L222.035 163.081L223.333 165.115Z" fill="#935B28"/>
<path d="M248.292 228.781L242.079 219.808L227.323 219.049L226.874 227.68L226.426 236.311L241.183 237.07L248.292 228.781Z" fill="#FFA33C"/>
<path d="M229.752 218.078L229.95 214.282L235.953 214.591L235.755 218.387L229.752 218.078Z" fill="#DF8723"/>
<path d="M229.45 223.889L229.648 220.092L235.65 220.401L235.452 224.198L229.45 223.889Z" fill="#DF8723"/>
<path d="M229.148 229.699L229.347 225.903L235.349 226.211L235.152 230.009L229.148 229.699Z" fill="#DF8723"/>
<path d="M228.846 235.511L229.043 231.714L235.047 232.022L234.85 235.819L228.846 235.511Z" fill="#DF8723"/>
<path d="M200.199 218.782L201.403 195.62L219.492 196.549L218.288 219.713L200.199 218.782Z" fill="#FFA33C"/>
<path d="M217.367 198.667L217.482 196.445L221.949 196.675L221.834 198.897L217.367 198.667Z" fill="#FFA33C"/>
<path d="M217.171 202.445L217.286 200.223L221.753 200.453L221.637 202.674L217.171 202.445Z" fill="#FFA33C"/>
<path d="M216.974 206.221L217.089 204L221.556 204.23L221.441 206.451L216.974 206.221Z" fill="#FFA33C"/>
<path d="M216.778 209.998L216.893 207.776L221.36 208.006L221.245 210.228L216.778 209.998Z" fill="#FFA33C"/>
<path d="M216.582 213.775L216.697 211.553L221.164 211.783L221.049 214.005L216.582 213.775Z" fill="#FFA33C"/>
<path d="M213.915 199.414L215.848 199.513C216.333 199.538 216.747 199.157 216.773 198.66C216.799 198.163 216.427 197.739 215.941 197.714L214.008 197.614L213.915 199.414Z" fill="#C26622"/>
<path d="M213.7 203.551L215.633 203.651C216.118 203.675 216.533 203.294 216.558 202.797C216.584 202.3 216.212 201.876 215.726 201.851L213.793 201.751L213.7 203.551Z" fill="#C26622"/>
<path d="M213.484 207.687L215.418 207.787C215.904 207.812 216.317 207.43 216.343 206.932C216.368 206.435 215.997 206.013 215.511 205.988L213.578 205.888L213.484 207.687Z" fill="#C26622"/>
<path d="M213.27 211.824L215.203 211.924C215.688 211.949 216.102 211.566 216.128 211.069C216.154 210.573 215.782 210.149 215.296 210.125L213.364 210.025L213.27 211.824Z" fill="#C26622"/>
<path d="M199.42 233.796L198.217 256.959L216.306 257.889L217.509 234.726L199.42 233.796Z" fill="#FFA33C"/>
<path d="M199.108 239.809L200.512 212.77L232.95 214.437L231.546 241.476L199.108 239.809Z" fill="#DF8723"/>
<path d="M218.869 217.246L223.848 217.503C225.097 217.567 226.056 218.656 225.99 219.936C225.923 221.215 224.856 222.201 223.607 222.136L218.628 221.88L218.869 217.246Z" fill="#954F1B"/>
<path d="M218.469 224.925L223.449 225.181C224.698 225.245 225.657 226.334 225.591 227.614C225.524 228.893 224.458 229.878 223.209 229.814L218.229 229.559L218.469 224.925Z" fill="#954F1B"/>
<path d="M218.071 232.604L223.05 232.86C224.299 232.925 225.259 234.013 225.192 235.293C225.125 236.573 224.059 237.558 222.81 237.494L217.83 237.237L218.071 232.604Z" fill="#954F1B"/>
<path d="M213.827 240.565L215.232 213.526L216.698 213.601L215.294 240.642L213.827 240.565Z" fill="#C26622"/>
<path d="M227.243 241.254L228.647 214.215L230.113 214.29L228.709 241.331L227.243 241.254Z" fill="#C26622"/>
<path d="M167.133 143.394C170.856 149.349 170.519 156.253 166.381 158.815C162.24 161.376 155.866 158.627 152.143 152.672C148.419 146.717 148.755 139.814 152.895 137.252C157.034 134.69 163.409 137.44 167.133 143.394Z" fill="#5FB331"/>
<path d="M129.415 131.118C136.406 132.018 141.566 136.646 140.941 141.456C140.316 146.266 134.141 149.436 127.15 148.536C120.159 147.637 114.998 143.009 115.624 138.198C116.249 133.388 122.424 130.218 129.415 131.118Z" fill="#5FB331"/>
<path d="M149.575 134.469C155.24 138.642 157.481 145.186 154.579 149.083C151.678 152.98 144.734 152.758 139.069 148.584C133.405 144.411 131.163 137.868 134.065 133.97C136.966 130.072 143.91 130.296 149.575 134.469Z" fill="#5FB331"/>
<path d="M182.593 163.633L181.531 162.314L188.826 156.439L189.888 157.759L182.593 163.633Z" fill="#8B573E"/>
<path d="M196.747 160.239C192.343 163.785 188.302 163.072 185.912 160.103C183.522 157.135 183.688 153.035 188.091 149.489C192.494 145.943 199.47 144.294 201.859 147.264C204.25 150.231 201.15 156.694 196.747 160.239Z" fill="#8BCC18"/>
<path d="M202.648 150.618C202.393 150.845 202.132 151.071 201.861 151.288C196.316 155.754 189.336 156.651 184.733 153.907C183.965 156.137 184.479 158.324 185.912 160.104C188.302 163.072 192.342 163.786 196.746 160.24C199.858 157.733 202.316 153.774 202.648 150.618Z" fill="#78AF14"/>
<path d="M39.9102 213.077L39.6133 214.706L30.6047 213.059L30.9032 211.43L39.9102 213.077Z" fill="#8B573E"/>
<path d="M28.3567 204.769C33.7939 205.764 35.848 209.211 35.1773 212.876C34.5075 216.541 31.3669 219.037 25.9296 218.044C20.4923 217.049 14.8163 212.94 15.4862 209.275C16.156 205.61 22.9194 203.775 28.3567 204.769Z" fill="#8BCC18"/>
<path d="M17.4654 206.549C17.797 206.593 18.1302 206.641 18.4643 206.703C25.311 207.955 30.4355 212.548 31.345 217.706C33.4858 216.85 34.776 215.073 35.1781 212.877C35.848 209.211 33.794 205.765 28.3567 204.77C24.5146 204.068 20.0138 204.778 17.4654 206.549Z" fill="#78AF14"/>
<path d="M37.6499 223.189L37.828 224.31L31.6214 225.291L31.4441 224.168L37.6499 223.189Z" fill="#8B573E"/>
<path d="M28.2839 220.434C32.03 219.843 34.1421 221.607 34.5413 224.133C34.9397 226.657 33.4741 228.988 29.728 229.579C25.9819 230.171 21.3734 228.801 20.9749 226.275C20.5758 223.749 24.5377 221.026 28.2839 220.434Z" fill="#8BCC18"/>
<path d="M21.6367 224.061C21.8612 224.013 22.0881 223.97 22.3181 223.933C27.0356 223.188 31.3966 224.998 33.1572 228.131C34.3482 227.09 34.7807 225.647 34.5413 224.133C34.1421 221.608 32.03 219.843 28.2839 220.435C25.637 220.853 22.8842 222.336 21.6367 224.061Z" fill="#78AF14"/>
<path d="M114.766 136.671L113.698 136.874L112.578 130.962L113.647 130.76L114.766 136.671Z" fill="#8B573E"/>
<path d="M117.128 127.625C117.804 131.193 116.177 133.266 113.771 133.722C111.365 134.178 109.093 132.842 108.417 129.274C107.742 125.706 108.919 121.255 111.325 120.8C113.73 120.344 116.452 124.057 117.128 127.625Z" fill="#8BCC18"/>
<path d="M113.464 121.369C113.516 121.582 113.565 121.798 113.607 122.017C114.456 126.511 112.852 130.738 109.905 132.514C110.935 133.624 112.329 133.996 113.772 133.722C116.177 133.267 117.804 131.193 117.129 127.625C116.652 125.104 115.152 122.513 113.464 121.369Z" fill="#78AF14"/>
<path d="M179.003 160.08L180.152 153.137L181.788 154.436L182.936 147.497L183.993 148.336L184.809 143.401L185.803 144.19L186.744 138.506L181.424 140.716L182.417 141.504L177.799 143.423L178.856 144.262L172.361 146.959L173.997 148.257L167.5 150.956L179.003 160.08Z" fill="#16C802"/>
<path d="M186.744 138.507L173.252 155.518L179.003 160.08L180.152 153.137L181.788 154.436L182.936 147.497L183.993 148.336L184.809 143.401L185.803 144.19L186.744 138.507Z" fill="#23AB14"/>
<path d="M193.363 178.826L196.532 173.613L197.43 175.187L200.597 169.975L201.176 170.992L203.429 167.285L203.975 168.242L206.569 163.973L201.574 164.031L202.119 164.986L197.782 165.036L198.362 166.053L192.263 166.122L193.159 167.695L187.059 167.765L193.363 178.826Z" fill="#16C802"/>
<path d="M206.569 163.973L190.211 173.295L193.364 178.825L196.533 173.612L197.429 175.186L200.597 169.974L201.177 170.992L203.43 167.285L203.975 168.242L206.569 163.973Z" fill="#23AB14"/>
<path d="M120.855 135.594C167.985 135.452 206.306 173.345 206.448 220.232C206.589 267.117 168.498 305.241 121.368 305.384C74.2383 305.526 35.9169 267.633 35.7752 220.748C35.6335 173.86 73.7252 135.737 120.855 135.594Z" fill="#0D56AB"/>
<path d="M63.9558 157.454C63.9101 157.551 63.8713 157.636 63.8536 157.689C63.7724 157.935 63.7109 158.243 63.8971 158.426C64.0833 158.611 64.2676 158.425 64.6388 158.384C65.0091 158.342 65.1107 157.87 65.2546 157.727C65.3984 157.582 65.6889 158.196 65.5862 158.299C65.4828 158.401 65.3196 158.853 65.1353 159.037C64.9502 159.224 65.1786 159.94 65.2619 160.144C65.3452 160.349 66.2501 159.895 66.2506 160.06C66.2511 160.224 65.5949 161.169 65.1823 161.17C64.7704 161.171 64.195 161.5 64.3184 161.541C64.4425 161.582 64.6507 162.318 64.6507 162.318C64.6507 162.318 65.2478 162.46 65.3504 162.357C65.4531 162.255 65.9674 161.823 66.0906 161.577C66.2131 161.33 67.2023 161.368 67.49 161.327C67.7793 161.284 68.727 161.569 68.8919 161.65C69.0575 161.731 68.7708 162.388 68.6472 162.511C68.5243 162.635 67.3708 162.679 67.1233 162.598C66.8758 162.516 65.8883 163.012 65.7652 163.053C65.6413 163.094 65.0668 163.752 65.0668 163.752C65.0668 163.752 63.8304 163.715 63.5829 163.633C63.3354 163.553 62.925 164.045 62.8022 164.169C62.6785 164.292 62.3932 165.113 62.3941 165.4C62.3949 165.687 61.8186 166.221 61.9836 166.385C62.1495 166.548 63.0566 166.546 63.4685 166.544C63.8803 166.543 63.6769 167.363 63.8419 167.526C64.0078 167.69 64.7074 167.401 64.8714 167.237C65.0355 167.072 65.4679 166.886 65.6533 167.07C65.8395 167.254 66.9085 166.349 67.1752 166.082C67.4419 165.815 68.0264 165.62 68.0264 165.62C68.238 165.704 68.1129 166.126 66.9762 168.362C65.8394 170.6 66.3435 169.376 66.0072 170.093C65.6701 170.811 65.9239 170.684 65.6759 172.749C65.4286 174.815 64.9991 173.088 64.7442 173.132C64.4908 173.174 64.0687 173.386 63.7295 173.43C63.3911 173.472 63.1815 174.316 62.9723 175.032C62.7623 175.75 62.593 175.75 62.3834 176.593C62.1746 177.437 61.6232 177.186 61.0313 177.483C60.4386 177.779 60.2264 177.527 59.5481 177.361C58.8698 177.195 58.7429 177.279 58.4026 176.943C58.063 176.606 57.8504 176.439 57.5092 175.555C57.1672 174.671 56.6482 170.964 56.6455 170.079C56.6429 169.194 56.5129 168.267 56.4271 168.015C56.3421 167.763 56.0893 168.227 55.8351 168.27C55.581 168.312 55.4569 169.324 55.4579 169.661C55.4589 169.998 55.2931 171.137 55.2109 172.064C55.1294 172.991 55.2156 173.623 55.3023 174.171C55.3889 174.719 55.5191 175.73 55.4365 176.53C55.3539 177.332 55.5243 177.711 55.6947 178.089C55.8651 178.467 56.1423 178.825 56.2487 178.93C56.3551 179.035 56.6736 179.35 57.0975 179.475C57.5214 179.6 57.5422 179.79 57.6909 179.937C57.8395 180.084 58.2432 180.231 58.7106 180.524C59.1771 180.817 59.8571 181.532 60.4936 181.783C61.1292 182.034 61.4642 180.853 61.7159 180.262C61.9684 179.672 62.1013 181.314 62.1877 181.778C62.2734 182.241 62.5745 183.547 63.1243 183.25C63.6741 182.954 64.0982 183.163 65.0718 182.949C66.0454 182.735 66.4092 184.399 66.6854 184.671C66.9615 184.945 67.6673 186.692 67.0325 186.989C66.3977 187.285 67.1618 187.705 67.458 187.661C67.7543 187.619 68.937 186.393 69.1068 186.561C69.2765 186.729 68.7285 187.869 68.5178 188.08C68.3062 188.291 68.6093 190.229 68.7796 190.566C68.9506 190.902 69.6314 191.87 69.8007 191.911C69.9701 191.952 71.2829 191.948 71.3674 192.033C71.4526 192.117 69.978 194.565 69.8947 194.861C69.8106 195.156 70.2775 195.576 70.49 195.702C70.7018 195.827 71.2931 195.067 71.4192 194.73C71.5453 194.392 72.2011 194.074 72.349 194.221C72.4976 194.368 72.3528 195.485 72.2271 195.949C72.1021 196.414 71.5962 197.299 71.2587 197.89C70.922 198.481 70.7935 198.313 70.455 198.314C70.1157 198.315 69.6082 198.402 68.9729 198.277C68.3368 198.153 68.2964 198.7 67.9583 198.87C67.6196 199.039 67.2805 199.125 67.2795 198.788C67.2785 198.45 67.362 197.944 67.4876 197.438C67.6132 196.932 67.9082 196.468 68.1603 195.75C68.4124 195.033 68.5771 193.516 68.5759 193.137C68.5748 192.757 68.5717 191.747 68.2317 191.494C67.8924 191.242 67.4683 191.074 67.0867 190.992C66.705 190.909 65.7965 191.48 65.6067 191.671C65.4162 191.861 64.7661 194.075 64.4713 194.582C64.1764 195.088 62.6621 198.591 62.5785 198.802C62.4941 199.013 62.4554 200.404 62.456 200.614C62.4567 200.825 61.7141 200.301 61.6083 200.406C61.5025 200.512 61.528 201.713 61.6142 202.344C61.7011 202.977 61.4497 203.946 61.4084 204.199C61.3662 204.452 60.8157 204.496 60.6886 204.243C60.5607 203.991 60.6631 203.296 60.4299 203.064C60.196 202.833 60.093 203.571 59.8394 203.825C59.5867 204.078 59.8855 205.131 59.8872 205.679C59.8888 206.227 59.1685 205.85 59.0421 206.103C58.915 206.356 59.2765 207.008 59.5957 207.323C59.9141 207.638 59.5134 207.956 59.556 208.124C59.5994 208.292 59.9395 208.797 59.8972 209.008C59.8557 209.219 59.0075 208.842 59.0083 209.095C59.009 209.347 59.0948 209.853 59.265 210.148C59.4351 210.442 59.7763 210.821 60.159 211.494C60.5425 212.166 60.2892 212.505 60.4189 213.347C60.5486 214.19 60.8045 214.736 61.1466 215.662C61.4879 216.588 62.5317 218.418 63.0198 218.902C63.5088 219.385 65.3361 221.613 65.8673 222.138C66.3985 222.663 68.0321 223.522 68.6259 223.858C69.2197 224.193 70.4739 225.474 70.7923 225.789C71.1115 226.104 74.1963 230.709 74.4519 231.13C74.7074 231.551 75.0912 232.35 75.5997 232.559C76.1089 232.768 80.6409 232.586 81.2336 232.542C81.8262 232.498 82.4595 231.696 82.5431 231.232C82.626 230.768 82.7088 230.052 82.5374 229.336C82.3652 228.62 80.2228 227.425 80.0319 227.236C79.8403 227.047 79.6906 226.563 79.8162 226.057C79.9418 225.551 80.9164 225.675 81.382 225.631C81.8483 225.587 82.7378 225.711 83.1181 225.33C83.4984 224.951 85.3585 223.849 85.9085 223.637C86.4586 223.424 87.0944 223.464 87.0931 223.043C87.0918 222.622 87.0491 222.411 86.7944 222.286C86.5398 222.16 85.7749 221.488 85.646 220.898C85.5178 220.308 85.3038 219.677 84.9212 219.299C84.5386 218.921 84.1577 219.091 83.1826 219.052C82.2083 219.012 82.2518 218.97 81.658 218.887C81.0649 218.805 80.5117 217.964 80.2563 217.585C80.0016 217.206 79.7024 216.533 79.3215 216.45C78.9398 216.367 78.9827 216.62 78.7706 216.62C78.5592 216.621 78.5602 216.958 78.4335 217.085C78.3067 217.212 78.1385 217.55 78.0551 217.845C77.971 218.141 77.4415 218.458 77.209 218.691C76.9765 218.923 76.5759 219.029 76.1945 219.03C75.8131 219.031 75.0068 218.612 74.2856 218.193C73.5644 217.774 72.587 216.724 72.2884 216.261C71.9906 215.798 71.2652 213.988 71.1791 213.609C71.0937 213.23 70.7982 213.526 70.5444 213.695C70.2906 213.865 69.4849 213.614 69.0606 213.363C68.6363 213.111 68.2517 212.06 68.0383 211.385C67.8241 210.712 68.034 209.952 68.2862 209.53C68.54 209.108 69.301 208.769 69.6393 208.683C69.9783 208.598 69.8089 209.063 70.0647 209.314C70.319 209.566 70.7233 209.924 71.0848 210.28C71.4454 210.637 72.1479 211.584 72.6572 212.088C73.1673 212.592 73.5727 213.54 73.7213 213.686C73.87 213.834 73.9756 213.685 74.3136 213.516C74.6524 213.346 77.4892 213.337 77.6156 213.084C77.742 212.831 78.1232 212.492 78.4608 211.944C78.7977 211.395 78.5825 210.384 78.5384 209.752C78.4944 209.12 78.0665 207.688 77.9375 207.057C77.8084 206.425 77.6764 205.077 77.5484 204.783C77.4204 204.488 78.0141 204.275 78.2668 204.022C78.5204 203.768 78.8994 202.966 79.2379 202.965C79.5772 202.964 79.4125 204.735 79.4132 204.987C79.414 205.24 79.8402 205.871 79.8418 206.377C79.8433 206.883 79.7196 208.274 79.7211 208.779C79.7226 209.285 79.9593 210.443 80.0658 210.548C80.1722 210.654 80.9559 210.588 81.2088 210.418C81.4626 210.249 81.8009 209.91 81.8845 209.448C81.9674 208.983 82.8998 209.359 83.2815 209.443C83.6624 209.526 84.2578 209.862 84.3857 210.114C84.5128 210.366 83.4344 211.275 83.3295 211.381C83.2237 211.487 82.9314 212.583 83.08 212.731C83.2287 212.878 84.14 213.233 84.6059 213.316C85.0718 213.399 87.3186 213.518 87.4878 213.476C87.6569 213.434 87.9556 214.19 87.9566 214.528C87.9576 214.865 88.3411 215.539 88.6379 215.664C88.9346 215.789 88.9351 216.211 88.936 216.506C88.9369 216.8 88.4523 217.244 88.3465 217.351C88.2408 217.456 88.3915 218.277 88.5182 218.404C88.6457 218.53 88.9886 219.455 89.2006 219.665C89.4134 219.875 89.4585 220.845 89.5869 221.265C89.7153 221.686 90.1384 221.559 90.4776 221.516C90.816 221.472 90.4366 222.148 90.2679 222.317C90.0983 222.486 89.296 223.078 89.2112 223.164C89.1264 223.247 89.0447 224.091 89.0455 224.343C89.0463 224.596 89.8531 225.479 89.9388 225.689C90.0236 225.9 89.3049 226.282 88.9237 226.366C88.5425 226.452 88.6721 227.252 88.5033 227.421C88.3346 227.59 87.7415 227.508 87.4031 227.551C87.0648 227.594 86.5334 227.027 86.3417 226.838C86.1509 226.649 85.7054 226.376 85.493 226.293C85.2814 226.209 84.5624 226.802 84.3088 226.759C84.0544 226.719 83.3133 226.952 83.4197 227.058C83.5261 227.163 83.7594 227.688 83.8457 228.109C83.932 228.531 84.3579 229.077 84.7402 229.371C85.1218 229.665 85.6297 229.706 86.1384 229.746C86.6463 229.787 86.9641 229.385 87.1958 229.153C87.4283 228.921 87.9575 228.772 88.2115 228.687C88.4656 228.602 89.6097 228.809 90.0338 229.018C90.458 229.227 90.4594 229.944 90.3763 230.324C90.2924 230.703 90.9719 230.996 90.9727 231.249C90.9735 231.502 91.1874 232.597 91.3159 233.059C91.4444 233.523 92.1666 233.984 92.5066 234.237C92.8467 234.488 93.9057 234.654 94.3297 234.821C94.7537 234.988 94.927 236.294 95.1401 236.883C95.3541 237.473 95.4398 237.725 95.6946 237.893C95.9494 238.061 97.0508 238.057 97.2633 238.183C97.4751 238.309 97.3505 239.152 97.3511 239.363C97.3518 239.574 97.9873 239.53 98.199 239.613C98.4114 239.697 98.4563 240.623 98.3295 240.751C98.2028 240.878 97.654 241.511 97.6968 241.722C97.7403 241.932 98.1213 242.057 98.376 241.93C98.6291 241.803 99.4456 242.001 99.541 242.096C99.6365 242.19 99.6917 242.896 99.6074 243.149C99.5239 243.402 99.5262 244.161 99.6112 244.413C99.697 244.665 99.5705 245.129 99.8253 245.297C100.079 245.465 100.25 245.38 100.588 245.379C100.928 245.378 101.053 244.872 101.39 244.408C101.728 243.943 101.556 243.311 101.555 242.89C101.554 242.469 102.316 242.381 102.824 242.212C103.332 242.041 103.606 241.43 103.838 241.198C104.07 240.964 105.489 241.15 105.998 241.191C106.505 241.232 108.288 241.816 108.543 242.195C108.798 242.573 108.716 243.417 108.719 244.259C108.721 245.102 108.429 246.577 108.261 247.084C108.093 247.59 108.562 248.516 108.648 248.811C108.734 249.105 108.354 249.654 108.524 249.822C108.693 249.99 109.12 251.042 109.12 251.042C109.12 251.042 109.459 251.041 110.179 250.829C110.898 250.616 113.059 250.862 113.906 250.859C114.753 250.857 115.221 251.319 115.56 251.444C115.899 251.57 116.196 251.442 116.745 250.977C117.294 250.512 118.735 250.803 118.946 250.718C119.158 250.633 119.023 248.105 119.276 247.851C119.53 247.598 120.165 247.259 120.248 246.879C120.331 246.499 119.843 246.143 119.694 245.996C119.545 245.849 119.688 243.721 119.73 243.383C119.771 243.046 119.557 242.541 119.218 242.542C118.879 242.543 118.498 242.206 118.157 241.618C117.816 241.029 116.966 240.315 116.627 240.147C116.288 239.98 115.738 240.066 115.357 240.151C114.976 240.236 114.042 239.818 113.406 239.609C112.77 239.401 112.174 238.349 111.961 237.844C111.748 237.338 111.32 236.202 110.896 235.951C110.471 235.699 110.177 236.29 109.33 236.293C108.483 236.295 108.395 235.284 108.183 235.074C107.97 234.864 108.856 233.47 108.854 233.049C108.853 232.627 109.022 232.458 108.554 231.87C108.086 231.281 106.766 228.968 106.765 228.589C106.764 228.209 107.694 227.532 108.201 227.193C108.708 226.855 110.251 225.649 110.483 225.417C110.715 225.184 112.043 222.925 112.38 222.461C112.718 221.997 113.564 221.825 113.818 221.571C114.071 221.318 114.345 220.706 114.661 220.389C114.978 220.073 115.507 220.049 115.931 220.007C116.354 219.962 117.329 220.255 117.456 220.255C117.584 220.254 117.709 219.958 117.708 219.663C117.707 219.369 117.665 219.242 117.241 219.075C116.817 218.907 116.606 218.951 116.224 218.825C115.843 218.7 115.502 218.364 115.291 218.364C115.079 218.365 114.973 218.513 114.615 218.872C114.255 219.232 113.768 219.044 113.471 218.917C113.175 218.792 113.511 218.243 113.552 217.907C113.594 217.569 114.186 217.315 114.397 217.188C114.609 217.06 113.972 216.599 113.972 216.599C113.972 216.599 113.444 216.747 113.211 216.98C112.979 217.213 112.622 218.162 112.368 218.626C112.116 219.091 111.673 219.661 111.271 220.062C110.871 220.463 110.386 221.455 109.921 221.92C109.457 222.386 108.907 222.471 108.399 222.684C107.891 222.896 107.725 223.824 107.303 224.373C106.881 224.921 106.244 224.544 105.439 224.505C104.634 224.465 104.294 223.834 104.165 223.202C104.036 222.57 104.883 222.778 105.095 222.694C105.306 222.609 105.263 222.146 105.008 221.894C104.753 221.641 105.513 221.175 105.979 220.963C106.444 220.751 107.673 220.453 108.053 220.283C108.434 220.113 108.685 219.227 108.852 218.469C109.019 217.709 110.624 215.892 110.961 215.554C111.299 215.216 112.063 215.382 112.825 215.295C113.587 215.21 114.773 215.121 114.856 214.784C114.94 214.447 115.066 213.982 115.532 213.939C115.997 213.896 116.757 213.219 116.968 212.839C117.179 212.459 117.774 213.174 118.198 213.214C118.622 213.255 119.129 212.748 119.254 212.2C119.38 211.652 119.633 211.44 119.802 211.271C119.971 211.101 119.632 210.976 119.419 210.85C119.207 210.725 118.487 210.601 117.979 210.518C117.47 210.435 117.595 209.845 117.425 209.676C117.255 209.509 116.791 210.058 116.713 210.354C116.635 210.649 115.946 210.987 115.692 210.82C115.437 210.653 114.887 210.864 114.506 211.161C114.127 211.457 113.533 211.543 113.364 211.459C113.194 211.375 113.701 210.994 113.743 210.658C113.784 210.32 113.274 210.195 112.978 210.154C112.681 210.113 112.635 208.638 112.633 207.837C112.63 207.036 113.223 206.993 113.519 206.696C113.814 206.401 113.136 206.108 112.752 205.561C112.37 205.014 112.369 204.636 112.368 204.214C112.366 203.792 112.11 203.246 111.773 203.583C111.435 203.922 110.675 204.851 110.295 205.105C109.914 205.359 109.152 205.319 108.684 204.857C108.217 204.395 107.368 204.06 107.114 203.935C106.86 203.809 106.052 203.348 105.924 202.843C105.795 202.337 105.415 202.633 104.865 202.761C104.315 202.889 103.338 202.092 103.04 201.629C102.743 201.167 102.612 199.945 102.779 199.396C102.947 198.848 103.394 199.331 103.71 199.015C104.027 198.697 103.792 198.046 104.13 197.875C104.469 197.706 104.979 198.421 105.276 198.377C105.572 198.334 105.825 197.912 106.036 197.575C106.246 197.237 106.584 196.857 106.415 196.688C106.244 196.52 105.563 195.343 105.351 195.132C105.139 194.922 104.971 195.682 104.676 196.146C104.381 196.611 103.49 196.36 103.193 196.235C102.897 196.109 102.639 194.762 102.466 193.751C102.294 192.74 101.781 191.435 101.949 190.97C102.118 190.507 102.883 191.853 103.096 192.063C103.308 192.273 103.943 192.102 103.944 192.397C103.945 192.693 104.581 192.691 104.962 192.69C105.343 192.688 105.43 193.278 105.599 193.32C105.769 193.361 106.022 192.981 106.148 192.602C106.274 192.222 108.637 189.391 108.89 189.012C109.144 188.632 109.523 187.829 110.75 187.7C111.979 187.57 112.278 188.917 112.449 189.422C112.62 189.927 112.711 192.076 112.502 193.004C112.293 193.931 110.593 195.516 110.408 196.075C110.222 196.633 110.93 198.817 111.165 199.05C111.399 199.281 112.107 201.186 112.108 201.559C112.109 201.931 113.044 202.113 113.138 202.672C113.234 203.23 113.709 205.461 114.084 205.832C114.459 206.203 114.833 206.202 114.832 205.83C114.831 205.457 117.357 205.823 118.011 205.635C118.665 205.446 120.435 203.115 120.433 202.464C120.431 201.813 119.306 200.699 119.771 199.954C120.237 199.208 120.514 198.277 119.949 196.976C119.384 195.676 119.289 195.117 119.288 194.745C119.287 194.373 120.502 194.462 121.344 194.46C122.186 194.457 124.338 194.823 125.461 195.192C126.585 195.56 127.43 196.767 127.901 197.51C128.369 198.253 128.001 200.115 127.817 200.953C127.632 201.791 127.729 202.814 128.198 203.277C128.667 203.742 128.205 205.697 128.021 206.627C127.837 207.558 127.326 209.095 126.814 209.609C126.302 210.121 125.701 212.774 126.171 213.612C126.641 214.447 128.607 214.812 129.075 214.811C129.543 214.81 129.079 216.3 128.802 217.231C128.523 218.162 127.593 219.84 127.034 220.4C126.475 220.96 125.916 222.17 125.639 223.381C125.362 224.592 124.903 226.825 123.781 227.108C122.66 227.391 121.909 226.462 121.44 226.185C120.972 225.908 118.823 226.844 118.824 227.402C118.826 227.961 118.834 230.287 119.117 231.216C119.401 232.145 119.691 235.587 119.694 236.424C119.697 237.261 120.171 239.4 120.547 240.05C120.923 240.7 121.77 242.465 121.772 243.302C121.775 244.14 121.036 247.212 121.318 247.491C121.599 247.768 122.908 247.858 123.939 248.878C124.972 249.899 125.63 251.385 126.005 251.57C126.38 251.755 128.625 252.027 130.029 252.302C131.433 252.577 130.969 253.881 131.812 254.715C132.657 255.55 135.094 256.845 135.936 257.029C136.777 257.212 140.058 259.622 140.899 259.619C141.741 259.617 145.479 258.768 147.256 258.483C149.032 258.199 150.063 259.219 150.812 259.217C151.56 259.215 153.889 256.603 155.009 255.762C156.128 254.921 159.305 253.609 159.957 252.956C160.61 252.302 163.22 249.504 163.219 249.132C163.218 248.76 163.965 248.199 163.962 247.176C163.959 246.152 163.114 245.317 163.111 244.387C163.108 243.457 163.386 242.433 163.663 241.501C163.942 240.57 162.347 239.086 162.156 237.784C161.965 236.482 162.191 233.83 162.704 233.317C163.217 232.804 164.664 232.009 164.661 230.892C164.658 229.776 164.373 228.66 165.679 227.54C166.985 226.42 171.011 227.896 171.759 227.894C172.507 227.891 173.437 225.935 174.835 224.721C176.235 223.507 180.067 222.845 180.814 222.563C181.561 222.282 182.216 222.652 183.246 222.835C184.274 223.018 186.618 224.499 187.086 224.498C187.554 224.497 188.579 223.749 189.98 223.094C191.381 222.438 193.435 221.409 194.651 221.126C195.865 220.843 196.33 220.191 196.608 219.166C196.886 218.143 198.194 217.859 199.035 217.391C199.875 216.924 200.152 215.899 200.525 215.526C200.898 215.152 199.953 211.992 199.95 211.155C199.948 210.318 198.633 207.996 198.067 206.695C197.502 205.395 196.095 203.91 195.344 203.167C194.593 202.425 193.097 201.965 193.097 201.965C193.097 201.965 192.294 199.781 191.778 199.271C191.263 198.761 190.003 199.928 189.349 199.93C188.694 199.932 187.801 198.492 187.191 197.889C186.582 197.286 185.546 194.685 184.654 193.804C183.763 192.923 181.472 192.696 180.818 192.698C180.163 192.7 178.106 193.359 177.452 193.361C176.797 193.363 175.489 193.273 175.114 193.274C174.74 193.275 173.334 192.163 172.304 191.515C171.273 190.867 168.27 187.619 167.426 186.785C166.582 185.95 163.769 183.353 162.55 182.333C161.331 181.314 157.302 178.907 156.647 178.723C155.991 178.539 154.494 178.451 154.494 178.451C154.494 178.451 155.72 181.424 155.721 181.889C155.723 182.354 155.915 184.122 156.385 184.585C156.853 185.049 156.154 186.027 155.828 186.354C155.501 186.681 154.474 186.871 154.148 187.197C153.821 187.524 151.254 189.16 151.255 189.532C151.256 189.904 150.979 190.649 150.418 190.93C149.857 191.211 147.241 191.776 146.68 191.965C146.119 192.152 146.404 193.082 145.844 193.642C145.284 194.202 142.104 194.025 141.45 194.027C140.794 194.029 140.097 195.101 139.677 195.521C139.257 195.941 136.594 196.647 136.128 196.834C135.661 197.022 132.672 198.333 132.112 198.707C131.552 199.081 130.804 198.99 130.803 198.711C130.802 198.432 132.668 196.844 132.668 196.844L131.169 196.105C131.169 196.105 134.812 194.605 135.185 194.232C135.558 193.858 137.333 193.295 137.986 192.828C138.639 192.361 141.44 190.678 141.72 190.677C142 190.676 142.891 191.092 143.31 190.672C143.73 190.253 146.388 188.244 147.415 187.869C148.443 187.493 149.658 186.745 150.593 186.742C151.528 186.739 153.49 186.455 153.49 186.455C153.49 186.455 152.926 185.433 152.646 185.155C152.364 184.877 151.702 182.553 151.701 182.087C151.7 181.622 150.666 180.602 150.196 179.766C149.727 178.93 148.973 176.979 148.597 176.329C148.221 175.679 140.44 169.375 140.44 169.375C140.44 169.375 139.175 168.681 138.849 169.008C138.523 169.335 137.357 170.594 137.079 171.153C136.8 171.713 136.053 172.273 136.053 172.273C136.053 172.273 137.555 174.222 137.745 174.873C137.934 175.524 137.656 176.641 137.656 176.641C137.656 176.641 136.302 177.249 136.536 177.482C136.771 177.713 136.492 178.273 136.073 178.692C135.653 179.112 130.841 180.569 130.187 180.571C129.532 180.573 129.155 179.737 129.152 178.807C129.149 177.876 129.945 177.92 130.178 177.686C130.411 177.453 131.952 176.751 132.512 176.191C133.071 175.631 133.723 175.071 133.721 174.14C133.718 173.21 133.338 171.165 133.338 171.165C133.338 171.165 135.018 170.415 135.204 169.856C135.388 169.297 135.852 167.529 135.849 166.691C135.847 165.854 135.179 161.577 135.179 161.577C135.179 161.577 137.001 161.152 137.42 160.732C137.84 160.312 138.256 158.497 138.537 158.775C138.819 159.053 138.728 159.798 139.382 159.796C140.037 159.794 140.689 159.233 140.687 158.675C140.685 158.118 139.186 156.726 139.186 156.726C139.186 156.726 143.674 156.899 144.517 157.082C145.36 157.265 147.697 157.073 149.097 156.231C150.497 155.39 154.798 154.819 154.798 154.819C154.798 154.819 153.157 153.474 152.922 153.243C152.688 153.011 155.448 153.235 155.635 153.234C155.822 153.234 156.101 152.675 155.632 152.211C155.162 151.747 151.706 152.874 151.706 152.874C151.706 152.874 150.488 152.412 150.114 152.413C149.739 152.415 146.465 151.588 146.185 151.588C145.904 151.589 143.841 149.921 143.277 149.085C142.713 148.25 138.641 146.82 138.125 146.309C137.609 145.799 136.527 143.431 136.527 143.431C136.527 143.431 139.05 142.772 139.517 142.584C139.985 142.396 141.855 142.484 142.324 142.762C142.792 143.039 143.446 142.758 143.445 142.386C143.444 142.014 142.038 141.274 142.038 141.274L144.844 141.265C145.686 141.263 148.495 142.37 148.962 142.369C149.43 142.367 151.86 141.895 152.7 141.613C152.706 141.612 152.71 141.611 152.715 141.61C152.36 141.469 152.005 141.33 151.648 141.194C151.241 141.272 150.855 141.341 150.736 141.341L148.211 141.349C147.557 141.351 145.121 140.427 145.121 140.427C145.121 140.427 145.775 140.239 146.054 139.587C146.097 139.485 146.172 139.407 146.257 139.338C138.229 136.879 129.697 135.567 120.855 135.594C98.962 135.66 79.022 143.925 63.9558 157.454ZM113.3 173.431C113.701 173.601 113.135 175.196 113.249 175.309C113.364 175.423 113.821 175.251 113.992 174.795C114.162 174.339 115.362 173.937 115.99 173.878C116.62 173.82 118.908 173.926 119.309 173.925C119.709 173.923 119.655 174.891 119.771 175.404C119.886 175.915 118.922 178.251 118.694 178.764C118.467 179.277 117.781 179.449 117.495 179.45C117.208 179.451 115.091 179.173 114.862 179.06C114.634 178.947 113.544 178.324 113.087 178.496C112.63 178.669 110.52 180.723 109.777 181.067C109.035 181.411 108.062 181.129 107.49 181.245C106.919 181.36 107.092 182.043 106.807 182.328C106.522 182.614 105.431 181.251 105.029 180.854C104.628 180.457 104.312 180.031 103.882 179.605C103.451 179.18 103.422 178.867 103.419 177.957C103.416 177.047 102.786 176.878 102.498 176.081C102.21 175.286 102.668 175.455 103.182 175.168C103.696 174.883 104.268 175.052 104.897 174.935C105.526 174.82 105.181 174.48 105.294 173.911C105.407 173.341 105.636 173.511 106.038 173.681C106.438 173.85 107.183 174.701 107.183 174.701C106.383 174.761 106.385 175.329 105.871 175.559C105.358 175.788 105.817 176.47 105.761 176.869C105.705 177.267 106.333 177.038 106.62 177.207C106.907 177.377 106.908 177.719 107.251 177.604C107.594 177.489 107.707 177.261 108.108 177.259C108.508 177.258 109.25 177.029 109.42 176.459C109.589 175.89 110.334 175.716 110.619 175.544C110.905 175.373 111.649 175.712 111.935 175.54C112.22 175.369 111.274 174.831 111.016 174.576C110.758 174.321 111.758 173.72 112.1 173.549C112.443 173.377 112.899 173.261 113.3 173.431Z" fill="#007AC6"/>
<path d="M188.413 190.304C188.531 190.596 189.121 191.295 189.414 191.294C189.708 191.293 190.587 190.881 190.999 190.996C191.409 191.113 191.936 190.586 191.934 190.118C191.933 189.651 191.46 188.543 191.342 188.134C191.223 187.727 187.754 185.577 187.284 185.345C186.813 185.113 183.759 184.129 183.406 183.897C183.053 183.664 182.406 183.083 181.936 183.084C181.467 183.085 179.765 183.207 180.12 183.907C180.12 183.907 181.764 184.427 182.413 185.359C183.061 186.292 183.593 187.574 183.83 188.099C184.066 188.624 185.009 189.906 185.302 189.905C185.596 189.904 186.651 189.842 186.886 189.725C187.121 189.608 188.295 190.012 188.413 190.304Z" fill="#007AC6"/>
<path d="M118.72 222.33C118.826 221.957 119.415 221.369 119.415 221.369C119.198 220.623 118.395 220.679 118.072 220.68C117.751 220.681 117.27 221.056 117.271 221.375C117.272 221.695 117.169 222.975 117.17 223.242C117.171 223.508 117.495 224.36 117.495 224.36C117.495 224.36 118.082 223.985 118.135 223.718C118.188 223.452 118.614 222.704 118.72 222.33Z" fill="#007AC6"/>
<path d="M122.001 208.834C122.053 208.514 122.319 207.607 122.318 207.34C122.317 207.074 121.835 206.808 121.729 206.915C121.621 207.022 121.409 207.823 121.517 208.196C121.517 208.196 120.879 209.744 121.362 210.062C121.362 210.062 122.006 210.38 122.113 210.06C122.218 209.74 121.949 209.153 122.001 208.834Z" fill="#007AC6"/>
<path d="M111.021 228.004C110.753 228.112 109.373 228.263 109.63 228.542C109.63 228.542 110.221 229.234 110.489 229.286C110.757 229.338 111.507 229.05 111.507 228.793C111.506 228.536 111.289 227.897 111.021 228.004Z" fill="#007AC6"/>
<path d="M113.492 229.65C113.866 229.275 114.991 229.486 115.313 229.485C115.635 229.484 116.222 229.003 116.061 228.843C115.9 228.684 115.47 228.098 115.202 228.099C114.933 228.1 113.218 227.785 112.843 227.786C112.468 227.787 112.308 228.001 112.308 228.268L112.312 229.494C112.473 229.547 113.118 230.024 113.492 229.65Z" fill="#007AC6"/>
</g>
<mask id="mask4_288_1075" style="mask-type:luminance" maskUnits="userSpaceOnUse" x="-2" y="9" width="240" height="219">
<path d="M-1.40329 9.21924H237.869V227.78H-1.40329V9.21924Z" fill="white"/>
</mask>
<g mask="url(#mask4_288_1075)">
<path d="M36.4978 216.995C36.9294 215.891 37.1747 214.692 37.1747 213.434C37.1747 208.044 32.8286 203.676 27.467 203.676C23.6043 203.676 20.279 205.949 18.7158 209.232C17.6786 208.554 16.4436 208.156 15.1148 208.156C11.4581 208.156 8.49362 211.136 8.49362 214.811C8.49362 214.983 8.5067 215.151 8.51924 215.319C8.474 215.318 8.42985 215.312 8.38407 215.312C5.2866 215.312 2.7756 217.837 2.7756 220.95C2.7756 224.064 5.2866 226.588 8.38407 226.588H35.3189C37.9955 226.588 40.1653 224.407 40.1653 221.716C40.1653 219.435 38.6038 217.525 36.4978 216.995Z" fill="white"/>
<path d="M111.865 36.8505C112.411 35.4531 112.721 33.9362 112.721 32.3436C112.721 25.5241 107.221 19.9946 100.436 19.9946C95.5485 19.9946 91.3402 22.8719 89.3618 27.0262C88.0493 26.1688 86.4861 25.6658 84.8047 25.6658C80.1767 25.6658 76.4258 29.4364 76.4258 34.0877C76.4258 34.3047 76.4421 34.5178 76.4579 34.7303C76.4007 34.7292 76.3451 34.7222 76.2873 34.7222C72.3674 34.7222 69.1898 37.9161 69.1898 41.8562C69.1898 45.7963 72.3674 48.9908 76.2873 48.9908H110.373C113.76 48.9908 116.507 46.2301 116.507 42.8253C116.507 39.9382 114.53 37.5215 111.865 36.8505Z" fill="white"/>
<path d="M208.96 63.4367C209.022 63.1353 209.055 62.824 209.055 62.5041C209.055 59.974 207.015 57.923 204.497 57.923C203.822 57.923 203.184 58.0746 202.608 58.3389C201.782 54.0184 198.006 50.752 193.467 50.752C190.158 50.752 187.259 52.4923 185.607 55.1074C184.803 54.54 183.825 54.2048 182.767 54.2048C180.031 54.2048 177.813 56.434 177.813 59.1837C177.813 59.3151 177.823 59.4437 177.833 59.5723C174.668 60.4155 172.332 63.3059 172.332 66.7527C172.332 70.8596 175.643 74.1898 179.729 74.1898H207.271C210.3 74.1898 212.754 71.7218 212.754 68.6783C212.754 66.2273 211.161 64.1523 208.96 63.4367Z" fill="white"/>
<path d="M91.8172 19.5898C91.8678 19.3434 91.8951 19.0883 91.8951 18.8267C91.8951 16.7583 90.2267 15.0817 88.1687 15.0817C87.6171 15.0817 87.0949 15.2055 86.624 15.4219C85.9487 11.8889 82.8616 9.21875 79.1504 9.21875C76.4443 9.21875 74.0745 10.6418 72.7239 12.78C72.066 12.3162 71.2664 12.0415 70.402 12.0415C68.1651 12.0415 66.3518 13.8647 66.3518 16.113C66.3518 16.2198 66.36 16.3255 66.3681 16.4307C63.7803 17.1197 61.8699 19.4829 61.8699 22.3008C61.8699 25.6588 64.5777 28.3807 67.9182 28.3807H90.4366C92.9121 28.3807 94.919 26.3635 94.919 23.8749C94.919 21.8713 93.6169 20.1751 91.8172 19.5898Z" fill="white" fill-opacity="0.28"/>
<path d="M21.6863 205.39C21.7212 205.219 21.7403 205.041 21.7403 204.859C21.7403 203.418 20.5783 202.249 19.1448 202.249C18.7606 202.249 18.3965 202.336 18.0684 202.487C17.5985 200.026 15.4478 198.166 12.8627 198.166C10.9779 198.166 9.32646 199.157 8.38626 200.646C7.92789 200.323 7.37086 200.133 6.76859 200.133C5.21032 200.133 3.94746 201.402 3.94746 202.968C3.94746 203.042 3.95291 203.117 3.9589 203.19C2.15591 203.67 0.82547 205.316 0.82547 207.279C0.82547 209.618 2.71131 211.514 5.03863 211.514H20.7243C22.4488 211.514 23.8469 210.108 23.8469 208.376C23.8469 206.979 22.9399 205.798 21.6863 205.39Z" fill="white" fill-opacity="0.28"/>
<path d="M217.824 54.4921C217.864 54.297 217.885 54.0953 217.885 53.8887C217.885 52.252 216.565 50.9253 214.937 50.9253C214.501 50.9253 214.088 51.0235 213.715 51.1946C213.181 48.3996 210.739 46.2876 207.803 46.2876C205.663 46.2876 203.788 47.4137 202.72 49.1049C202.199 48.7376 201.567 48.5206 200.883 48.5206C199.113 48.5206 197.679 49.9623 197.679 51.7413C197.679 51.8263 197.685 51.9091 197.691 51.9925C195.644 52.5376 194.133 54.4076 194.133 56.6368C194.133 59.2933 196.275 61.4463 198.918 61.4463H216.732C218.69 61.4463 220.278 59.8509 220.278 57.8822C220.278 56.2973 219.248 54.9548 217.824 54.4921Z" fill="white" fill-opacity="0.28"/>
<path d="M201.679 149.26C202.11 147.93 202.352 146.527 202.352 145.071C202.352 136.838 194.945 130.163 185.808 130.163C181.791 130.163 178.111 131.454 175.245 133.6C173.968 133.122 172.57 132.854 171.101 132.854C166.135 132.854 161.962 135.88 160.701 139.994C159.708 139.455 158.558 139.126 157.315 139.126C153.993 139.126 151.272 141.346 150.812 144.225C143.945 145.245 138.702 150.604 138.702 157.081C138.702 164.285 145.184 170.125 153.179 170.125H200.629C207.038 170.125 212.233 165.444 212.233 159.669C212.233 154.213 207.595 149.739 201.679 149.26Z" fill="white" fill-opacity="0.6"/>
<path d="M57.5532 69.4899C55.3464 69.4899 53.2409 69.9058 51.2842 70.6307C49.3444 60.7709 40.7 53.335 30.3225 53.335C23.4185 53.335 17.2971 56.639 13.3892 61.7449C11.3867 60.3246 8.94983 59.483 6.31293 59.483C-0.479362 59.483 -5.98536 65.0173 -5.98536 71.8445C-5.98536 72.0184 -5.96628 72.1873 -5.9592 72.3596C-13.3674 74.1964 -18.8685 80.9014 -18.8685 88.9152C-18.8685 98.3433 -11.2652 105.986 -1.88557 105.986H57.5532C67.5792 105.986 75.7069 97.8162 75.7069 87.7379C75.7069 77.6601 67.5792 69.4899 57.5532 69.4899Z" fill="white" fill-opacity="0.6"/>
<path d="M171.116 200.437C170.265 200.437 169.453 200.597 168.698 200.877C167.949 197.074 164.615 194.206 160.613 194.206C157.95 194.206 155.589 195.48 154.081 197.45C153.309 196.902 152.369 196.577 151.352 196.577C148.733 196.577 146.609 198.712 146.609 201.345C146.609 201.412 146.617 201.477 146.619 201.543C143.762 202.252 141.64 204.838 141.64 207.929C141.64 211.566 144.573 214.514 148.19 214.514H171.116C174.983 214.514 178.118 211.362 178.118 207.475C178.118 203.588 174.983 200.437 171.116 200.437Z" fill="white"/>
</g>
<mask id="mask5_288_1075" style="mask-type:luminance" maskUnits="userSpaceOnUse" x="95" y="13" width="46" height="51">
<path d="M95.2563 13.3647H140.756V63.8647H95.2563V13.3647Z" fill="white"/>
</mask>
<g mask="url(#mask5_288_1075)">
<path d="M113.988 21.7457C113.158 21.7447 112.487 21.1952 112.488 20.4287C112.488 19.6617 113.161 19.1137 113.991 19.1147L118.498 19.1197C119.327 19.1207 119.999 19.6697 119.999 20.4367C119.998 21.2037 119.324 21.7522 118.494 21.7512L113.988 21.7457Z" fill="#1183D1"/>
<path d="M116.302 25.8158C115.473 25.8153 114.801 25.1458 114.802 24.3788C114.803 23.6118 115.476 22.9438 116.305 22.9448L120.812 22.9503C121.642 22.9508 122.314 23.6203 122.313 24.3873C122.312 25.1543 121.638 25.8218 120.809 25.8208L116.302 25.8158Z" fill="#1183D1"/>
<path d="M119.081 29.8859C118.252 29.8849 117.58 29.0959 117.581 28.3289C117.582 27.5624 118.255 26.7749 119.085 26.7759L123.591 26.7809C124.421 26.7819 125.093 27.5709 125.092 28.3374C125.091 29.1044 124.417 29.8919 123.588 29.8909L119.081 29.8859Z" fill="#1183D1"/>
<path d="M113.951 55.2397C113.121 55.2387 112.448 55.9062 112.447 56.6732C112.446 57.4402 113.117 58.1092 113.947 58.1102L118.454 58.1157C119.284 58.1167 119.957 57.4487 119.957 56.6817C119.958 55.9152 119.287 55.2457 118.457 55.2447L113.951 55.2397Z" fill="#1183D1"/>
<path d="M116.275 51.1753C115.445 51.1743 114.771 51.8423 114.77 52.6093C114.77 53.3758 115.441 54.0448 116.271 54.0458L120.778 54.0513C121.608 54.0518 122.281 53.3838 122.281 52.6173C122.282 51.8503 121.611 51.1813 120.781 51.1803L116.275 51.1753Z" fill="#1183D1"/>
<path d="M119.062 47.3501C118.232 47.3491 117.559 48.0171 117.558 48.7841C117.557 49.5511 118.229 50.2196 119.059 50.2206L123.565 50.2261C124.395 50.2271 125.068 49.5591 125.069 48.7921C125.07 48.0251 124.398 47.3561 123.568 47.3551L119.062 47.3501Z" fill="#1183D1"/>
<path d="M126.391 41.8878L111.988 63.8508L107.194 63.8453L113.404 41.8853" fill="#ECEFF4"/>
<path d="M126.398 35.3172L112.044 13.3702L107.25 13.3652L113.411 35.3147" fill="#ECEFF4"/>
<path d="M102.352 39.3499L98.7243 45.8929L97.5173 45.8909L97.3668 39.2539" fill="#1183D1"/>
<path d="M102.354 37.4151L98.7408 30.5806L97.5343 30.5791L97.3688 37.3581" fill="#1183D1"/>
<path d="M98.6853 41.5236C96.7638 41.5211 95.2543 40.4256 95.2568 38.5041V38.2726C95.2588 36.3511 96.7708 35.2591 98.6923 35.2616L135.704 34.1431C137.007 34.1446 140.476 36.4011 140.473 38.3231V38.5551C140.471 40.4771 136.997 42.7256 135.695 42.7241L98.6853 41.5236Z" fill="white"/>
<path d="M135.808 40.9223C137.857 38.2628 135.943 36.2578 135.86 36.1738L136.687 35.3613C137.631 36.3223 138.854 38.8683 136.727 41.6298L135.808 40.9223Z" fill="#1183D1"/>
<path d="M126.168 41.4822C119.636 41.0347 113.094 40.7612 106.546 40.6587C106.361 40.6562 106.395 40.9432 106.578 40.9457C113.1 41.0472 119.617 41.3217 126.125 41.7667C126.309 41.7792 126.353 41.4947 126.168 41.4822Z" fill="#CECECE"/>
<path d="M98.7973 35.9522C97.7458 35.8427 96.5603 36.1637 96.3153 37.3297C96.2768 37.5117 96.5618 37.5547 96.5998 37.3737C96.8108 36.3702 97.8733 36.1452 98.7538 36.2367C98.9378 36.2562 98.9818 35.9717 98.7973 35.9522Z" fill="#CECECE"/>
<path d="M112.817 16.3579C115.738 20.7684 118.659 25.1794 121.58 29.5894C121.682 29.7439 121.912 29.5704 121.81 29.4164C118.889 25.0054 115.968 20.5954 113.046 16.1849C112.944 16.0304 112.714 16.2034 112.817 16.3579Z" fill="#CECECE"/>
<path d="M122.279 46.1686C119.311 50.8691 116.209 55.4801 112.973 60.0001C112.865 60.1506 113.091 60.3291 113.199 60.1781C116.435 55.6581 119.538 51.0471 122.506 46.3461C122.604 46.1911 122.378 46.0116 122.279 46.1686Z" fill="#CECECE"/>
</g>
</g>
</g>
</g>
</g>
<defs>
<clipPath id="clip0_288_1075">
<rect width="237" height="237" fill="white"/>
</clipPath>
</defs>
</svg>
