<svg width="12" height="12" viewBox="0 0 12 12" fill="none" xmlns="http://www.w3.org/2000/svg">
<path fill-rule="evenodd" clip-rule="evenodd" d="M10.293 11.6065C10.6835 11.997 11.3167 11.997 11.7072 11.6065C12.0977 11.216 12.0977 10.5828 11.7072 10.1923L7.46455 5.94967L11.7072 1.70703C12.0977 1.3165 12.0977 0.683337 11.7072 0.292813C11.3167 -0.0977118 10.6835 -0.0977118 10.293 0.292813L6.05033 4.53545L1.80769 0.292813C1.41717 -0.0977118 0.784004 -0.0977109 0.393479 0.292813C0.002955 0.683337 0.00295467 1.3165 0.393479 1.70703L4.63612 5.94967L0.393479 10.1923C0.00295467 10.5828 0.002955 11.216 0.393479 11.6065C0.784004 11.997 1.41717 11.997 1.80769 11.6065L6.05033 7.36388L10.293 11.6065Z" fill="#545F71"/>
</svg>
