<svg width="302" height="38" viewBox="0 0 302 38" fill="none" xmlns="http://www.w3.org/2000/svg">
<path d="M88.3118 7C88.2247 6.60606 88.0769 6.22538 87.8686 5.85795C87.6603 5.48674 87.3932 5.15341 87.0675 4.85795C86.7455 4.55871 86.3667 4.32197 85.9311 4.14773C85.4993 3.97348 85.0144 3.88636 84.4766 3.88636C83.6546 3.88636 82.9254 4.10227 82.2891 4.53409C81.6565 4.96212 81.1603 5.57386 80.8004 6.36932C80.4444 7.16098 80.2663 8.09848 80.2663 9.18182C80.2663 10.2538 80.4444 11.1875 80.8004 11.983C81.1565 12.7784 81.6546 13.3939 82.2947 13.8295C82.9387 14.2614 83.6868 14.4773 84.5391 14.4773C85.3004 14.4773 85.9747 14.3011 86.5618 13.9489C87.1527 13.5966 87.6129 13.0928 87.9425 12.4375C88.272 11.7822 88.433 10.9981 88.4254 10.0852L88.6754 10.2045H84.7209V9.54545H89.1186V10.2045C89.1186 11.2311 88.9216 12.1155 88.5277 12.858C88.1375 13.5966 87.5959 14.1648 86.9027 14.5625C86.2133 14.9602 85.4254 15.1591 84.5391 15.1591C83.5391 15.1591 82.666 14.911 81.9197 14.4148C81.1735 13.9186 80.594 13.2235 80.1811 12.3295C79.772 11.4318 79.5675 10.3826 79.5675 9.18182C79.5675 8.2803 79.6849 7.46212 79.9197 6.72727C80.1546 5.99242 80.4898 5.36364 80.9254 4.84091C81.361 4.31439 81.88 3.91098 82.4822 3.63068C83.0845 3.34659 83.7493 3.20455 84.4766 3.20455C85.1357 3.20455 85.7285 3.31439 86.255 3.53409C86.7815 3.75 87.236 4.04167 87.6186 4.40909C88.005 4.77273 88.3175 5.17992 88.5561 5.63068C88.7947 6.07765 88.9557 6.53409 89.0391 7H88.3118ZM92.451 3.36364V15H91.7578V3.36364H92.451ZM98.5646 15.1818C97.8449 15.1818 97.2048 14.9886 96.6442 14.6023C96.0836 14.2121 95.6423 13.6761 95.3203 12.9943C94.9983 12.3125 94.8374 11.536 94.8374 10.6648C94.8374 9.78977 94.9983 9.01326 95.3203 8.33523C95.6423 7.65341 96.0836 7.11742 96.6442 6.72727C97.2048 6.33712 97.8449 6.14205 98.5646 6.14205C99.2843 6.14205 99.9245 6.33712 100.485 6.72727C101.046 7.11742 101.487 7.65341 101.809 8.33523C102.131 9.01705 102.292 9.79356 102.292 10.6648C102.292 11.536 102.131 12.3125 101.809 12.9943C101.487 13.6761 101.046 14.2121 100.485 14.6023C99.9245 14.9886 99.2843 15.1818 98.5646 15.1818ZM98.5646 14.5398C99.1745 14.5398 99.7067 14.3674 100.161 14.0227C100.62 13.678 100.974 13.2121 101.224 12.625C101.478 12.0379 101.604 11.3845 101.604 10.6648C101.604 9.94508 101.478 9.29356 101.224 8.71023C100.97 8.12311 100.616 7.6572 100.161 7.3125C99.7067 6.96401 99.1745 6.78977 98.5646 6.78977C97.9548 6.78977 97.4226 6.96401 96.968 7.3125C96.5135 7.6572 96.1593 8.12311 95.9055 8.71023C95.6518 9.29356 95.5249 9.94508 95.5249 10.6648C95.5249 11.3845 95.6499 12.0379 95.8999 12.625C96.1536 13.2121 96.5078 13.678 96.9624 14.0227C97.4207 14.3674 97.9548 14.5398 98.5646 14.5398ZM104.924 15V3.36364H105.612V8.22159H105.68C105.816 7.84659 106.009 7.50189 106.259 7.1875C106.509 6.87311 106.82 6.62121 107.191 6.43182C107.562 6.23864 107.996 6.14205 108.492 6.14205C109.193 6.14205 109.805 6.33712 110.327 6.72727C110.85 7.11364 111.255 7.64773 111.543 8.32955C111.831 9.00758 111.975 9.78409 111.975 10.6591C111.975 11.5417 111.831 12.3239 111.543 13.0057C111.255 13.6837 110.852 14.2159 110.333 14.6023C109.814 14.9886 109.202 15.1818 108.498 15.1818C108.002 15.1818 107.568 15.0871 107.197 14.8977C106.826 14.7045 106.515 14.4508 106.265 14.1364C106.015 13.8182 105.82 13.4716 105.68 13.0966H105.6V15H104.924ZM105.606 10.6534C105.606 11.3958 105.718 12.0606 105.941 12.6477C106.168 13.2311 106.494 13.6932 106.918 14.0341C107.343 14.3712 107.85 14.5398 108.441 14.5398C109.04 14.5398 109.551 14.3693 109.975 14.0284C110.399 13.6837 110.723 13.2178 110.947 12.6307C111.174 12.0436 111.288 11.3845 111.288 10.6534C111.288 9.92235 111.174 9.26515 110.947 8.68182C110.723 8.09848 110.399 7.63826 109.975 7.30114C109.551 6.96023 109.04 6.78977 108.441 6.78977C107.85 6.78977 107.343 6.95833 106.918 7.29545C106.494 7.62879 106.168 8.08712 105.941 8.67045C105.718 9.25 105.606 9.91098 105.606 10.6534ZM116.68 15.1875C116.176 15.1875 115.714 15.0871 115.293 14.8864C114.877 14.6856 114.541 14.392 114.288 14.0057C114.038 13.6193 113.913 13.1496 113.913 12.5966C113.913 12.233 113.977 11.9129 114.106 11.6364C114.235 11.3598 114.433 11.1212 114.702 10.9205C114.971 10.7197 115.316 10.5549 115.737 10.4261C116.157 10.2936 116.659 10.1913 117.242 10.1193C117.685 10.0663 118.081 10.0152 118.43 9.96591C118.778 9.91288 119.051 9.83144 119.248 9.72159C119.449 9.61174 119.549 9.44508 119.549 9.22159V8.85795C119.549 8.22159 119.348 7.71591 118.947 7.34091C118.545 6.96591 117.992 6.77841 117.288 6.77841C116.663 6.77841 116.136 6.91667 115.708 7.19318C115.284 7.46591 114.987 7.81818 114.816 8.25L114.163 8.00568C114.329 7.58901 114.57 7.24242 114.884 6.96591C115.202 6.68939 115.566 6.48295 115.975 6.34659C116.388 6.21023 116.82 6.14205 117.271 6.14205C117.661 6.14205 118.032 6.19697 118.384 6.30682C118.74 6.41667 119.057 6.58333 119.333 6.80682C119.613 7.0303 119.835 7.31629 119.998 7.66477C120.161 8.00947 120.242 8.42235 120.242 8.90341V15H119.549V13.4261H119.498C119.346 13.7519 119.138 14.0492 118.873 14.3182C118.612 14.5833 118.295 14.7955 117.924 14.9545C117.557 15.1098 117.142 15.1875 116.68 15.1875ZM116.748 14.5455C117.293 14.5455 117.776 14.4129 118.197 14.1477C118.621 13.8788 118.952 13.5114 119.191 13.0455C119.43 12.5795 119.549 12.0511 119.549 11.4602V10.1761C119.462 10.2519 119.335 10.3201 119.168 10.3807C119.005 10.4375 118.82 10.4886 118.612 10.5341C118.407 10.5758 118.191 10.6136 117.964 10.6477C117.74 10.678 117.522 10.7064 117.31 10.733C116.674 10.8087 116.155 10.9261 115.754 11.0852C115.356 11.2405 115.064 11.4451 114.879 11.6989C114.697 11.9527 114.606 12.2595 114.606 12.6193C114.606 13.214 114.81 13.6837 115.219 14.0284C115.629 14.3731 116.138 14.5455 116.748 14.5455ZM123.842 3.36364V15H123.148V3.36364H123.842ZM134.506 6.27273V6.89205H130.637V6.27273H134.506ZM131.91 15V4.91477C131.91 4.47538 132.01 4.10038 132.211 3.78977C132.412 3.47917 132.675 3.24242 133.001 3.07955C133.33 2.91667 133.684 2.83523 134.063 2.83523C134.264 2.83523 134.434 2.85227 134.575 2.88636C134.719 2.91667 134.844 2.95265 134.95 2.99432L134.745 3.60795C134.658 3.57765 134.563 3.55114 134.461 3.52841C134.362 3.50568 134.245 3.49432 134.109 3.49432C133.669 3.49432 133.308 3.62879 133.023 3.89773C132.739 4.16667 132.597 4.54167 132.597 5.02273L132.592 15H131.91ZM139.549 15.1818C138.829 15.1818 138.189 14.9886 137.629 14.6023C137.068 14.2121 136.627 13.6761 136.305 12.9943C135.983 12.3125 135.822 11.536 135.822 10.6648C135.822 9.78977 135.983 9.01326 136.305 8.33523C136.627 7.65341 137.068 7.11742 137.629 6.72727C138.189 6.33712 138.829 6.14205 139.549 6.14205C140.269 6.14205 140.909 6.33712 141.469 6.72727C142.03 7.11742 142.471 7.65341 142.793 8.33523C143.115 9.01705 143.276 9.79356 143.276 10.6648C143.276 11.536 143.115 12.3125 142.793 12.9943C142.471 13.6761 142.03 14.2121 141.469 14.6023C140.909 14.9886 140.269 15.1818 139.549 15.1818ZM139.549 14.5398C140.159 14.5398 140.691 14.3674 141.146 14.0227C141.604 13.678 141.958 13.2121 142.208 12.625C142.462 12.0379 142.589 11.3845 142.589 10.6648C142.589 9.94508 142.462 9.29356 142.208 8.71023C141.954 8.12311 141.6 7.6572 141.146 7.3125C140.691 6.96401 140.159 6.78977 139.549 6.78977C138.939 6.78977 138.407 6.96401 137.952 7.3125C137.498 7.6572 137.144 8.12311 136.89 8.71023C136.636 9.29356 136.509 9.94508 136.509 10.6648C136.509 11.3845 136.634 12.0379 136.884 12.625C137.138 13.2121 137.492 13.678 137.947 14.0227C138.405 14.3674 138.939 14.5398 139.549 14.5398ZM148.908 15.1818C148.189 15.1818 147.549 14.9886 146.988 14.6023C146.427 14.2121 145.986 13.6761 145.664 12.9943C145.342 12.3125 145.181 11.536 145.181 10.6648C145.181 9.78977 145.342 9.01326 145.664 8.33523C145.986 7.65341 146.427 7.11742 146.988 6.72727C147.549 6.33712 148.189 6.14205 148.908 6.14205C149.628 6.14205 150.268 6.33712 150.829 6.72727C151.389 7.11742 151.831 7.65341 152.153 8.33523C152.475 9.01705 152.636 9.79356 152.636 10.6648C152.636 11.536 152.475 12.3125 152.153 12.9943C151.831 13.6761 151.389 14.2121 150.829 14.6023C150.268 14.9886 149.628 15.1818 148.908 15.1818ZM148.908 14.5398C149.518 14.5398 150.05 14.3674 150.505 14.0227C150.963 13.678 151.317 13.2121 151.567 12.625C151.821 12.0379 151.948 11.3845 151.948 10.6648C151.948 9.94508 151.821 9.29356 151.567 8.71023C151.314 8.12311 150.96 7.6572 150.505 7.3125C150.05 6.96401 149.518 6.78977 148.908 6.78977C148.299 6.78977 147.766 6.96401 147.312 7.3125C146.857 7.6572 146.503 8.12311 146.249 8.71023C145.996 9.29356 145.869 9.94508 145.869 10.6648C145.869 11.3845 145.994 12.0379 146.244 12.625C146.497 13.2121 146.852 13.678 147.306 14.0227C147.764 14.3674 148.299 14.5398 148.908 14.5398ZM158.018 15.1818C157.317 15.1818 156.705 14.9886 156.183 14.6023C155.66 14.2159 155.254 13.6837 154.967 13.0057C154.683 12.3239 154.54 11.5417 154.54 10.6591C154.54 9.78409 154.684 9.00758 154.972 8.32955C155.264 7.64773 155.671 7.11364 156.194 6.72727C156.717 6.33712 157.326 6.14205 158.023 6.14205C158.523 6.14205 158.957 6.23864 159.325 6.43182C159.696 6.62121 160.006 6.87311 160.256 7.1875C160.51 7.50189 160.703 7.84659 160.836 8.22159H160.904V3.36364H161.592V15H160.921V13.0966H160.836C160.696 13.4716 160.501 13.8182 160.251 14.1364C160.001 14.4508 159.69 14.7045 159.319 14.8977C158.948 15.0871 158.514 15.1818 158.018 15.1818ZM158.08 14.5398C158.671 14.5398 159.177 14.3712 159.597 14.0341C160.022 13.6932 160.345 13.2311 160.569 12.6477C160.796 12.0606 160.91 11.3958 160.91 10.6534C160.91 9.91098 160.796 9.25 160.569 8.67045C160.345 8.08712 160.022 7.62879 159.597 7.29545C159.177 6.95833 158.671 6.78977 158.08 6.78977C157.482 6.78977 156.969 6.96023 156.54 7.30114C156.116 7.63826 155.79 8.09848 155.563 8.68182C155.34 9.26515 155.228 9.92235 155.228 10.6534C155.228 11.3845 155.34 12.0436 155.563 12.6307C155.79 13.2178 156.116 13.6837 156.54 14.0284C156.969 14.3693 157.482 14.5398 158.08 14.5398ZM178.711 9.18182C178.711 10.3826 178.503 11.4318 178.086 12.3295C177.669 13.2235 177.09 13.9186 176.347 14.4148C175.609 14.911 174.756 15.1591 173.79 15.1591C172.821 15.1591 171.965 14.911 171.222 14.4148C170.484 13.9148 169.906 13.2178 169.489 12.3239C169.073 11.4261 168.864 10.3788 168.864 9.18182C168.864 7.98106 169.073 6.93371 169.489 6.03977C169.91 5.14583 170.489 4.45076 171.228 3.95455C171.967 3.45455 172.821 3.20455 173.79 3.20455C174.756 3.20455 175.609 3.45265 176.347 3.94886C177.09 4.44508 177.669 5.14204 178.086 6.03977C178.503 6.93371 178.711 7.98106 178.711 9.18182ZM178.018 9.18182C178.018 8.10227 177.836 7.16667 177.472 6.375C177.112 5.58333 176.614 4.97159 175.978 4.53977C175.342 4.10417 174.612 3.88636 173.79 3.88636C172.969 3.88636 172.239 4.10227 171.603 4.53409C170.967 4.96212 170.467 5.57386 170.103 6.36932C169.743 7.16098 169.563 8.09848 169.563 9.18182C169.563 10.2538 169.741 11.1875 170.097 11.983C170.457 12.7746 170.955 13.3883 171.592 13.8239C172.228 14.2595 172.961 14.4773 173.79 14.4773C174.612 14.4773 175.342 14.2614 175.978 13.8295C176.614 13.3939 177.112 12.7803 177.472 11.9886C177.836 11.197 178.018 10.2614 178.018 9.18182ZM181.242 15V6.27273H181.918V7.63636H181.981C182.17 7.18939 182.49 6.83144 182.941 6.5625C183.392 6.28977 183.905 6.15341 184.481 6.15341C184.541 6.15341 184.602 6.15341 184.663 6.15341C184.723 6.15341 184.78 6.1553 184.833 6.15909V6.85795C184.788 6.85417 184.733 6.84848 184.668 6.84091C184.608 6.82955 184.532 6.82386 184.441 6.82386C183.956 6.82386 183.524 6.92803 183.146 7.13636C182.771 7.3447 182.475 7.63258 182.259 8C182.043 8.36364 181.935 8.7803 181.935 9.25V15H181.242ZM189.424 15.1818C188.723 15.1818 188.112 14.9886 187.589 14.6023C187.066 14.2159 186.661 13.6837 186.373 13.0057C186.089 12.3239 185.947 11.5417 185.947 10.6591C185.947 9.78409 186.091 9.00758 186.379 8.32955C186.67 7.64773 187.077 7.11364 187.6 6.72727C188.123 6.33712 188.733 6.14205 189.43 6.14205C189.93 6.14205 190.363 6.23864 190.731 6.43182C191.102 6.62121 191.413 6.87311 191.663 7.1875C191.916 7.50189 192.11 7.84659 192.242 8.22159H192.31V3.36364H192.998V15H192.327V13.0966H192.242C192.102 13.4716 191.907 13.8182 191.657 14.1364C191.407 14.4508 191.096 14.7045 190.725 14.8977C190.354 15.0871 189.92 15.1818 189.424 15.1818ZM189.487 14.5398C190.077 14.5398 190.583 14.3712 191.004 14.0341C191.428 13.6932 191.752 13.2311 191.975 12.6477C192.202 12.0606 192.316 11.3958 192.316 10.6534C192.316 9.91098 192.202 9.25 191.975 8.67045C191.752 8.08712 191.428 7.62879 191.004 7.29545C190.583 6.95833 190.077 6.78977 189.487 6.78977C188.888 6.78977 188.375 6.96023 187.947 7.30114C187.522 7.63826 187.197 8.09848 186.969 8.68182C186.746 9.26515 186.634 9.92235 186.634 10.6534C186.634 11.3845 186.746 12.0436 186.969 12.6307C187.197 13.2178 187.522 13.6837 187.947 14.0284C188.375 14.3693 188.888 14.5398 189.487 14.5398ZM199.521 15.1818C198.733 15.1818 198.047 14.9867 197.464 14.5966C196.88 14.2064 196.43 13.6723 196.112 12.9943C195.793 12.3163 195.634 11.5436 195.634 10.6761C195.634 9.80492 195.793 9.02841 196.112 8.34659C196.433 7.66477 196.875 7.12689 197.435 6.73295C197.996 6.33901 198.636 6.14205 199.356 6.14205C199.844 6.14205 200.307 6.24053 200.742 6.4375C201.182 6.63068 201.568 6.91098 201.901 7.27841C202.238 7.64583 202.502 8.08901 202.691 8.60795C202.884 9.12689 202.981 9.71023 202.981 10.358V10.7898H196.072V10.1591H202.288C202.288 9.52652 202.159 8.95644 201.901 8.44886C201.644 7.94129 201.293 7.53788 200.85 7.23864C200.407 6.93939 199.909 6.78977 199.356 6.78977C198.776 6.78977 198.259 6.95265 197.805 7.27841C197.354 7.60038 196.996 8.03598 196.731 8.58523C196.469 9.13447 196.333 9.74811 196.322 10.4261V10.7102C196.322 11.4375 196.449 12.0909 196.702 12.6705C196.96 13.2462 197.327 13.7027 197.805 14.0398C198.282 14.3731 198.854 14.5398 199.521 14.5398C199.998 14.5398 200.405 14.4602 200.742 14.3011C201.083 14.1383 201.362 13.9413 201.577 13.7102C201.793 13.4792 201.956 13.2557 202.066 13.0398L202.697 13.2955C202.564 13.5871 202.358 13.8788 202.077 14.1705C201.801 14.4583 201.449 14.6989 201.021 14.892C200.596 15.0852 200.096 15.1818 199.521 15.1818ZM205.367 15V6.27273H206.043V7.63636H206.106C206.295 7.18939 206.615 6.83144 207.066 6.5625C207.517 6.28977 208.03 6.15341 208.606 6.15341C208.666 6.15341 208.727 6.15341 208.788 6.15341C208.848 6.15341 208.905 6.1553 208.958 6.15909V6.85795C208.913 6.85417 208.858 6.84848 208.793 6.84091C208.733 6.82955 208.657 6.82386 208.566 6.82386C208.081 6.82386 207.649 6.92803 207.271 7.13636C206.896 7.3447 206.6 7.63258 206.384 8C206.168 8.36364 206.06 8.7803 206.06 9.25V15H205.367ZM218.252 15.1591C217.589 15.1591 217 15.0208 216.485 14.7443C215.974 14.4678 215.57 14.0947 215.275 13.625C214.983 13.1515 214.837 12.6193 214.837 12.0284C214.837 11.6345 214.915 11.2746 215.07 10.9489C215.226 10.6193 215.46 10.2955 215.775 9.97727C216.093 9.6553 216.495 9.31439 216.979 8.95455L218.678 7.6875C219.156 7.33144 219.504 6.99811 219.724 6.6875C219.947 6.37311 220.059 6.01326 220.059 5.60795C220.059 5.12311 219.892 4.70833 219.559 4.36364C219.229 4.01894 218.809 3.84659 218.298 3.84659C217.949 3.84659 217.629 3.9375 217.337 4.11932C217.049 4.29735 216.818 4.5303 216.644 4.81818C216.474 5.10606 216.388 5.41477 216.388 5.74432C216.388 6.00189 216.449 6.25758 216.57 6.51136C216.695 6.76136 216.871 7.03788 217.099 7.34091C217.33 7.64015 217.606 7.98864 217.928 8.38636L223.224 15H222.383L217.519 8.9375C217.144 8.47538 216.82 8.07008 216.548 7.72159C216.275 7.37311 216.065 7.04167 215.917 6.72727C215.769 6.41288 215.695 6.08144 215.695 5.73295C215.695 5.26705 215.809 4.8447 216.036 4.46591C216.267 4.08333 216.578 3.7803 216.968 3.55682C217.358 3.33333 217.798 3.22159 218.286 3.22159C218.771 3.22159 219.199 3.32765 219.57 3.53977C219.942 3.74811 220.231 4.03409 220.44 4.39773C220.648 4.75758 220.752 5.16098 220.752 5.60795C220.752 6.10417 220.62 6.55303 220.354 6.95455C220.093 7.35606 219.686 7.77083 219.133 8.19886L217.224 9.61932C216.587 10.1042 216.146 10.536 215.9 10.9148C215.657 11.2936 215.536 11.6648 215.536 12.0284C215.536 12.483 215.654 12.8977 215.888 13.2727C216.123 13.6477 216.443 13.9489 216.849 14.1761C217.258 14.4034 217.722 14.5189 218.241 14.5227C218.763 14.5152 219.246 14.4129 219.69 14.2159C220.133 14.0189 220.523 13.7443 220.86 13.392C221.201 13.036 221.478 12.6136 221.69 12.125C221.906 11.6326 222.046 11.0852 222.11 10.483L222.786 10.517C222.748 10.9905 222.665 11.4167 222.536 11.7955C222.407 12.1705 222.258 12.5019 222.087 12.7898C221.921 13.0777 221.76 13.322 221.604 13.5227C221.559 13.5833 221.515 13.642 221.474 13.6989C221.432 13.7557 221.387 13.8106 221.337 13.8636C220.955 14.2765 220.485 14.5966 219.928 14.8239C219.375 15.0473 218.817 15.1591 218.252 15.1591ZM45.3381 34V22.3636H51.8153V23.0227H46.0483V27.8466H51.4688V28.5057H46.0483V33.3409H51.9517V34H45.3381ZM56.8281 34.1875C56.3243 34.1875 55.8622 34.0871 55.4418 33.8864C55.0251 33.6856 54.6899 33.392 54.4361 33.0057C54.1861 32.6193 54.0611 32.1496 54.0611 31.5966C54.0611 31.233 54.1255 30.9129 54.2543 30.6364C54.383 30.3598 54.5819 30.1212 54.8509 29.9205C55.1198 29.7197 55.4645 29.5549 55.8849 29.4261C56.3054 29.2936 56.8073 29.1913 57.3906 29.1193C57.8338 29.0663 58.2296 29.0152 58.5781 28.9659C58.9266 28.9129 59.1993 28.8314 59.3963 28.7216C59.5971 28.6117 59.6974 28.4451 59.6974 28.2216V27.858C59.6974 27.2216 59.4967 26.7159 59.0952 26.3409C58.6937 25.9659 58.1406 25.7784 57.4361 25.7784C56.8111 25.7784 56.2846 25.9167 55.8565 26.1932C55.4323 26.4659 55.1349 26.8182 54.9645 27.25L54.3111 27.0057C54.4777 26.589 54.7183 26.2424 55.0327 25.9659C55.3509 25.6894 55.7145 25.483 56.1236 25.3466C56.5365 25.2102 56.9683 25.142 57.419 25.142C57.8092 25.142 58.1804 25.197 58.5327 25.3068C58.8887 25.4167 59.205 25.5833 59.4815 25.8068C59.7618 26.0303 59.9834 26.3163 60.1463 26.6648C60.3092 27.0095 60.3906 27.4223 60.3906 27.9034V34H59.6974V32.4261H59.6463C59.4948 32.7519 59.2865 33.0492 59.0213 33.3182C58.7599 33.5833 58.4437 33.7955 58.0724 33.9545C57.705 34.1098 57.2902 34.1875 56.8281 34.1875ZM56.8963 33.5455C57.4418 33.5455 57.9247 33.4129 58.3452 33.1477C58.7694 32.8788 59.1009 32.5114 59.3395 32.0455C59.5781 31.5795 59.6974 31.0511 59.6974 30.4602V29.1761C59.6103 29.2519 59.4834 29.3201 59.3168 29.3807C59.1539 29.4375 58.9683 29.4886 58.7599 29.5341C58.5554 29.5758 58.3395 29.6136 58.1122 29.6477C57.8887 29.678 57.6709 29.7064 57.4588 29.733C56.8224 29.8087 56.3035 29.9261 55.902 30.0852C55.5043 30.2405 55.2126 30.4451 55.027 30.6989C54.8452 30.9527 54.7543 31.2595 54.7543 31.6193C54.7543 32.214 54.9588 32.6837 55.3679 33.0284C55.777 33.3731 56.2865 33.5455 56.8963 33.5455ZM68.8423 27.1534L68.2003 27.3239C68.098 27.0057 67.9522 26.7311 67.7628 26.5C67.5734 26.2689 67.3348 26.0909 67.0469 25.9659C66.7628 25.8371 66.4219 25.7727 66.0241 25.7727C65.384 25.7727 64.8594 25.9318 64.4503 26.25C64.045 26.5682 63.8423 26.983 63.8423 27.4943C63.8423 27.911 63.9806 28.2557 64.2571 28.5284C64.5336 28.7973 64.956 29.0019 65.5241 29.142L66.8651 29.4773C67.5545 29.6477 68.0734 29.9242 68.4219 30.3068C68.7704 30.6856 68.9446 31.1572 68.9446 31.7216C68.9446 32.2027 68.8139 32.6288 68.5526 33C68.2912 33.3712 67.9295 33.661 67.4673 33.8693C67.009 34.0777 66.4749 34.1818 65.8651 34.1818C65.0507 34.1818 64.3821 33.9924 63.8594 33.6136C63.3366 33.2311 63.0014 32.6837 62.8537 31.9716L63.5185 31.8011C63.6435 32.3693 63.9029 32.803 64.2969 33.1023C64.6946 33.3977 65.2154 33.5455 65.8594 33.5455C66.5715 33.5455 67.1454 33.3769 67.581 33.0398C68.0204 32.7027 68.2401 32.2708 68.2401 31.7443C68.2401 31.3428 68.1113 31.0038 67.8537 30.7273C67.5961 30.4508 67.206 30.2481 66.6832 30.1193L65.2912 29.7784C64.5791 29.6042 64.045 29.3258 63.6889 28.9432C63.3329 28.5568 63.1548 28.0814 63.1548 27.517C63.1548 27.0473 63.2779 26.6345 63.5241 26.2784C63.7704 25.9223 64.1094 25.6439 64.5412 25.4432C64.973 25.2424 65.4673 25.142 66.0241 25.142C66.7628 25.142 67.3651 25.3163 67.831 25.6648C68.2969 26.0133 68.634 26.5095 68.8423 27.1534ZM71.9006 37.2727C71.7263 37.2727 71.554 37.2538 71.3835 37.2159C71.2131 37.178 71.0597 37.1288 70.9233 37.0682L71.1278 36.4602C71.4839 36.5966 71.8059 36.6458 72.0938 36.608C72.3854 36.5701 72.643 36.4375 72.8665 36.2102C73.09 35.983 73.2794 35.6496 73.4347 35.2102L73.8324 34.1193L70.6335 25.2727H71.3778L74.1506 33.108H74.2074L76.9801 25.2727H77.7244L74.0426 35.483C73.9025 35.8769 73.7263 36.2064 73.5142 36.4716C73.3021 36.7367 73.0597 36.9356 72.7869 37.0682C72.518 37.2045 72.2225 37.2727 71.9006 37.2727ZM84.1861 34H83.4361L87.6349 22.3636H88.4531L92.652 34H91.902L88.0724 23.2784H88.0156L84.1861 34ZM85.2486 29.6193H90.8395V30.2784H85.2486V29.6193ZM100.124 27.1534L99.4815 27.3239C99.3793 27.0057 99.2334 26.7311 99.044 26.5C98.8546 26.2689 98.616 26.0909 98.3281 25.9659C98.044 25.8371 97.7031 25.7727 97.3054 25.7727C96.6652 25.7727 96.1406 25.9318 95.7315 26.25C95.3262 26.5682 95.1236 26.983 95.1236 27.4943C95.1236 27.911 95.2618 28.2557 95.5384 28.5284C95.8149 28.7973 96.2372 29.0019 96.8054 29.142L98.1463 29.4773C98.8357 29.6477 99.3546 29.9242 99.7031 30.3068C100.052 30.6856 100.226 31.1572 100.226 31.7216C100.226 32.2027 100.095 32.6288 99.8338 33C99.5724 33.3712 99.2107 33.661 98.7486 33.8693C98.2902 34.0777 97.7562 34.1818 97.1463 34.1818C96.3319 34.1818 95.6634 33.9924 95.1406 33.6136C94.6179 33.2311 94.2827 32.6837 94.1349 31.9716L94.7997 31.8011C94.9247 32.3693 95.1842 32.803 95.5781 33.1023C95.9759 33.3977 96.4967 33.5455 97.1406 33.5455C97.8527 33.5455 98.4266 33.3769 98.8622 33.0398C99.3016 32.7027 99.5213 32.2708 99.5213 31.7443C99.5213 31.3428 99.3925 31.0038 99.1349 30.7273C98.8774 30.4508 98.4872 30.2481 97.9645 30.1193L96.5724 29.7784C95.8603 29.6042 95.3262 29.3258 94.9702 28.9432C94.6141 28.5568 94.4361 28.0814 94.4361 27.517C94.4361 27.0473 94.5592 26.6345 94.8054 26.2784C95.0516 25.9223 95.3906 25.6439 95.8224 25.4432C96.2543 25.2424 96.7486 25.142 97.3054 25.142C98.044 25.142 98.6463 25.3163 99.1122 25.6648C99.5781 26.0133 99.9152 26.5095 100.124 27.1534ZM108.17 27.1534L107.528 27.3239C107.426 27.0057 107.28 26.7311 107.091 26.5C106.902 26.2689 106.663 26.0909 106.375 25.9659C106.091 25.8371 105.75 25.7727 105.352 25.7727C104.712 25.7727 104.188 25.9318 103.778 26.25C103.373 26.5682 103.17 26.983 103.17 27.4943C103.17 27.911 103.309 28.2557 103.585 28.5284C103.862 28.7973 104.284 29.0019 104.852 29.142L106.193 29.4773C106.883 29.6477 107.402 29.9242 107.75 30.3068C108.098 30.6856 108.273 31.1572 108.273 31.7216C108.273 32.2027 108.142 32.6288 107.881 33C107.619 33.3712 107.258 33.661 106.795 33.8693C106.337 34.0777 105.803 34.1818 105.193 34.1818C104.379 34.1818 103.71 33.9924 103.188 33.6136C102.665 33.2311 102.33 32.6837 102.182 31.9716L102.847 31.8011C102.972 32.3693 103.231 32.803 103.625 33.1023C104.023 33.3977 104.544 33.5455 105.188 33.5455C105.9 33.5455 106.473 33.3769 106.909 33.0398C107.348 32.7027 107.568 32.2708 107.568 31.7443C107.568 31.3428 107.439 31.0038 107.182 30.7273C106.924 30.4508 106.534 30.2481 106.011 30.1193L104.619 29.7784C103.907 29.6042 103.373 29.3258 103.017 28.9432C102.661 28.5568 102.483 28.0814 102.483 27.517C102.483 27.0473 102.606 26.6345 102.852 26.2784C103.098 25.9223 103.438 25.6439 103.869 25.4432C104.301 25.2424 104.795 25.142 105.352 25.142C106.091 25.142 106.693 25.3163 107.159 25.6648C107.625 26.0133 107.962 26.5095 108.17 27.1534ZM110.706 34V25.2727H111.393V34H110.706ZM111.053 23.7273C110.901 23.7273 110.768 23.6742 110.655 23.5682C110.545 23.4621 110.49 23.3333 110.49 23.1818C110.49 23.0303 110.545 22.9015 110.655 22.7955C110.765 22.6894 110.897 22.6364 111.053 22.6364C111.204 22.6364 111.335 22.6894 111.445 22.7955C111.558 22.9015 111.615 23.0303 111.615 23.1818C111.615 23.3333 111.56 23.4621 111.45 23.5682C111.34 23.6742 111.208 23.7273 111.053 23.7273ZM119.842 27.1534L119.2 27.3239C119.098 27.0057 118.952 26.7311 118.763 26.5C118.573 26.2689 118.335 26.0909 118.047 25.9659C117.763 25.8371 117.422 25.7727 117.024 25.7727C116.384 25.7727 115.859 25.9318 115.45 26.25C115.045 26.5682 114.842 26.983 114.842 27.4943C114.842 27.911 114.981 28.2557 115.257 28.5284C115.534 28.7973 115.956 29.0019 116.524 29.142L117.865 29.4773C118.554 29.6477 119.073 29.9242 119.422 30.3068C119.77 30.6856 119.945 31.1572 119.945 31.7216C119.945 32.2027 119.814 32.6288 119.553 33C119.291 33.3712 118.929 33.661 118.467 33.8693C118.009 34.0777 117.475 34.1818 116.865 34.1818C116.051 34.1818 115.382 33.9924 114.859 33.6136C114.337 33.2311 114.001 32.6837 113.854 31.9716L114.518 31.8011C114.643 32.3693 114.903 32.803 115.297 33.1023C115.695 33.3977 116.215 33.5455 116.859 33.5455C117.571 33.5455 118.145 33.3769 118.581 33.0398C119.02 32.7027 119.24 32.2708 119.24 31.7443C119.24 31.3428 119.111 31.0038 118.854 30.7273C118.596 30.4508 118.206 30.2481 117.683 30.1193L116.291 29.7784C115.579 29.6042 115.045 29.3258 114.689 28.9432C114.333 28.5568 114.155 28.0814 114.155 27.517C114.155 27.0473 114.278 26.6345 114.524 26.2784C114.77 25.9223 115.109 25.6439 115.541 25.4432C115.973 25.2424 116.467 25.142 117.024 25.142C117.763 25.142 118.365 25.3163 118.831 25.6648C119.297 26.0133 119.634 26.5095 119.842 27.1534ZM125.429 25.2727V25.892H121.616V25.2727H125.429ZM122.906 23.1818H123.594V31.9375C123.594 32.2936 123.662 32.5852 123.798 32.8125C123.938 33.036 124.12 33.2027 124.344 33.3125C124.571 33.4186 124.813 33.4716 125.071 33.4716C125.196 33.4716 125.304 33.4621 125.395 33.4432C125.49 33.4242 125.579 33.3996 125.662 33.3693L125.832 34C125.726 34.0379 125.609 34.0701 125.48 34.0966C125.351 34.1269 125.2 34.142 125.026 34.142C124.662 34.142 124.317 34.0606 123.991 33.8977C123.67 33.7348 123.408 33.4981 123.207 33.1875C123.007 32.8769 122.906 32.5019 122.906 32.0625V23.1818ZM130.312 34.1875C129.809 34.1875 129.347 34.0871 128.926 33.8864C128.509 33.6856 128.174 33.392 127.92 33.0057C127.67 32.6193 127.545 32.1496 127.545 31.5966C127.545 31.233 127.61 30.9129 127.739 30.6364C127.867 30.3598 128.066 30.1212 128.335 29.9205C128.604 29.7197 128.949 29.5549 129.369 29.4261C129.79 29.2936 130.292 29.1913 130.875 29.1193C131.318 29.0663 131.714 29.0152 132.062 28.9659C132.411 28.9129 132.684 28.8314 132.881 28.7216C133.081 28.6117 133.182 28.4451 133.182 28.2216V27.858C133.182 27.2216 132.981 26.7159 132.58 26.3409C132.178 25.9659 131.625 25.7784 130.92 25.7784C130.295 25.7784 129.769 25.9167 129.341 26.1932C128.917 26.4659 128.619 26.8182 128.449 27.25L127.795 27.0057C127.962 26.589 128.203 26.2424 128.517 25.9659C128.835 25.6894 129.199 25.483 129.608 25.3466C130.021 25.2102 130.453 25.142 130.903 25.142C131.294 25.142 131.665 25.197 132.017 25.3068C132.373 25.4167 132.689 25.5833 132.966 25.8068C133.246 26.0303 133.468 26.3163 133.631 26.6648C133.794 27.0095 133.875 27.4223 133.875 27.9034V34H133.182V32.4261H133.131C132.979 32.7519 132.771 33.0492 132.506 33.3182C132.244 33.5833 131.928 33.7955 131.557 33.9545C131.189 34.1098 130.775 34.1875 130.312 34.1875ZM130.381 33.5455C130.926 33.5455 131.409 33.4129 131.83 33.1477C132.254 32.8788 132.585 32.5114 132.824 32.0455C133.063 31.5795 133.182 31.0511 133.182 30.4602V29.1761C133.095 29.2519 132.968 29.3201 132.801 29.3807C132.638 29.4375 132.453 29.4886 132.244 29.5341C132.04 29.5758 131.824 29.6136 131.597 29.6477C131.373 29.678 131.155 29.7064 130.943 29.733C130.307 29.8087 129.788 29.9261 129.386 30.0852C128.989 30.2405 128.697 30.4451 128.511 30.6989C128.33 30.9527 128.239 31.2595 128.239 31.6193C128.239 32.214 128.443 32.6837 128.852 33.0284C129.261 33.3731 129.771 33.5455 130.381 33.5455ZM137.474 28.3409V34H136.781V25.2727H137.457V26.6534H137.526C137.73 26.2027 138.058 25.8409 138.509 25.5682C138.959 25.2955 139.495 25.1591 140.116 25.1591C140.704 25.1591 141.219 25.2841 141.662 25.5341C142.109 25.7841 142.457 26.1402 142.707 26.6023C142.961 27.0606 143.088 27.608 143.088 28.2443V34H142.395V28.2727C142.395 27.5303 142.173 26.9337 141.73 26.483C141.291 26.0284 140.709 25.8011 139.986 25.8011C139.501 25.8011 139.069 25.9072 138.69 26.1193C138.312 26.3314 138.014 26.6288 137.798 27.0114C137.582 27.3902 137.474 27.8333 137.474 28.3409ZM149.241 34.1818C148.499 34.1818 147.846 33.9867 147.281 33.5966C146.717 33.2027 146.276 32.6648 145.957 31.983C145.643 31.3011 145.486 30.5284 145.486 29.6648C145.486 28.8011 145.645 28.0284 145.963 27.3466C146.281 26.6648 146.723 26.1269 147.287 25.733C147.851 25.339 148.501 25.142 149.236 25.142C149.789 25.142 150.293 25.2557 150.747 25.483C151.205 25.7102 151.584 26.0265 151.884 26.4318C152.187 26.8371 152.38 27.3068 152.463 27.8409H151.759C151.645 27.25 151.361 26.7614 150.906 26.375C150.455 25.9848 149.901 25.7898 149.241 25.7898C148.651 25.7898 148.124 25.9564 147.662 26.2898C147.2 26.6193 146.836 27.0758 146.571 27.6591C146.306 28.2386 146.173 28.9034 146.173 29.6534C146.173 30.392 146.302 31.0549 146.56 31.642C146.817 32.2254 147.177 32.6875 147.639 33.0284C148.101 33.3693 148.635 33.5398 149.241 33.5398C149.67 33.5398 150.06 33.4545 150.412 33.2841C150.768 33.1136 151.065 32.8712 151.304 32.5568C151.543 32.2424 151.7 31.875 151.776 31.4545H152.48C152.397 31.9924 152.207 32.4659 151.912 32.875C151.616 33.2841 151.24 33.6042 150.781 33.8352C150.323 34.0663 149.81 34.1818 149.241 34.1818ZM158.247 34.1818C157.459 34.1818 156.774 33.9867 156.19 33.5966C155.607 33.2064 155.156 32.6723 154.838 31.9943C154.52 31.3163 154.361 30.5436 154.361 29.6761C154.361 28.8049 154.52 28.0284 154.838 27.3466C155.16 26.6648 155.601 26.1269 156.162 25.733C156.723 25.339 157.363 25.142 158.082 25.142C158.571 25.142 159.033 25.2405 159.469 25.4375C159.908 25.6307 160.295 25.911 160.628 26.2784C160.965 26.6458 161.228 27.089 161.418 27.608C161.611 28.1269 161.707 28.7102 161.707 29.358V29.7898H154.798V29.1591H161.014C161.014 28.5265 160.885 27.9564 160.628 27.4489C160.37 26.9413 160.02 26.5379 159.577 26.2386C159.134 25.9394 158.635 25.7898 158.082 25.7898C157.503 25.7898 156.986 25.9527 156.531 26.2784C156.08 26.6004 155.723 27.036 155.457 27.5852C155.196 28.1345 155.06 28.7481 155.048 29.4261V29.7102C155.048 30.4375 155.175 31.0909 155.429 31.6705C155.687 32.2462 156.054 32.7027 156.531 33.0398C157.009 33.3731 157.58 33.5398 158.247 33.5398C158.724 33.5398 159.132 33.4602 159.469 33.3011C159.81 33.1383 160.088 32.9413 160.304 32.7102C160.52 32.4792 160.683 32.2557 160.793 32.0398L161.423 32.2955C161.291 32.5871 161.084 32.8788 160.804 33.1705C160.527 33.4583 160.175 33.6989 159.747 33.892C159.323 34.0852 158.823 34.1818 158.247 34.1818ZM171.889 25.2727V25.892H168.02V25.2727H171.889ZM169.293 34V23.9148C169.293 23.4754 169.393 23.1004 169.594 22.7898C169.795 22.4792 170.058 22.2424 170.384 22.0795C170.713 21.9167 171.067 21.8352 171.446 21.8352C171.647 21.8352 171.817 21.8523 171.957 21.8864C172.101 21.9167 172.226 21.9527 172.332 21.9943L172.128 22.608C172.041 22.5777 171.946 22.5511 171.844 22.5284C171.745 22.5057 171.628 22.4943 171.491 22.4943C171.052 22.4943 170.69 22.6288 170.406 22.8977C170.122 23.1667 169.98 23.5417 169.98 24.0227L169.974 34H169.293ZM176.932 34.1818C176.212 34.1818 175.572 33.9886 175.011 33.6023C174.451 33.2121 174.009 32.6761 173.688 31.9943C173.366 31.3125 173.205 30.536 173.205 29.6648C173.205 28.7898 173.366 28.0133 173.688 27.3352C174.009 26.6534 174.451 26.1174 175.011 25.7273C175.572 25.3371 176.212 25.142 176.932 25.142C177.652 25.142 178.292 25.3371 178.852 25.7273C179.413 26.1174 179.854 26.6534 180.176 27.3352C180.498 28.017 180.659 28.7936 180.659 29.6648C180.659 30.536 180.498 31.3125 180.176 31.9943C179.854 32.6761 179.413 33.2121 178.852 33.6023C178.292 33.9886 177.652 34.1818 176.932 34.1818ZM176.932 33.5398C177.542 33.5398 178.074 33.3674 178.528 33.0227C178.987 32.678 179.341 32.2121 179.591 31.625C179.845 31.0379 179.972 30.3845 179.972 29.6648C179.972 28.9451 179.845 28.2936 179.591 27.7102C179.337 27.1231 178.983 26.6572 178.528 26.3125C178.074 25.964 177.542 25.7898 176.932 25.7898C176.322 25.7898 175.79 25.964 175.335 26.3125C174.881 26.6572 174.527 27.1231 174.273 27.7102C174.019 28.2936 173.892 28.9451 173.892 29.6648C173.892 30.3845 174.017 31.0379 174.267 31.625C174.521 32.2121 174.875 32.678 175.33 33.0227C175.788 33.3674 176.322 33.5398 176.932 33.5398ZM183.047 34V25.2727H183.723V26.6364H183.786C183.975 26.1894 184.295 25.8314 184.746 25.5625C185.196 25.2898 185.71 25.1534 186.286 25.1534C186.346 25.1534 186.407 25.1534 186.467 25.1534C186.528 25.1534 186.585 25.1553 186.638 25.1591V25.858C186.592 25.8542 186.537 25.8485 186.473 25.8409C186.412 25.8295 186.337 25.8239 186.246 25.8239C185.761 25.8239 185.329 25.928 184.95 26.1364C184.575 26.3447 184.28 26.6326 184.064 27C183.848 27.3636 183.74 27.7803 183.74 28.25V34H183.047ZM192.472 23.0227V22.3636H200.625V23.0227H196.903V34H196.193V23.0227H192.472ZM202.062 34V25.2727H202.739V26.6364H202.801C202.991 26.1894 203.311 25.8314 203.761 25.5625C204.212 25.2898 204.725 25.1534 205.301 25.1534C205.362 25.1534 205.422 25.1534 205.483 25.1534C205.544 25.1534 205.6 25.1553 205.653 25.1591V25.858C205.608 25.8542 205.553 25.8485 205.489 25.8409C205.428 25.8295 205.352 25.8239 205.261 25.8239C204.777 25.8239 204.345 25.928 203.966 26.1364C203.591 26.3447 203.295 26.6326 203.08 27C202.864 27.3636 202.756 27.7803 202.756 28.25V34H202.062ZM209.828 34.1875C209.324 34.1875 208.862 34.0871 208.442 33.8864C208.025 33.6856 207.69 33.392 207.436 33.0057C207.186 32.6193 207.061 32.1496 207.061 31.5966C207.061 31.233 207.125 30.9129 207.254 30.6364C207.383 30.3598 207.582 30.1212 207.851 29.9205C208.12 29.7197 208.464 29.5549 208.885 29.4261C209.305 29.2936 209.807 29.1913 210.391 29.1193C210.834 29.0663 211.23 29.0152 211.578 28.9659C211.927 28.9129 212.199 28.8314 212.396 28.7216C212.597 28.6117 212.697 28.4451 212.697 28.2216V27.858C212.697 27.2216 212.497 26.7159 212.095 26.3409C211.694 25.9659 211.141 25.7784 210.436 25.7784C209.811 25.7784 209.285 25.9167 208.857 26.1932C208.432 26.4659 208.135 26.8182 207.964 27.25L207.311 27.0057C207.478 26.589 207.718 26.2424 208.033 25.9659C208.351 25.6894 208.714 25.483 209.124 25.3466C209.536 25.2102 209.968 25.142 210.419 25.142C210.809 25.142 211.18 25.197 211.533 25.3068C211.889 25.4167 212.205 25.5833 212.482 25.8068C212.762 26.0303 212.983 26.3163 213.146 26.6648C213.309 27.0095 213.391 27.4223 213.391 27.9034V34H212.697V32.4261H212.646C212.495 32.7519 212.286 33.0492 212.021 33.3182C211.76 33.5833 211.444 33.7955 211.072 33.9545C210.705 34.1098 210.29 34.1875 209.828 34.1875ZM209.896 33.5455C210.442 33.5455 210.925 33.4129 211.345 33.1477C211.769 32.8788 212.101 32.5114 212.339 32.0455C212.578 31.5795 212.697 31.0511 212.697 30.4602V29.1761C212.61 29.2519 212.483 29.3201 212.317 29.3807C212.154 29.4375 211.968 29.4886 211.76 29.5341C211.555 29.5758 211.339 29.6136 211.112 29.6477C210.889 29.678 210.671 29.7064 210.459 29.733C209.822 29.8087 209.304 29.9261 208.902 30.0852C208.504 30.2405 208.213 30.4451 208.027 30.6989C207.845 30.9527 207.754 31.2595 207.754 31.6193C207.754 32.214 207.959 32.6837 208.368 33.0284C208.777 33.3731 209.286 33.5455 209.896 33.5455ZM222.365 25.2727L219.212 34H218.428L215.274 25.2727H216.018L218.791 33.108H218.848L221.621 25.2727H222.365ZM227.622 34.1818C226.834 34.1818 226.149 33.9867 225.565 33.5966C224.982 33.2064 224.531 32.6723 224.213 31.9943C223.895 31.3163 223.736 30.5436 223.736 29.6761C223.736 28.8049 223.895 28.0284 224.213 27.3466C224.535 26.6648 224.976 26.1269 225.537 25.733C226.098 25.339 226.738 25.142 227.457 25.142C227.946 25.142 228.408 25.2405 228.844 25.4375C229.283 25.6307 229.67 25.911 230.003 26.2784C230.34 26.6458 230.603 27.089 230.793 27.608C230.986 28.1269 231.082 28.7102 231.082 29.358V29.7898H224.173V29.1591H230.389C230.389 28.5265 230.26 27.9564 230.003 27.4489C229.745 26.9413 229.395 26.5379 228.952 26.2386C228.509 25.9394 228.01 25.7898 227.457 25.7898C226.878 25.7898 226.361 25.9527 225.906 26.2784C225.455 26.6004 225.098 27.036 224.832 27.5852C224.571 28.1345 224.435 28.7481 224.423 29.4261V29.7102C224.423 30.4375 224.55 31.0909 224.804 31.6705C225.062 32.2462 225.429 32.7027 225.906 33.0398C226.384 33.3731 226.955 33.5398 227.622 33.5398C228.099 33.5398 228.507 33.4602 228.844 33.3011C229.185 33.1383 229.463 32.9413 229.679 32.7102C229.895 32.4792 230.058 32.2557 230.168 32.0398L230.798 32.2955C230.666 32.5871 230.459 32.8788 230.179 33.1705C229.902 33.4583 229.55 33.6989 229.122 33.892C228.698 34.0852 228.198 34.1818 227.622 34.1818ZM234.162 22.3636V34H233.469V22.3636H234.162ZM240.435 34.1818C239.647 34.1818 238.961 33.9867 238.378 33.5966C237.795 33.2064 237.344 32.6723 237.026 31.9943C236.707 31.3163 236.548 30.5436 236.548 29.6761C236.548 28.8049 236.707 28.0284 237.026 27.3466C237.348 26.6648 237.789 26.1269 238.349 25.733C238.91 25.339 239.55 25.142 240.27 25.142C240.759 25.142 241.221 25.2405 241.656 25.4375C242.096 25.6307 242.482 25.911 242.815 26.2784C243.152 26.6458 243.416 27.089 243.605 27.608C243.798 28.1269 243.895 28.7102 243.895 29.358V29.7898H236.986V29.1591H243.202C243.202 28.5265 243.073 27.9564 242.815 27.4489C242.558 26.9413 242.207 26.5379 241.764 26.2386C241.321 25.9394 240.823 25.7898 240.27 25.7898C239.69 25.7898 239.173 25.9527 238.719 26.2784C238.268 26.6004 237.91 27.036 237.645 27.5852C237.384 28.1345 237.247 28.7481 237.236 29.4261V29.7102C237.236 30.4375 237.363 31.0909 237.616 31.6705C237.874 32.2462 238.241 32.7027 238.719 33.0398C239.196 33.3731 239.768 33.5398 240.435 33.5398C240.912 33.5398 241.319 33.4602 241.656 33.3011C241.997 33.1383 242.276 32.9413 242.491 32.7102C242.707 32.4792 242.87 32.2557 242.98 32.0398L243.611 32.2955C243.478 32.5871 243.272 32.8788 242.991 33.1705C242.715 33.4583 242.363 33.6989 241.935 33.892C241.51 34.0852 241.01 34.1818 240.435 34.1818ZM246.281 34V25.2727H246.957V26.6364H247.02C247.209 26.1894 247.529 25.8314 247.98 25.5625C248.431 25.2898 248.944 25.1534 249.52 25.1534C249.58 25.1534 249.641 25.1534 249.702 25.1534C249.762 25.1534 249.819 25.1553 249.872 25.1591V25.858C249.827 25.8542 249.772 25.8485 249.707 25.8409C249.647 25.8295 249.571 25.8239 249.48 25.8239C248.995 25.8239 248.563 25.928 248.185 26.1364C247.81 26.3447 247.514 26.6326 247.298 27C247.082 27.3636 246.974 27.7803 246.974 28.25V34H246.281ZM257.28 27.1534L256.638 27.3239C256.536 27.0057 256.39 26.7311 256.2 26.5C256.011 26.2689 255.772 26.0909 255.484 25.9659C255.2 25.8371 254.859 25.7727 254.462 25.7727C253.821 25.7727 253.297 25.9318 252.888 26.25C252.482 26.5682 252.28 26.983 252.28 27.4943C252.28 27.911 252.418 28.2557 252.695 28.5284C252.971 28.7973 253.393 29.0019 253.962 29.142L255.303 29.4773C255.992 29.6477 256.511 29.9242 256.859 30.3068C257.208 30.6856 257.382 31.1572 257.382 31.7216C257.382 32.2027 257.251 32.6288 256.99 33C256.729 33.3712 256.367 33.661 255.905 33.8693C255.446 34.0777 254.912 34.1818 254.303 34.1818C253.488 34.1818 252.82 33.9924 252.297 33.6136C251.774 33.2311 251.439 32.6837 251.291 31.9716L251.956 31.8011C252.081 32.3693 252.34 32.803 252.734 33.1023C253.132 33.3977 253.653 33.5455 254.297 33.5455C255.009 33.5455 255.583 33.3769 256.018 33.0398C256.458 32.7027 256.678 32.2708 256.678 31.7443C256.678 31.3428 256.549 31.0038 256.291 30.7273C256.034 30.4508 255.643 30.2481 255.121 30.1193L253.729 29.7784C253.017 29.6042 252.482 29.3258 252.126 28.9432C251.77 28.5568 251.592 28.0814 251.592 27.517C251.592 27.0473 251.715 26.6345 251.962 26.2784C252.208 25.9223 252.547 25.6439 252.979 25.4432C253.411 25.2424 253.905 25.142 254.462 25.142C255.2 25.142 255.803 25.3163 256.268 25.6648C256.734 26.0133 257.071 26.5095 257.28 27.1534Z" fill="#545F71"/>
</svg>
